<svg id="Logo" xmlns="http://www.w3.org/2000/svg" viewBox="0 0 1000 764.05"><defs><style>.cls-1{fill:#151c26;}</style></defs><path class="cls-1" d="M518.4,590.37h-.3L330,388,513.08,191.18l-.15-.16,174.9-188c-3.12-.27-37-.49-78.52-.65A373.14,373.14,0,0,0,334.69,121.33L208.28,257.18l-3.73,4-30.7,33V2H1.68V764.05h173l-.84-92.48V555.82l34.43-37L325.81,645.13A373.11,373.11,0,0,0,601.32,764.05l78.22-.5-44.69-48Z"/><path class="cls-1" d="M769.32,29.21l-131,140.89c106.67,12.32,189.51,103,189.51,213,0,112.58-86.73,204.87-197,213.71l132.65,142.7C902.45,680.89,1000,543.39,1000,383.07,1000,225.05,905.19,89.14,769.32,29.21Z"/></svg>