<svg id="Logo" xmlns="http://www.w3.org/2000/svg" viewBox="0 0 1000 200"><path d="M264.26,139.55l-27.74-36.44v36.44h-20.1V57.05h20.1V93.24L264,57.05h23.63l-32,40.42,33.14,42.08Z"/><path d="M318.44,73.15V89.84h26.91v15.51H318.44v18.1h30.43v16.1H298.34V57.05h50.53v16.1Z"/><path d="M439.37,57.05l-29.27,82.5H385l-29.26-82.5h21.39l20.45,62.28L418.1,57.05Z"/><path d="M467.81,57.05v82.5h-20.1V57.05Z"/><path d="M556.19,139.55h-20.1L502.48,88.66v50.89h-20.1V57.05h20.1l33.61,51.12V57.05h20.1Z"/><path d="M649.38,62.22a36.87,36.87,0,0,1,15.1,14.51,42.61,42.61,0,0,1,5.35,21.57,42.63,42.63,0,0,1-5.35,21.5,36.75,36.75,0,0,1-15.16,14.58q-9.81,5.18-22.74,5.17H595.67V57.05h30.91Q639.63,57.05,649.38,62.22ZM643,115.93q6.35-6.24,6.34-17.63T643,80.55q-6.35-6.35-17.75-6.35h-9.52v48h9.52Q636.69,122.15,643,115.93Z"/><path d="M700.86,57.05v49.36q0,7.4,3.64,11.4t10.7,4q7,0,10.81-4t3.76-11.4V57.05h20.09v49.24q0,11-4.7,18.69a30,30,0,0,1-12.63,11.51,39.7,39.7,0,0,1-17.69,3.88,38.69,38.69,0,0,1-17.45-3.82A28.36,28.36,0,0,1,685.23,125q-4.47-7.69-4.47-18.74V57.05Z"/><path d="M822.73,153.65l-10.58-14.22a46.43,46.43,0,0,1-9.17.94A43,43,0,0,1,781.65,135a40.35,40.35,0,0,1-15.39-15.1,42.19,42.19,0,0,1-5.7-21.8,41.87,41.87,0,0,1,5.7-21.74,40.55,40.55,0,0,1,15.39-15,44.77,44.77,0,0,1,42.67,0,39.68,39.68,0,0,1,15.27,15,42.58,42.58,0,0,1,5.59,21.74,43.31,43.31,0,0,1-4.29,19.33A39.9,39.9,0,0,1,829,131.91l18.1,21.74Zm-35.67-38.14Q793,122,803,122t15.81-6.58q5.94-6.58,5.94-17.4t-5.94-17.45q-5.94-6.52-15.81-6.52t-15.92,6.46q-5.94,6.47-5.94,17.51T787.06,115.51Z"/><path d="M876.32,57.05v49.36q0,7.4,3.64,11.4t10.7,4q7.05,0,10.81-4t3.76-11.4V57.05h20.1v49.24q0,11-4.7,18.69A30.11,30.11,0,0,1,908,136.49a39.65,39.65,0,0,1-17.68,3.88,38.7,38.7,0,0,1-17.46-3.82A28.41,28.41,0,0,1,860.69,125q-4.47-7.69-4.47-18.74V57.05Z"/><path d="M959.53,73.15V89.84h26.91v15.51H959.53v18.1H990v16.1H939.43V57.05H990v16.1Z"/><path d="M98.68,135.57h-.05L66.36,100.85,97.77,67.09l0,0,30-32.25c-.53,0-6.35-.08-13.47-.11A64,64,0,0,0,67.17,55.1L45.48,78.41l-.64.69-5.27,5.66V34.63H10V165.37H39.72l-.15-15.87V129.64l5.91-6.34L65.64,145a64.06,64.06,0,0,0,47.27,20.4l13.42-.09L118.66,157Z"/><path d="M141.73,39.3,119.26,63.47a36.79,36.79,0,0,1-1.28,73.2l22.76,24.48a66.35,66.35,0,0,0,1-121.85Z"/></svg>