<svg id="Logo" xmlns="http://www.w3.org/2000/svg" viewBox="0 0 1000 1000"><path d="M511.55,636.36h-.2L387.63,503.24l120.42-129.4-.1-.11,115-123.6c-2.05-.18-24.35-.32-51.64-.43a245.37,245.37,0,0,0-180.59,78.2L307.6,417.24l-2.45,2.63L285,441.58V249.43H171.74V750.57H285.52L285,689.75V613.63L307.6,589.3l77.3,83.06a245.33,245.33,0,0,0,181.18,78.21l51.44-.33-29.39-31.59Z"/><path d="M676.56,267.32,590.41,360a141,141,0,0,1-4.91,280.6l87.24,93.84C764.11,695.88,828.26,605.46,828.26,500,828.26,396.11,765.91,306.73,676.56,267.32Z"/></svg>