<svg id="Layer_1" data-name="Layer 1" xmlns="http://www.w3.org/2000/svg" viewBox="0 0 240 168.46"><defs><style>.cls-1{fill:#131313;}</style></defs><path class="cls-1" d="M16.78,143.84c-.7-.36-1.5-.47-2.31-.79l.61-.24a5.67,5.67,0,0,0,4.06-4.93,6,6,0,0,0-3.2-6.26,12.4,12.4,0,0,0-6.18-1.39c-3,0-6,0-8.95,0-.62,0-.82.14-.81.79q0,13.09,0,26.18c0,.66.21.78.82.78,3.53,0,7.07,0,10.6,0a11,11,0,0,0,2.86-.33c2.73-.74,4.92-2.14,5.93-4.94A6.93,6.93,0,0,0,16.78,143.84ZM5.53,140.7v-5.54c0-.29,0-.53.42-.51a33.44,33.44,0,0,1,4.8.15,3,3,0,0,1,2.66,3,3.06,3.06,0,0,1-2.61,3.35,36.26,36.26,0,0,1-4.89.1C5.5,141.26,5.53,141,5.53,140.7Zm6,12.74a49.84,49.84,0,0,1-5.6.1c-.33,0-.41-.17-.41-.45,0-2.33,0-4.66,0-7,0-.39.19-.48.53-.47H8.71a12.42,12.42,0,0,1,3.31.23,3.66,3.66,0,0,1,2.7,4A3.53,3.53,0,0,1,11.54,153.44Z"/><path class="cls-1" d="M177.58,138.45q-1.8.08-3.6,0c-.66,0-.85.21-.8.83,0,.47,0,.95,0,1.63a9.54,9.54,0,0,0-2.6-2.24,8.89,8.89,0,0,0-10.54,2.5A11.13,11.13,0,0,0,157.8,150a9.14,9.14,0,0,0,4.73,7.33,8.47,8.47,0,0,0,8.9-.19,19.37,19.37,0,0,0,1.76-1.46c0,1,0,1.89,0,2.77a12.78,12.78,0,0,1-.3,2.06,4.17,4.17,0,0,1-2.62,3.05c-2.17.83-5.88.3-6.54-2.62-.1-.41-.38-.28-.62-.19l-4.2,1.53c-.33.12-.38.25-.24.58a8.19,8.19,0,0,0,3.15,3.91c3.22,2,6.7,2,10.22,1.11a7.91,7.91,0,0,0,5.79-6,16.46,16.46,0,0,0,.55-4.41c0-6.06,0-12.12,0-18.17C178.39,138.64,178.23,138.42,177.58,138.45Zm-10,15.08a4.43,4.43,0,0,1-4-3.52,5.93,5.93,0,0,1,1.15-5.8,4.52,4.52,0,0,1,4.79-1.35,4.63,4.63,0,0,1,3.42,3.63,12.23,12.23,0,0,1,.19,1.44C173.11,151.56,170.68,153.9,167.58,153.53Z"/><path class="cls-1" d="M110.7,144c0-4.35,0-8.7,0-13,0-.6.16-.79.76-.77,1.49,0,3,0,4.47,0,.51,0,.65.17.64.66,0,3.1,0,6.2,0,9.3,0,1,0,1,.91,1,2.93,0,5.87,0,8.8,0,.71,0,.94-.14.93-.9,0-3.07,0-6.15,0-9.22,0-.65.18-.82.81-.8,1.39,0,2.79,0,4.18,0,.72,0,.93.15.93.9,0,7.42,0,14.85,0,22.27,0,1.3,0,2.6,0,3.89,0,.55-.17.7-.7.69-1.44,0-2.88-.05-4.32,0-.68,0-.9-.14-.9-.86,0-3.34,0-6.68,0-10,0-.71-.2-.87-.89-.86q-4.53,0-9.08,0c-.55,0-.68.16-.68.69,0,3.36,0,6.73,0,10.09,0,1.08.12.94-1,.94h-3.89c-1.05,0-1,.16-1-.94Z"/><path class="cls-1" d="M187.68,141a7.28,7.28,0,0,1,8.55-2.68,6.63,6.63,0,0,1,4.26,4.72,11.29,11.29,0,0,1,.47,3.27c0,3.65,0,7.3,0,11,0,.58-.17.73-.73.72-1.34,0-2.69-.06-4,0-.67,0-.78-.22-.77-.81,0-3.22,0-6.44,0-9.66a6.36,6.36,0,0,0-.55-3,3.32,3.32,0,0,0-3.7-1.74,3.62,3.62,0,0,0-3.09,2.47,7.44,7.44,0,0,0-.43,2.69c0,3.1,0,6.2,0,9.3,0,.52-.12.71-.68.7-1.41,0-2.83,0-4.25,0-.48,0-.61-.17-.6-.63q0-14,0-28c0-.47.15-.63.62-.63,1.39,0,2.79,0,4.18,0,.57,0,.73.17.73.73,0,3.54,0,7.07,0,10.6Z"/><path class="cls-1" d="M66.93,157.94c-2.21,0-4.28,0-6.34,0-.41,0-.53-.28-.71-.52-1.79-2.31-3.58-4.63-5.34-7-.28-.37-.4-.37-.75-.08a2.1,2.1,0,0,0-.86,1.91c.07,1.68,0,3.36,0,5,0,.47-.14.62-.61.62-1.44,0-2.89,0-4.33,0-.49,0-.59-.18-.59-.63q0-14,0-28c0-.48.15-.62.62-.62,1.39,0,2.78.05,4.18,0,.64,0,.73.24.73.8,0,4.85,0,9.71,0,14.56v1l2.67-2.84,3.16-3.36a.92.92,0,0,1,.74-.35h5.84c.09,0,.18,0,.34.05a18.51,18.51,0,0,1-2.07,2.23c-1.71,1.78-3.45,3.54-5.2,5.28-.48.48-.19.78.1,1.15q4,5.06,8,10.12Z"/><path class="cls-1" d="M43.47,139.09c0-.46-.13-.64-.62-.63-1.36,0-2.73,0-4.1,0-.53,0-.65.2-.65.68a5,5,0,0,1-.08,1.76c-.42-.44-.78-.86-1.19-1.23a5.15,5.15,0,0,0-1.42-1,8.79,8.79,0,0,0-10.59,2.92,11.55,11.55,0,0,0-1.69,9.69,8.81,8.81,0,0,0,5.78,6.82,7.7,7.7,0,0,0,8.3-1.62c.27-.25.43-.62.9-.86,0,.65,0,1.2,0,1.75s.14.58.58.57c1.39,0,2.79,0,4.18,0,.49,0,.6-.18.6-.63Q43.46,148.21,43.47,139.09ZM37,152a4.59,4.59,0,0,1-4.18,1.8,4.42,4.42,0,0,1-4-3.37,6.51,6.51,0,0,1,.6-5.59,4.43,4.43,0,0,1,4.21-2.13,4.19,4.19,0,0,1,3.82,2.38A6.13,6.13,0,0,1,37,152Z"/><path class="cls-1" d="M85.4,146.75a9.39,9.39,0,0,0-8-8.78,10.15,10.15,0,0,0-8.44,2.16,9.71,9.71,0,0,0-3.36,6.94c-.28,3.7.75,6.94,3.73,9.35a10.59,10.59,0,0,0,9.25,2,8.74,8.74,0,0,0,5.5-3.64c.4-.54.23-.69-.3-.87-1.09-.37-2.18-.77-3.25-1.18a.75.75,0,0,0-1,.23,4.43,4.43,0,0,1-4.9,1.36,5,5,0,0,1-3.6-4c-.11-.5,0-.73.62-.71,2.19,0,4.38,0,6.56,0h6.63c.45,0,.64-.12.67-.58A13.91,13.91,0,0,0,85.4,146.75Zm-6.07-.94c-1.27-.05-2.54,0-3.81,0s-2.64,0-4,0c-.5,0-.6-.12-.46-.62a4.55,4.55,0,0,1,8.8-.12C80,145.59,80,145.83,79.33,145.81Z"/><path class="cls-1" d="M223.3,146.76a9.74,9.74,0,0,0-3.52-6.85,9.41,9.41,0,0,0-5.8-2.07c-3.52-.12-6.56.95-8.65,3.94a11.06,11.06,0,0,0-1.52,9.36,9.45,9.45,0,0,0,3,5,10.54,10.54,0,0,0,9,2.39,8.91,8.91,0,0,0,6.17-3.85c.31-.43.2-.59-.25-.74q-1.71-.58-3.39-1.23a.78.78,0,0,0-1,.26,4.41,4.41,0,0,1-4.91,1.33,5,5,0,0,1-3.55-4.05c-.1-.5.07-.68.59-.67,2.19,0,4.38,0,6.56,0s4.38,0,6.57,0c.58,0,.77-.21.76-.73C223.35,148.15,223.37,147.45,223.3,146.76Zm-6.12-.95c-1.27-.05-2.54,0-3.82,0s-2.59,0-3.89,0c-.49,0-.6-.12-.48-.63a4.55,4.55,0,0,1,8.78-.17C217.92,145.56,217.88,145.83,217.18,145.81Z"/><path class="cls-1" d="M149.39,155.75a9.67,9.67,0,0,1-2.9,2.29,6.82,6.82,0,0,1-9.59-4.79,15.39,15.39,0,0,1-.4-3.57c0-3.48,0-7,0-10.45,0-.6.17-.79.77-.78q2.06.06,4.11,0c.59,0,.73.2.72.75,0,3.44,0,6.87,0,10.31a4.74,4.74,0,0,0,.87,3,3.18,3.18,0,0,0,3.29,1.15,3.42,3.42,0,0,0,2.74-2.38,8.58,8.58,0,0,0,.38-3c0-3,0-6.06,0-9.09,0-.55.14-.76.73-.75,1.41,0,2.83,0,4.25,0,.42,0,.6.12.6.57q0,9.19,0,18.39c0,.41-.15.54-.55.53-1.46,0-2.93,0-4.4,0-.43,0-.61-.11-.59-.56S149.39,156.29,149.39,155.75Z"/><path class="cls-1" d="M227.43,152.22c.63,0,1.25,0,1.87,0,.42,0,.57.13.67.54a2.45,2.45,0,0,0,3.21,2,2,2,0,0,0,1.14-3.22,5.68,5.68,0,0,0-2.71-1.57,14,14,0,0,1-4.2-2,5.49,5.49,0,0,1,1.22-9.38,8.39,8.39,0,0,1,8.38.55,6,6,0,0,1,2.45,4c.09.44,0,.6-.49.6q-1.87,0-3.75,0c-.42,0-.56-.14-.68-.54a2.14,2.14,0,0,0-3-1.48,1.61,1.61,0,0,0-.62,2.65,6.88,6.88,0,0,0,2.83,1.51,22.89,22.89,0,0,1,3.19,1.34,5.93,5.93,0,0,1,1.94,8.65,6.32,6.32,0,0,1-4.28,2.55,10.66,10.66,0,0,1-6.16-.54,6.21,6.21,0,0,1-3.55-5.29c0-.34.15-.42.43-.42Z"/><path class="cls-1" d="M93.76,141.3a7.9,7.9,0,0,1,4.16-3.17,8,8,0,0,1,3-.14c.33,0,.44.2.44.52,0,1.42,0,2.84,0,4.25,0,.43-.21.47-.55.41a11.21,11.21,0,0,0-2.95-.1,4.21,4.21,0,0,0-3.81,3.63,12.58,12.58,0,0,0-.15,1.94q0,4.34,0,8.65c0,.49-.11.68-.64.67-1.44,0-2.88,0-4.32,0-.45,0-.64-.09-.64-.59q0-9.15,0-18.31c0-.44.14-.6.58-.59,1.44,0,2.89,0,4.33,0,.4,0,.56.14.55.55C93.75,139.77,93.76,140.53,93.76,141.3Z"/><path class="cls-1" d="M174.57,71.67A13.54,13.54,0,0,0,166.39,60c-3.22-1.22-6.46-2.36-9.69-3.52.08-.24.29-.3.5-.37,2.57-.94,5.14-1.89,7.72-2.81a14.62,14.62,0,0,0,4.79-2.58A13.47,13.47,0,0,0,166.46,28c-5.8-2.2-11.64-4.26-17.47-6.38L125.16,13c-7.61-2.77-15.21-5.56-22.84-8.3a83.2,83.2,0,0,0-8.85-3,22.1,22.1,0,0,0-12,.44,22.41,22.41,0,0,0-12.7,9.84,22.3,22.3,0,0,0-3.19,15.27,22.49,22.49,0,0,0,7.14,13.64,17.91,17.91,0,0,0,4.83,3.36,37.29,37.29,0,0,0,5.85,2.41l18.66,6.8,8.25,3c-.25.1-.48.21-.74.3L95.32,61.91,82.93,66.42a33.63,33.63,0,0,0-6,2.54l-.61.39a22.94,22.94,0,0,0-4.19,35.71,22.44,22.44,0,0,0,18.5,6.64c3.31-.26,6.33-1.56,9.4-2.66,4.72-1.71,9.43-3.45,14.15-5.17l14.36-5.21,12.25-4.48,14-5.08c3.32-1.21,6.64-2.43,10-3.61a15.15,15.15,0,0,0,5.1-2.77A13.38,13.38,0,0,0,174.57,71.67Zm-82-38.52L86.09,30.8a7.18,7.18,0,0,1-4.92-5.95,7.09,7.09,0,0,1,6.48-8,3.11,3.11,0,0,0,.44-.06.85.85,0,0,1,.17.2.6.6,0,0,0,.17-.27c4.87.92,9.32,3.08,14,4.7,6.2,2.15,12.34,4.44,18.5,6.68l12.59,4.61q8.29,3,16.59,6l4.15,1.53c-.17.34-.48.37-.73.46l-19.36,7.07a1.73,1.73,0,0,1-1.12.07,1.42,1.42,0,0,0-.07-.22,1.07,1.07,0,0,0-.16.14l-19.14-7Zm60,40-15.77,5.74-21,7.62q-8,2.91-16,5.85l-9.55,3.44c-.28.09-.56.16-.85.23v0a.13.13,0,0,0,0-.06.3.3,0,0,0,0,.1,8.09,8.09,0,0,1-4.2-.77,6.92,6.92,0,0,1-4-6.54,6.68,6.68,0,0,1,4.24-6.42c2.81-1.18,5.72-2.14,8.58-3.18l17.14-6.25,16.61-6c1.56-.57,3.1-1.16,4.67-1.72.44-.15.86-.45,1.37-.28a1.15,1.15,0,0,0,.08.26h0L134,65c6.73,2.46,13.46,4.92,20.4,7.44C153.68,72.73,153.12,73,152.55,73.17Z"/></svg>