<svg id="Layer_1" data-name="Layer 1" xmlns="http://www.w3.org/2000/svg" viewBox="0 0 240 168.25"><defs><style>.cls-1{fill:#5a5b5b;}</style></defs><path class="cls-1" d="M77.59,43.27a17.75,17.75,0,0,1-4.83-3.36,22.49,22.49,0,0,1-7.14-13.64A22.36,22.36,0,0,1,68.81,11,22.49,22.49,0,0,1,81.52,1.15a22.16,22.16,0,0,1,12-.43,86.44,86.44,0,0,1,8.86,3c7.61,2.75,15.22,5.54,22.83,8.31L149,20.74c5.83,2.12,11.67,4.19,17.47,6.38a13.47,13.47,0,0,1,3.25,22.74,14.62,14.62,0,0,1-4.79,2.58c-2.58.92-5.15,1.87-7.73,2.8-.2.07-.41.14-.49.37s-.31.34-.53.42l-11.76,4.28-7.49,2.74a25.17,25.17,0,0,1-2.5.82,1.65,1.65,0,0,0-.58.37,33,33,0,0,0-4.7,1.61q-8.8,3.18-17.6,6.4C104,75,96.5,77.7,89,80.47c-1,.36-1.95.69-2.92,1a6.81,6.81,0,0,0-4.6,6.3,6.7,6.7,0,0,0,4.79,6.64,7,7,0,0,0,2.27.37c.3,0,.64,0,.83.3,0,.56-.4.59-.77.67a14.59,14.59,0,0,1-7-.26,15.43,15.43,0,0,1-11.24-17.3,14.26,14.26,0,0,1,3.4-7.5,13.49,13.49,0,0,1,2.71-2.29,1.31,1.31,0,0,0,.42-.39,32.88,32.88,0,0,1,6-2.53L95.33,61l14.29-5.19c.24-.09.48-.21.73-.31.05-.41.38-.51.7-.63,4.92-1.79,9.83-3.6,14.75-5.36,2.21-.8,4.4-1.67,6.64-2.38.23-.07.34-.26.51-.38A32.19,32.19,0,0,0,138.27,45l13.54-4.93a12.46,12.46,0,0,0,1.41-.58,20.89,20.89,0,0,0-3.09-1.23c-7.6-2.72-15.16-5.54-22.75-8.27s-15.26-5.57-22.89-8.32q-6.81-2.45-13.61-5c-.85-.32-1.75-.27-2.58-.56-.34-.58-1-.47-1.43-.45a19.53,19.53,0,0,0-5.15.63,14,14,0,0,0-9.83,9.13,14.37,14.37,0,0,0,2.16,14,13.77,13.77,0,0,0,3,2.9C77.33,42.55,77.83,42.72,77.59,43.27Z"/><path class="cls-1" d="M76.9,68.05c0,.29-.21.36-.38.48A15.09,15.09,0,0,0,74,90.13c3.8,4.57,8.74,6.27,14.59,5.3a1.6,1.6,0,0,0,.74-.26c0-.3.21-.4.45-.49,4.56-1.58,9.09-3.27,13.63-4.92l16.38-6c5-1.82,10-3.67,15-5.47,4.12-1.47,8.21-3,12.32-4.49,1.7-.61,3.38-1.25,5.09-1.83a2.44,2.44,0,0,0,.87-.4c-.14-.29-.41-.33-.64-.42L143.7,68c-3-1.07-6-2.15-8.93-3.28-.39-.14-1-.14-1-.75.35-.49.94-.54,1.44-.72q6.39-2.35,12.8-4.67l7.86-2.83a5.81,5.81,0,0,1,.85-.16c3.23,1.17,6.47,2.31,9.68,3.53a13.49,13.49,0,0,1,3.47,22.68,15.32,15.32,0,0,1-5.1,2.76c-3.33,1.19-6.64,2.41-10,3.61l-14,5.09-12.25,4.48L114.15,103c-4.72,1.72-9.43,3.46-14.15,5.16-3.07,1.11-6.09,2.41-9.4,2.67a22.42,22.42,0,0,1-18.5-6.65,22.94,22.94,0,0,1,4.19-35.71C76.5,68.32,76.7,68.18,76.9,68.05Z"/><path class="cls-1" d="M133,47c.07.36-.23.38-.44.45L118,52.74l-7.65,2.77-8.24-3-18.67-6.8a37.69,37.69,0,0,1-5.85-2.41,30.07,30.07,0,0,1-3.26-2.92,14.93,14.93,0,0,1-3.67-9.68,14.62,14.62,0,0,1,3.42-9.83,14.78,14.78,0,0,1,9.53-5.3,12.08,12.08,0,0,1,4.79.15s.06,0,0,0a.5.5,0,0,1,0,.12.75.75,0,0,1-.8.48,6.65,6.65,0,0,0-6.15,6.73,6.43,6.43,0,0,0,3.73,6.05A45.25,45.25,0,0,0,90,30.93c5,1.83,10,3.63,15,5.45l21.88,8c1.69.62,3.38,1.27,5.08,1.84C132.35,46.33,132.9,46.39,133,47Z"/><path class="cls-1" d="M17.49,143.33a11.47,11.47,0,0,0-3.08-1.17c.33-.12.49-.18.64-.25a5.69,5.69,0,0,0,4.1-4.9A6,6,0,0,0,16,130.72a12.44,12.44,0,0,0-6.12-1.39c-3,0-6,0-9.09,0-.6,0-.76.16-.76.77q0,13.11,0,26.24c0,.56.15.74.72.74,3.56,0,7.13,0,10.68,0a11,11,0,0,0,2.86-.33c2.73-.72,4.92-2.12,6-4.91A7,7,0,0,0,17.49,143.33Zm-12-9c0-.3,0-.59.42-.57a32.23,32.23,0,0,1,4.82.16,3,3,0,0,1,2.64,2.93,3.05,3.05,0,0,1-2.55,3.39,33,33,0,0,1-5,.13c-.4,0-.35-.31-.36-.58Zm8.88,16.06a3.38,3.38,0,0,1-3,2.18c-1.8.22-3.59,0-5.4.1-.41,0-.44-.24-.44-.56,0-1.13,0-2.27,0-3.39s0-2.2,0-3.3c0-.5.11-.69.64-.68,1.51,0,3,0,4.52,0C13.85,144.87,15.51,147.42,14.41,150.37Z"/><path class="cls-1" d="M178.38,138.11c0-.46-.2-.56-.61-.56-1.32,0-2.65,0-4,0-.49,0-.64.18-.6.64s0,1.09,0,1.8a10.07,10.07,0,0,0-2.57-2.21A8.83,8.83,0,0,0,160,140.3c-2.65,3.4-3,7.2-1.63,11.18a8.8,8.8,0,0,0,8.63,6.07,8,8,0,0,0,6.14-2.87c0,2,.16,3.91-.56,5.7a3.83,3.83,0,0,1-.94,1.35,5.3,5.3,0,0,1-5.2,1,3.59,3.59,0,0,1-2.69-2.55c-.14-.43-.32-.51-.73-.36-1.36.53-2.74,1-4.13,1.51-.36.14-.41.27-.26.63a8.44,8.44,0,0,0,4.36,4.57,13.12,13.12,0,0,0,7.7.74,8.15,8.15,0,0,0,5.74-3.37,10.38,10.38,0,0,0,1.81-5.54C178.51,151.62,178.33,144.87,178.38,138.11Zm-10.91,14.51a4.43,4.43,0,0,1-3.91-3.6,5.88,5.88,0,0,1,1.2-5.74,4.56,4.56,0,0,1,4.8-1.32,4.68,4.68,0,0,1,3.39,3.65,5.49,5.49,0,0,1,.18,1.4C173.13,150.66,170.63,153.05,167.47,152.62Z"/><path class="cls-1" d="M133.06,143.19c0,4.36,0,8.71,0,13.06,0,.61-.14.83-.79.81-1.47-.05-2.94,0-4.4,0-.59,0-.72-.19-.72-.74,0-3.39,0-6.78,0-10.17,0-.66-.18-.84-.84-.84-3,0-6.06,0-9.09,0-.57,0-.72.16-.72.72,0,3.44,0,6.88,0,10.32,0,.6-.21.71-.75.69-1.44,0-2.88,0-4.32,0-.63,0-.82-.14-.82-.79,0-4.57,0-9.14,0-13.7,0-4.14,0-8.27,0-12.41,0-.63.12-.88.82-.86,1.44.06,2.88,0,4.32,0,.56,0,.74.14.74.72,0,3.15,0,6.3,0,9.45,0,.52.09.76.7.75,3.08,0,6.15,0,9.23,0,.6,0,.71-.22.71-.75,0-3.13,0-6.25,0-9.38,0-.65.19-.81.81-.79,1.44,0,2.89,0,4.33,0,.59,0,.78.15.77.76C133.05,134.44,133.06,138.82,133.06,143.19Z"/><path class="cls-1" d="M187.68,139.86a7.42,7.42,0,0,1,3.51-2.51c4.69-1.34,8.95.93,9.61,6.3.39,3.18.09,6.38.16,9.58,0,1.1,0,2.21,0,3.31,0,.36-.1.51-.49.51-1.51,0-3,0-4.54,0-.54,0-.49-.3-.49-.65,0-3.27,0-6.53,0-9.8a6.35,6.35,0,0,0-.54-2.95,3.32,3.32,0,0,0-3.7-1.75,3.62,3.62,0,0,0-3.1,2.46,7.39,7.39,0,0,0-.43,2.68c0,3.08,0,6.15,0,9.23,0,.65-.18.81-.81.79-1.29-.05-2.59-.05-3.89,0-.66,0-.84-.16-.84-.83q0-13,0-26c0-.58,0-1.16,0-1.73s.13-.73.69-.71c1.39,0,2.78,0,4.18,0,.57,0,.67.21.67.72,0,3.53,0,7.06,0,10.59Z"/><path class="cls-1" d="M65.69,137.66a25.46,25.46,0,0,1-2.13,2.26c-1.69,1.76-3.42,3.49-5.14,5.23a.58.58,0,0,0-.06.92c2.25,2.84,4.48,5.68,6.72,8.53L67,157c-1.35,0-2.54,0-3.73,0a8.24,8.24,0,0,1-2.86-.08c-.82-.34-1.23-1.41-1.82-2.16-1.36-1.74-2.71-3.48-4-5.25-.3-.4-.43-.3-.76-.05a2,2,0,0,0-.84,1.84c.07,1.63,0,3.27,0,4.9,0,.61-.1.85-.78.82-1.32-.06-2.64-.05-4,0-.64,0-.8-.16-.8-.8,0-6.72,0-13.45,0-20.18,0-2.52,0-5,0-7.57,0-.54.11-.76.71-.74q2.05.06,4.11,0c.59,0,.71.2.71.74,0,4.88,0,9.76,0,14.64a1.36,1.36,0,0,0,.11.82c.55-.57,1.08-1.11,1.6-1.67l4.08-4.36a1,1,0,0,1,.73-.38h6C65.51,137.57,65.57,137.62,65.69,137.66Z"/><path class="cls-1" d="M43.46,152.17V138.34c0-.36.11-.79-.53-.79-1.43,0-2.88,0-4.32,0-.38,0-.51.15-.5.51,0,.61,0,1.23,0,2-.41-.47-.67-.79-1-1.08-2.35-2.44-6.3-2.55-9.25-1a9.29,9.29,0,0,0-5,7.6c-.46,4.34.49,8.16,4.37,10.78a8.32,8.32,0,0,0,9-.05,17.36,17.36,0,0,0,1.86-1.75c0,.74,0,1.29,0,1.83s.12.59.58.59c1.38,0,2.78,0,4.18,0,.47,0,.61-.16.61-.62C43.44,155,43.46,153.59,43.46,152.17ZM36,152a4.09,4.09,0,0,1-2.64.87,4.6,4.6,0,0,1-4.61-3.34,6.56,6.56,0,0,1,.59-5.61,4.41,4.41,0,0,1,4.26-2.14,4.28,4.28,0,0,1,3.85,2.49A6.13,6.13,0,0,1,36,152Z"/><path class="cls-1" d="M85.41,145.87a9.42,9.42,0,0,0-8.08-8.81c-5.41-.76-9.69,1.71-11.27,6.63-1.69,5.26.48,11.63,6.35,13.53,3.92,1.27,9,.51,11.68-3.42.3-.44.25-.62-.25-.8-1.13-.38-2.27-.79-3.39-1.22a.71.71,0,0,0-1,.23,4.43,4.43,0,0,1-4.9,1.38,5,5,0,0,1-3.62-4c-.13-.55.08-.75.67-.74,2.16,0,4.33,0,6.48,0s4.38,0,6.57,0c.57,0,.79-.2.77-.73C85.44,147.26,85.45,146.57,85.41,145.87Zm-6-1c-1.3-.05-2.6,0-3.9,0h-4c-.48,0-.56-.13-.44-.59a4.55,4.55,0,0,1,8.81-.11C80,144.71,80,144.92,79.37,144.9Z"/><path class="cls-1" d="M223.3,145.89a9.77,9.77,0,0,0-3.55-6.91,9.4,9.4,0,0,0-5.73-2c-3.52-.13-6.56.92-8.67,3.9a11.13,11.13,0,0,0-1.53,9.44,9.48,9.48,0,0,0,3.08,5,10.58,10.58,0,0,0,9.33,2.27,8.88,8.88,0,0,0,5.77-3.76c.31-.45.23-.63-.26-.79-1.15-.38-2.27-.79-3.39-1.22a.72.72,0,0,0-1,.25,4.42,4.42,0,0,1-4.82,1.38,5,5,0,0,1-3.67-4c-.1-.51.05-.71.63-.71,2.18,0,4.37,0,6.56,0s4.33,0,6.48,0c.61,0,.84-.22.82-.78S223.37,146.57,223.3,145.89Zm-6.09-1c-1.3-.05-2.6,0-3.88,0h-3.9c-.47,0-.56-.14-.46-.6a4.56,4.56,0,0,1,8.8-.17C217.92,144.67,217.87,144.92,217.21,144.9Z"/><path class="cls-1" d="M149.39,154.82a7.07,7.07,0,0,1-6.58,2.88,6.72,6.72,0,0,1-5.85-5,16.23,16.23,0,0,1-.47-3.92c0-3.47,0-6.93,0-10.39,0-.62.14-.84.8-.82,1.37,0,2.74,0,4.11,0,.54,0,.7.16.69.7,0,3.46,0,6.92,0,10.38a4.62,4.62,0,0,0,1,3.1,3.2,3.2,0,0,0,3.27,1,3.41,3.41,0,0,0,2.66-2.38,8.5,8.5,0,0,0,.37-2.92c0-3,0-6,0-9,0-.71.22-.9.9-.87,1.32,0,2.64,0,4,0,.51,0,.72.11.72.68q0,9.08,0,18.17c0,.5-.13.67-.65.65-1.41,0-2.83,0-4.25,0-.52,0-.67-.18-.64-.66S149.39,155.35,149.39,154.82Z"/><path class="cls-1" d="M227.41,151.32c.6,0,1.2,0,1.8,0s.66.1.77.6a2.44,2.44,0,0,0,3.18,2,2,2,0,0,0,1.17-3.21,5.75,5.75,0,0,0-2.77-1.6,13.43,13.43,0,0,1-4.19-2,5.49,5.49,0,0,1,1.24-9.33,8.38,8.38,0,0,1,8.39.53,6,6,0,0,1,2.46,4c.08.41,0,.62-.47.61-1.28,0-2.55,0-3.83,0-.4,0-.51-.17-.61-.53a2.15,2.15,0,0,0-3-1.5,1.62,1.62,0,0,0-.6,2.7,7,7,0,0,0,2.78,1.46,23.28,23.28,0,0,1,3.18,1.34,5.92,5.92,0,0,1,2,8.64,6.29,6.29,0,0,1-4.27,2.57,10.68,10.68,0,0,1-6.09-.51,6.17,6.17,0,0,1-3.64-5.31c0-.39.19-.43.48-.43Z"/><path class="cls-1" d="M93.76,140.39a7.37,7.37,0,0,1,4.94-3.32,9.73,9.73,0,0,1,2.09,0c.46,0,.59.24.59.68,0,1.33,0,2.65,0,4,0,.49-.14.63-.64.54a10.09,10.09,0,0,0-2.8-.1A4.26,4.26,0,0,0,94,145.94a30.31,30.31,0,0,0-.13,4q0,3.21,0,6.41c0,.5-.12.68-.64.66-1.44,0-2.88,0-4.33,0-.45,0-.63-.1-.63-.59q0-9.17,0-18.32c0-.43.14-.59.58-.58,1.45,0,2.89,0,4.33,0,.41,0,.56.15.55.55C93.75,138.87,93.76,139.63,93.76,140.39Z"/></svg>