<svg id="Layer_1" data-name="Layer 1" xmlns="http://www.w3.org/2000/svg" viewBox="0 0 240 240"><defs><style>.cls-1{fill:#5a5b5b;}</style></defs><path class="cls-1" d="M90.27,91.57a12.4,12.4,0,0,1-3.39-2.35A16.08,16.08,0,0,1,93,62.05a15.5,15.5,0,0,1,8.38-.31,59,59,0,0,1,6.21,2.13q8,2.9,16,5.82l16.72,6.09c4.08,1.49,8.18,2.94,12.24,4.47a9.44,9.44,0,0,1,2.28,15.94A10.13,10.13,0,0,1,151.49,98l-5.41,2c-.15,0-.3.09-.35.26s-.22.23-.37.29l-8.25,3-5.25,1.92a17.93,17.93,0,0,1-1.75.58,1.1,1.1,0,0,0-.41.26,24.06,24.06,0,0,0-3.29,1.12l-12.34,4.49c-5.27,1.92-10.55,3.83-15.81,5.77l-2.05.73a4.77,4.77,0,0,0,.14,9.07,5,5,0,0,0,1.59.26c.21,0,.45,0,.58.21s-.28.41-.54.46a10.12,10.12,0,0,1-4.89-.18,10.84,10.84,0,0,1-7.89-12.13,10.05,10.05,0,0,1,2.39-5.25,9.77,9.77,0,0,1,1.9-1.61.94.94,0,0,0,.29-.27A23.4,23.4,0,0,1,94,107.17L102.7,104l10-3.64c.17-.06.34-.14.51-.21,0-.29.27-.36.49-.45,3.45-1.25,6.89-2.52,10.35-3.76,1.55-.55,3.08-1.17,4.65-1.66.16-.05.24-.18.36-.27a21.47,21.47,0,0,0,3.73-1.24l9.49-3.45a7.49,7.49,0,0,0,1-.41,14.81,14.81,0,0,0-2.17-.86c-5.32-1.9-10.63-3.88-16-5.8s-10.69-3.9-16-5.83q-4.77-1.73-9.53-3.48c-.6-.22-1.23-.18-1.82-.39-.23-.41-.67-.33-1-.32a14.3,14.3,0,0,0-3.62.44,9.83,9.83,0,0,0-6.89,6.41,10.05,10.05,0,0,0,1.52,9.8,9.41,9.41,0,0,0,2.1,2C90.09,91.07,90.44,91.19,90.27,91.57Z"/><path class="cls-1" d="M89.78,109c0,.2-.15.25-.26.33A10.61,10.61,0,0,0,98,128.14a1.24,1.24,0,0,0,.52-.18c0-.21.14-.28.31-.34,3.2-1.11,6.37-2.3,9.56-3.45L119.83,120c3.52-1.28,7-2.57,10.55-3.83,2.88-1,5.75-2.11,8.63-3.15,1.19-.43,2.37-.88,3.57-1.29a1.6,1.6,0,0,0,.61-.28c-.09-.2-.29-.23-.45-.29-2-.74-4.08-1.49-6.12-2.22s-4.19-1.51-6.26-2.3c-.28-.1-.67-.1-.72-.53.25-.34.66-.38,1-.51,3-1.1,6-2.18,9-3.27l5.52-2a2.8,2.8,0,0,1,.59-.11c2.26.82,4.54,1.61,6.79,2.47A9.45,9.45,0,0,1,155,118.6a10.75,10.75,0,0,1-3.58,1.94c-2.33.83-4.66,1.68-7,2.53-3.28,1.19-6.56,2.37-9.83,3.57L126,129.77l-10.07,3.66L106,137.05a26.11,26.11,0,0,1-6.59,1.87,15.72,15.72,0,0,1-13-4.66,16.08,16.08,0,0,1,2.94-25Z"/><path class="cls-1" d="M129.12,94.18c0,.26-.16.27-.31.32L118.6,98.21l-5.37,2L107.45,98,94.37,93.26a25.26,25.26,0,0,1-4.1-1.69,22.11,22.11,0,0,1-2.29-2,10.43,10.43,0,0,1-2.57-6.79,10.48,10.48,0,0,1,9.08-10.6,8.22,8.22,0,0,1,3.35.1s0,0,0,0a.19.19,0,0,1,0,.08c-.09.27-.3.33-.55.34A4.66,4.66,0,0,0,93,77.4a4.48,4.48,0,0,0,2.61,4.24A30.8,30.8,0,0,0,99,82.92l10.5,3.82,15.34,5.59c1.18.43,2.36.88,3.56,1.29C128.66,93.72,129,93.76,129.12,94.18Z"/><path class="cls-1" d="M48.13,161.72A8.23,8.23,0,0,0,46,160.9l.45-.17a4,4,0,0,0,2.87-3.44,4.21,4.21,0,0,0-2.22-4.4,8.69,8.69,0,0,0-4.29-1c-2.12,0-4.25,0-6.38,0-.41,0-.53.12-.53.55q0,9.18,0,18.39c0,.39.1.52.51.52,2.49,0,5,0,7.48,0a8,8,0,0,0,2-.23A5.56,5.56,0,0,0,50,167.66,4.92,4.92,0,0,0,48.13,161.72Zm-8.38-6.32c0-.21,0-.41.3-.4a22.25,22.25,0,0,1,3.37.11,2.09,2.09,0,0,1,1.85,2,2.13,2.13,0,0,1-1.79,2.38,21.27,21.27,0,0,1-3.48.09c-.28,0-.24-.22-.25-.4ZM46,166.66a2.36,2.36,0,0,1-2.13,1.53c-1.26.15-2.51,0-3.78.07-.29,0-.31-.17-.31-.39,0-.8,0-1.59,0-2.38s0-1.54,0-2.32c0-.34.08-.48.45-.47,1.06,0,2.12,0,3.17,0A2.74,2.74,0,0,1,46,166.66Z"/><path class="cls-1" d="M160.93,158.06c0-.32-.14-.39-.43-.39-.92,0-1.86,0-2.78,0-.35,0-.45.13-.43.45s0,.76,0,1.26a6.8,6.8,0,0,0-1.8-1.55,6.19,6.19,0,0,0-7.42,1.77,7.93,7.93,0,0,0-1.14,7.84,6.19,6.19,0,0,0,6,4.26,5.62,5.62,0,0,0,4.3-2,10.37,10.37,0,0,1-.39,4,2.59,2.59,0,0,1-.66.94,3.72,3.72,0,0,1-3.64.72,2.51,2.51,0,0,1-1.89-1.79c-.09-.3-.22-.36-.51-.25-1,.37-1.93.71-2.89,1.06-.26.09-.29.18-.19.44a6,6,0,0,0,3.06,3.2,9.15,9.15,0,0,0,5.39.52,5.73,5.73,0,0,0,4-2.36,7.29,7.29,0,0,0,1.27-3.89C161,167.53,160.89,162.8,160.93,158.06Zm-7.65,10.18a3.1,3.1,0,0,1-2.74-2.53,4.14,4.14,0,0,1,.84-4,3.2,3.2,0,0,1,3.37-.93,3.27,3.27,0,0,1,2.37,2.56,4.12,4.12,0,0,1,.13,1C157.25,166.86,155.49,168.54,153.28,168.24Z"/><path class="cls-1" d="M129.16,161.63c0,3.05,0,6.1,0,9.15,0,.43-.09.59-.55.57-1,0-2.06,0-3.09,0-.41,0-.5-.14-.5-.52,0-2.37,0-4.75,0-7.13,0-.46-.12-.59-.59-.59-2.12,0-4.25,0-6.37,0-.4,0-.51.11-.51.51,0,2.41,0,4.82,0,7.23,0,.42-.14.49-.52.49q-1.51,0-3,0c-.44,0-.57-.1-.57-.55,0-3.21,0-6.41,0-9.61,0-2.9,0-5.8,0-8.7,0-.44.09-.62.58-.6,1,0,2,0,3,0,.39,0,.52.1.51.51,0,2.21,0,4.41,0,6.62,0,.37.06.53.48.53q3.24,0,6.48,0c.42,0,.5-.15.49-.53,0-2.19,0-4.38,0-6.57,0-.46.13-.57.57-.56q1.51,0,3,0c.42,0,.55.11.54.54C129.15,155.49,129.16,158.56,129.16,161.63Z"/><path class="cls-1" d="M167.45,159.29a5.15,5.15,0,0,1,2.46-1.76c3.29-.94,6.27.65,6.73,4.42a65.28,65.28,0,0,1,.12,6.71c0,.78,0,1.55,0,2.33,0,.25-.06.36-.34.35-1.06,0-2.12,0-3.18,0-.38,0-.34-.21-.34-.45V164a4.71,4.71,0,0,0-.38-2.07,2.34,2.34,0,0,0-2.6-1.23,2.55,2.55,0,0,0-2.17,1.72,5.27,5.27,0,0,0-.3,1.89c0,2.15,0,4.31,0,6.47,0,.45-.13.56-.57.55q-1.37-.06-2.73,0c-.46,0-.59-.12-.59-.58,0-6.08,0-12.16,0-18.24,0-.41,0-.81,0-1.22s.08-.51.47-.5c1,0,2,0,2.93,0,.4,0,.48.15.47.51,0,2.47,0,5,0,7.43Z"/><path class="cls-1" d="M81.92,157.75a14.94,14.94,0,0,1-1.49,1.58c-1.19,1.23-2.4,2.45-3.6,3.67a.4.4,0,0,0,0,.64q2.37,3,4.72,6c.42.53.83,1.07,1.32,1.71H80.2a5.78,5.78,0,0,1-2-.06c-.57-.24-.86-1-1.27-1.52-1-1.22-1.9-2.44-2.83-3.68-.21-.28-.3-.21-.53,0a1.4,1.4,0,0,0-.59,1.29c0,1.14,0,2.29,0,3.44,0,.42-.07.59-.54.57-.93,0-1.86,0-2.78,0-.45,0-.56-.11-.56-.56q0-7.06,0-14.15c0-1.77,0-3.54,0-5.3,0-.38.08-.54.5-.53q1.44,0,2.88,0c.42,0,.5.14.5.53q0,5.13,0,10.26a.9.9,0,0,0,.07.57L74.19,161,77.05,158a.67.67,0,0,1,.51-.27h4.2A.67.67,0,0,1,81.92,157.75Z"/><path class="cls-1" d="M66.34,167.92v-9.69c0-.26.08-.56-.37-.56-1,0-2,0-3,0-.27,0-.36.11-.35.36,0,.43,0,.87,0,1.44-.29-.33-.47-.55-.67-.76a5.53,5.53,0,0,0-6.48-.69,6.53,6.53,0,0,0-3.52,5.33c-.32,3,.35,5.72,3.07,7.55a5.84,5.84,0,0,0,6.3,0,12.13,12.13,0,0,0,1.3-1.23c0,.52,0,.9,0,1.28s.08.42.4.42c1,0,1.95,0,2.93,0,.34,0,.43-.12.43-.44C66.33,169.92,66.34,168.92,66.34,167.92Zm-5.21-.1a2.81,2.81,0,0,1-1.86.61A3.22,3.22,0,0,1,56,166.09a4.54,4.54,0,0,1,.42-3.93,3.07,3.07,0,0,1,3-1.5,3,3,0,0,1,2.7,1.74A4.31,4.31,0,0,1,61.13,167.82Z"/><path class="cls-1" d="M95.75,163.51a6.6,6.6,0,0,0-5.67-6.18c-3.79-.53-6.79,1.2-7.9,4.64-1.18,3.69.34,8.16,4.46,9.49,2.74.89,6.29.36,8.18-2.39.21-.32.18-.44-.17-.57-.79-.26-1.59-.55-2.37-.85a.5.5,0,0,0-.67.16,3.12,3.12,0,0,1-3.44,1,3.56,3.56,0,0,1-2.54-2.8c-.09-.4.06-.53.48-.52,1.51,0,3,0,4.54,0s3.07,0,4.6,0c.4,0,.55-.14.54-.51S95.78,164,95.75,163.51Zm-4.24-.68c-.91,0-1.82,0-2.73,0H86c-.33,0-.39-.09-.31-.42a3.19,3.19,0,0,1,6.18-.08C92,162.69,91.94,162.84,91.51,162.83Z"/><path class="cls-1" d="M192.42,163.52a6.8,6.8,0,0,0-2.49-4.84,6.53,6.53,0,0,0-4-1.43,6.61,6.61,0,0,0-6.08,2.73,7.78,7.78,0,0,0-1.07,6.62,6.59,6.59,0,0,0,2.15,3.5,7.47,7.47,0,0,0,6.54,1.6,6.26,6.26,0,0,0,4-2.65c.22-.31.16-.43-.18-.55-.81-.26-1.6-.55-2.38-.85a.5.5,0,0,0-.68.17,3.09,3.09,0,0,1-3.38,1,3.49,3.49,0,0,1-2.57-2.84c-.07-.35,0-.49.44-.49,1.53,0,3.06,0,4.6,0s3,0,4.54,0c.43,0,.59-.15.58-.54S192.47,164,192.42,163.52Zm-4.27-.69c-.91,0-1.82,0-2.72,0H182.7c-.33,0-.39-.11-.32-.43a3.19,3.19,0,0,1,6.17-.11C188.65,162.67,188.62,162.84,188.15,162.83Z"/><path class="cls-1" d="M140.6,169.78a5,5,0,0,1-4.61,2,4.73,4.73,0,0,1-4.1-3.52,11.13,11.13,0,0,1-.33-2.75c0-2.43,0-4.86,0-7.28,0-.44.1-.6.56-.58q1.44,0,2.88,0c.38,0,.49.12.49.49q0,3.65,0,7.28a3.2,3.2,0,0,0,.68,2.17,2.24,2.24,0,0,0,2.3.7,2.4,2.4,0,0,0,1.86-1.67,6.12,6.12,0,0,0,.26-2c0-2.11,0-4.21,0-6.32,0-.5.15-.63.63-.61.92,0,1.85,0,2.78,0,.35,0,.5.08.5.48q0,6.36,0,12.74c0,.34-.09.46-.45.46-1,0-2,0-3,0-.37,0-.47-.13-.45-.47S140.6,170.15,140.6,169.78Z"/><path class="cls-1" d="M195.3,167.33c.42,0,.85,0,1.27,0s.46.07.54.42a1.71,1.71,0,0,0,2.23,1.39,1.4,1.4,0,0,0,.81-2.25,3.94,3.94,0,0,0-1.94-1.13,9.23,9.23,0,0,1-2.93-1.41,3.84,3.84,0,0,1,.86-6.54,5.87,5.87,0,0,1,5.88.37,4.18,4.18,0,0,1,1.73,2.81c.06.29,0,.44-.33.43-.9,0-1.79,0-2.68,0-.28,0-.36-.11-.43-.36a1.52,1.52,0,0,0-2.09-1.06,1.13,1.13,0,0,0-.41,1.89,4.92,4.92,0,0,0,1.94,1,16.19,16.19,0,0,1,2.23.94,4.14,4.14,0,0,1,1.39,6.05,4.46,4.46,0,0,1-3,1.81,7.53,7.53,0,0,1-4.27-.36,4.31,4.31,0,0,1-2.55-3.72c0-.28.13-.3.34-.3Z"/><path class="cls-1" d="M101.6,159.67a5.13,5.13,0,0,1,3.47-2.33,7.12,7.12,0,0,1,1.46,0c.33,0,.42.17.41.48,0,.93,0,1.86,0,2.78,0,.35-.09.45-.44.38a7.58,7.58,0,0,0-2-.07,3,3,0,0,0-2.75,2.66,20.44,20.44,0,0,0-.08,2.82c0,1.5,0,3,0,4.5,0,.35-.08.47-.45.47-1,0-2,0-3,0-.32,0-.45-.07-.45-.41q0-6.42,0-12.84c0-.31.09-.42.4-.41h3c.28,0,.39.1.38.38C101.59,158.6,101.6,159.13,101.6,159.67Z"/></svg>