<svg id="Layer_1" data-name="Layer 1" xmlns="http://www.w3.org/2000/svg" viewBox="0 0 240 126.41"><defs><style>.cls-1,.cls-2{fill:#131313;}.cls-2{stroke:#fff;stroke-miterlimit:10;stroke-width:1.5px;}</style></defs><path class="cls-1" d="M186.31,52.09a19.18,19.18,0,0,0-8.13-10.64,20.66,20.66,0,0,0-14.78-2.91,17.89,17.89,0,0,0-12.17,7.38c-.06.07-.08.18-.22.18a1.79,1.79,0,0,1-.06-.76V22.08a1.33,1.33,0,0,0-.1-.81.49.49,0,0,0-.06.17.42.42,0,0,0-.06-.19l-7.79,0c-.84,0-.83,0-.84.87,0,4.82,0,9.63-.09,14.45-.06,3.75,0,7.51,0,11.27,0,8.13,0,16.26-.09,24.39-.06,4.94,0,9.87,0,14.81,0,.5.17.65.65.64,2.6,0,5.2,0,7.8,0,.5,0,.66-.17.65-.65,0-1.88,0-3.76,0-5.64,0-.21-.07-.43.07-.63.21,0,.25.2.33.32A15.78,15.78,0,0,0,161,87.55,25.11,25.11,0,0,0,169,88a17.62,17.62,0,0,0,13.36-7A26.83,26.83,0,0,0,187,70.53,33.43,33.43,0,0,0,186.31,52.09Zm-35.52-6.83v0Zm0-23.29v0ZM175.1,76.28a13.51,13.51,0,0,1-7,5.63c-4.33,1.43-8.13.29-11.4-2.71A19.28,19.28,0,0,1,150.93,68,24.33,24.33,0,0,1,153,52.29a15.48,15.48,0,0,1,6.18-6.76,11,11,0,0,1,12.66,1.19,19.32,19.32,0,0,1,6.33,10.81,23.31,23.31,0,0,1,.63,5.77A22.88,22.88,0,0,1,175.1,76.28Z"/><path class="cls-1" d="M239.75,60.83a31.33,31.33,0,0,0-3.61-11.66A17.55,17.55,0,0,0,225,40.24a25,25,0,0,0-11.12-.37,16,16,0,0,0-9.67,5.45c-.4.48-.76,1-1.14,1.5-.15-.16-.08-.3-.08-.44,0-1.91,0-3.83,0-5.75,0-.52-.15-.7-.68-.69-2.52,0-5,0-7.56,0-.85,0-.85,0-.85.85,0,7.49,0,15,.07,22.48.06,4.73,0,9.47,0,14.2q0,13.47.08,26.92c0,.6.17.79.78.78,2.4,0,4.8,0,7.2,0,.9,0,.9,0,.9-.93V80.56a16.66,16.66,0,0,0,3.72,3.93,19.85,19.85,0,0,0,15.12,3.76c8.16-1.17,13.79-5.63,16.52-13.47A30.7,30.7,0,0,0,239.75,60.83ZM226.38,77.64A12.7,12.7,0,0,1,219,82.5,11,11,0,0,1,209.28,80,18.55,18.55,0,0,1,203,68.73a23.59,23.59,0,0,1,1.93-15.41A15.91,15.91,0,0,1,210.27,47a11.09,11.09,0,0,1,13.4.41,17.58,17.58,0,0,1,5.84,8.39,24.81,24.81,0,0,1,1.37,8.41A21.85,21.85,0,0,1,226.38,77.64Z"/><path class="cls-1" d="M150.85,21.27V46h-.12V21.25A.25.25,0,0,1,150.85,21.27Z"/><path class="cls-2" d="M100,94.13l0,.1a2.64,2.64,0,0,1-1.8.28A34.57,34.57,0,0,1,90.84,93c-1.11-.33-2.2-.71-3.29-1.1-.63-.22-.78-.1-.69.56.29,2.06.29,4.14.38,6.21s-.15,3.91,0,5.86c0,.21,0,.45-.17.61s-.06.59-.22.86c-.83-1.16-2.28-1.27-3.37-2A67,67,0,0,1,77,99.21l-.91-.77c-.35-.31-.47-.26-.55.22a30.18,30.18,0,0,1-.7,3.27,72.42,72.42,0,0,1-3.16,8.71,1.2,1.2,0,0,1-.63.76l-.12.11a5,5,0,0,1-2-1.78A51.7,51.7,0,0,1,63.23,101l-.11-.21c-.24-.38-.39-.39-.56,0a15.94,15.94,0,0,1-.84,1.52,41.32,41.32,0,0,1-4.29,5.9c-.75.89-1.61,1.67-2.34,2.57s-1.37.71-1.81-.28a34.38,34.38,0,0,1-1.64-5c-.58-2.16-1-4.34-1.43-6.55-.13-.72-.3-.79-.86-.26a32.56,32.56,0,0,1-5.51,3.91c-1.57,1-3.21,1.78-4.85,2.63-.65.33-1.08.11-1.16-.63a30.88,30.88,0,0,1-.08-5.44,67.59,67.59,0,0,1,.84-7c.08-.46-.09-.57-.55-.38a38.11,38.11,0,0,1-6.6,1.94q-2.88.6-5.79,1c-1,.12-1.26-.21-1.11-1.2a12.65,12.65,0,0,1,1-3,51.66,51.66,0,0,1,3.61-6.82,13.47,13.47,0,0,1,1.62-2.4l.15-.14h0a.44.44,0,0,1,.15,0h0l.19,0a26.45,26.45,0,0,1,2.66-.2,29.11,29.11,0,0,0,8.42-1.59,5.66,5.66,0,0,0,1.18-.59l0,0,.2,0a.85.85,0,0,1,.39,0,.83.83,0,0,1,.17.12.25.25,0,0,1,.08.1c.08.18-.07.38-.19.57-.69,1.07-1.43,2.11-2.06,3.23a21.43,21.43,0,0,0-2.52,6.69c-.06.34-.26.76,0,1s.65,0,1-.17a28.15,28.15,0,0,0,9-5.4c.2-.18.4-.45.72-.28s.22.52.19.81a74.27,74.27,0,0,0-.52,8.3,15.73,15.73,0,0,0,.24,2.56c.08.46.24.52.58.21a34,34,0,0,0,6.4-7.4A18.13,18.13,0,0,0,58,87.28l.06-.11.07-.06a.27.27,0,0,1,.17-.06h.1a.22.22,0,0,1,.12,0c.18.1.2.33.25.53.39,1.84.77,3.68,1.31,5.48a21.33,21.33,0,0,0,2,5,2.13,2.13,0,0,0,.16.25c.33.45.57.43.84-.06a27.85,27.85,0,0,0,1.36-2.87,26.47,26.47,0,0,0,2.15-7.39.79.79,0,0,1,.42-.69l0,0a.37.37,0,0,1,.18,0h0a.28.28,0,0,1,.13,0c.18.08.25.28.35.45a57.1,57.1,0,0,0,4.17,6.06,15.62,15.62,0,0,0,2.35,2.39c.18.15.37.36.63.27s.27-.39.29-.62a57.7,57.7,0,0,0,.19-8.42c-.08-1-.32-2-.33-3v0c0-.19-.08-.4.12-.51l0,0c.22-.1.38.05.53.18,1.39,1.14,2.77,2.29,4.27,3.3a36.63,36.63,0,0,0,5,2.78c.18.08.37.22.56,0s.07-.34,0-.51a41.1,41.1,0,0,0-3.1-9.23c-.17-.32-.34-.64-.52-1s-.22-.4,0-.61.4-.16.61-.09c.8.27,1.57.58,2.38.83a32.29,32.29,0,0,0,8.67,1.37,5.58,5.58,0,0,1,.57.08l.23,0h0a.49.49,0,0,1,.17.06l.14.12.21.2a14.49,14.49,0,0,1,2.82,4.87A45.94,45.94,0,0,1,100,93C100.06,93.4,100.25,93.76,100,94.13Z"/><path class="cls-2" d="M31,81.29a61.65,61.65,0,0,0-5.4,9.86,10.81,10.81,0,0,0-.82,2.68c-.06.48,0,.73.59.65a68,68,0,0,0,7.77-1.4,32.2,32.2,0,0,0,5.57-1.85c.48-.23.32.19.29.37-.23,1.62-.52,3.23-.72,4.86a35.61,35.61,0,0,0-.18,8.06c.07.72.18.76.85.41a65.1,65.1,0,0,0,7.47-4.3,18.69,18.69,0,0,0,3.4-2.81c.09-.1.17-.25.34-.2s.13.23.16.36c.35,1.78.64,3.58,1.08,5.34a38.14,38.14,0,0,0,2.21,7.2c.37.77.53.83,1.13.2A45.7,45.7,0,0,0,62,101.3a11.39,11.39,0,0,1,.85-1.6c.53,1,1,1.88,1.53,2.76a40.67,40.67,0,0,0,5.75,8.15c.28.29.73.44.84.9a73.94,73.94,0,0,1-7.12,13.88c-.87,1.24-.9,1.22-1.75,0a72.73,72.73,0,0,1-7.82-13.58c-.19-.44-.36-.36-.63-.09Q50.29,115,46.81,118a54.63,54.63,0,0,1-5.28,4.32c-.73.49-.73.48-.92-.36-.84-3.74-1.59-7.49-2.1-11.3a30.61,30.61,0,0,1-.32-4.59c0-.79,0-.8-.74-.45a104.21,104.21,0,0,1-12.5,5.2c-.95.31-1.92.55-2.87.83-.46.13-.61,0-.55-.48.3-2.56.69-5.11,1.14-7.64.5-2.79,1.1-5.56,1.85-8.3.18-.68.17-.68-.51-.61a89.48,89.48,0,0,1-12,.63,18.2,18.2,0,0,1-4.22-.53c-.37-.11-.49-.24-.28-.63A130.86,130.86,0,0,1,16,80.06c.06-.08.14-.14.21-.22a.61.61,0,0,1,.81-.26A38.19,38.19,0,0,0,24.31,81a28.18,28.18,0,0,0,6,0C30.59,81.05,30.86,81,31,81.29Z"/><path class="cls-2" d="M25.41,70.39a41.08,41.08,0,0,0-6.07,4.66,10.69,10.69,0,0,0-3.09,4.56c-2.29-.53-4.55-1.22-6.79-1.93A59,59,0,0,1,.73,74.35c-.94-.47-.95-.49-.15-1.17,3.92-3.32,7.92-6.54,12.06-9.57.3-.22.47-.34.5-.46h.38c0,.13.2.27.49.47a41.1,41.1,0,0,0,11.28,5.73c.33.11.9.05.94.36S25.72,70.19,25.41,70.39Z"/><path class="cls-2" d="M111.61,63.15l-.07.05-.14.11-.22-.16Z"/><path class="cls-2" d="M87,105.15a1.83,1.83,0,0,1-.12-.77c0-1.31.1-2.63.08-3.94a54.08,54.08,0,0,0-.47-8.24c0-.32-.41-.73-.16-.93s.66.12,1,.24a45.65,45.65,0,0,0,9.53,2.56,7.21,7.21,0,0,0,2.62.09.7.7,0,0,1,.47.07,81.19,81.19,0,0,1,3.43,17c0,.42,0,.6-.51.44a110,110,0,0,1-14-5.41A13.91,13.91,0,0,1,87,105.15Z"/><path class="cls-2" d="M94.48,81.41a64.84,64.84,0,0,0,11.39-.84,23.22,23.22,0,0,0,2.61-.67c.21-.06.41-.16.63-.05q3.38,5,6.25,10.2a37.32,37.32,0,0,1,2.08,4.38c.18.44.13.62-.41.66a70.53,70.53,0,0,1-12.5-.16,34.63,34.63,0,0,1-4.53-.8c-.3-1-.59-1.94-.88-2.91a42,42,0,0,0-2.28-6.09A14.05,14.05,0,0,0,94.48,81.41Z"/><path class="cls-2" d="M109.13,79.63A22.57,22.57,0,0,1,106.82,77a50.13,50.13,0,0,0-6.59-6.76c-.41-.32-.86-.58-1.34-.9a4.32,4.32,0,0,1,1.41-.59,67,67,0,0,0,7.84-3.13,10.76,10.76,0,0,0,3.27-2.18,60.77,60.77,0,0,1,13.42,10.18c.49.5.49.51-.14.86a47.75,47.75,0,0,1-10.82,4.19A40.32,40.32,0,0,1,109.13,79.63Z"/><path class="cls-2" d="M71.08,111.4c.72-1.8,1.48-3.58,2.14-5.4a31.81,31.81,0,0,0,2.08-7.79c0-.2,0-.47.18-.55s.42.16.6.32a57.07,57.07,0,0,0,7.65,5.84A7.27,7.27,0,0,0,86,104.87a.91.91,0,0,1,.8,1.14A81.51,81.51,0,0,1,85,121.43c-.33,1.38-.35,1.38-1.45.48C79.32,118.47,75.16,115,71.08,111.4Z"/><path class="cls-2" d="M87.27,63.16v.06c0,.15-.22.16-.35.2a49.47,49.47,0,0,1-6.6,1.45c-1.35.2-2.72.28-4.21.4.29.15.46.24.65.32A45.28,45.28,0,0,1,83,68.78a11.28,11.28,0,0,1,2.61,2.07c.12.13.3.27.22.46s-.32.14-.48.13c-.56,0-1.12-.07-1.67-.1a34.72,34.72,0,0,1-8-1.23c-.35-.11-.72-.2-1.07-.3l-.18.2c.25.2.51.37.74.57a38.68,38.68,0,0,1,4.54,4.78,13.28,13.28,0,0,1,2,3c.06.13.18.3,0,.44s-.27,0-.39,0a30,30,0,0,1-7.47-3.62c-.87-.58-1.63-1.3-2.59-2,.29.66.52,1.15.72,1.63a45.78,45.78,0,0,1,2.78,8A4.54,4.54,0,0,1,75,84.55a44.11,44.11,0,0,1-7.56-8.71,60.16,60.16,0,0,1,.34,8.43,26.33,26.33,0,0,1-.48,3.1.31.31,0,0,0-.19,0l0,0-.12-.17a45.6,45.6,0,0,1-3.75-8.71c-.16-.54-.31-1.09-.51-1.78-1.28,3.61-2.26,7.15-4.22,10.3h-.1a.27.27,0,0,0-.17.06c0-.11,0-.22,0-.33A16,16,0,0,1,58,84.39a53.62,53.62,0,0,1,0-7.17A3.09,3.09,0,0,0,58,75.85c-2.36,3-4.56,6.12-7.59,8.46a34.64,34.64,0,0,1,3.61-10.93c-3.15,2-6.2,4.06-9.71,5.33a.62.62,0,0,0-.17-.12.85.85,0,0,0-.39,0,5,5,0,0,1,.71-1.4,37.11,37.11,0,0,1,5.56-6.63,4.51,4.51,0,0,0,1-1l-.58.13a53.89,53.89,0,0,1-6,1.46,14.62,14.62,0,0,1-4.42.35.64.64,0,0,0-.19-.23l-.27-.07-.08,0h-.14a.4.4,0,0,0,.13.26,2,2,0,0,0,.34,0,.82.82,0,0,0,.24.22,1.5,1.5,0,0,0,.83.17,19,19,0,0,0,2.26-.19,48.62,48.62,0,0,0,7.1-1.63,2.19,2.19,0,0,0-.5.38,46.72,46.72,0,0,0-4,4.42,16,16,0,0,0-2.11,3.26c-.09.19-.22.4-.13.59a.4.4,0,0,0,.18.19l.48-.14a.83.83,0,0,0,.21.06,1.92,1.92,0,0,0,1-.22,49.62,49.62,0,0,0,7.92-4.49,9.72,9.72,0,0,0-.66,1.29,38.62,38.62,0,0,0-2.48,8c-.07.35-.4.8.1,1.07s.79-.19,1.07-.45a41,41,0,0,0,3.34-3.51c1-1.19,1.94-2.44,2.92-3.69a5.13,5.13,0,0,1-.08,1.06c0,2.75,0,5.51.13,8.26a4.8,4.8,0,0,0,.14.83.38.38,0,0,0,.17.31h0a.25.25,0,0,0,.21,0l.11-.12h0l.18,0c.43-.18.58-.63.78-1a54.11,54.11,0,0,0,3.19-8,2.61,2.61,0,0,0,.1-.57,2.72,2.72,0,0,0,.14.7A43.19,43.19,0,0,0,65.42,85a21.52,21.52,0,0,0,1.11,2.13c.09.14.17.32.32.38a.36.36,0,0,0,.27,0l.12,0a.56.56,0,0,0,.15-.1,1.42,1.42,0,0,0,.38-1A28.58,28.58,0,0,0,68,79a8.25,8.25,0,0,0-.26-2.27,3.88,3.88,0,0,0,.49.81A50.12,50.12,0,0,0,74,84.11a2.34,2.34,0,0,0,.63.45c.15.07.3.09.38,0a.3.3,0,0,0,.07-.18c0-.12,0-.24,0-.36a2.43,2.43,0,0,0,0-1c-.21-.79-.36-1.6-.61-2.38q-.87-2.75-2-5.39a6.83,6.83,0,0,0-.63-1.27,6.54,6.54,0,0,0,.75.71A28.19,28.19,0,0,0,81,79c.29.11.62.32.92,0l0,0c.3-.35,0-.67-.09-1a.8.8,0,0,0-.08-.16,36.66,36.66,0,0,0-6.34-7.48,32.25,32.25,0,0,0,6,1.15c1.31.14,2.63.22,3.94.25.23,0,.47,0,.61-.21a.23.23,0,0,0,0-.1.55.55,0,0,0,0-.17.75.75,0,0,0-.21-.6,6.74,6.74,0,0,0-.81-.79A30.77,30.77,0,0,0,78.42,66a6,6,0,0,0-1.27-.55h.16A43.85,43.85,0,0,0,87,63.7c.25-.07.46-.18.5-.44h0s0,0,0,0a.09.09,0,0,0,0-.05Zm-49.83,0s0,0,0,0v0a.09.09,0,0,1,0,0,0,0,0,0,0,0,0v0A0,0,0,0,0,37.44,63.16Z"/><path class="cls-2" d="M97.56,69.71a26.65,26.65,0,0,1-6.83,1.49c-1.5.15-3,.19-4.6.28,3.4,2.76,6.48,5.71,8.26,9.75l.08.17A32.14,32.14,0,0,1,82,79c.27.47.46.79.63,1.11a36,36,0,0,1,3,8.28c.17.66.34,1.32.47,2s0,.63-.49.41a34,34,0,0,1-7.87-4.66c-.81-.64-1.59-1.31-2.46-2,.17,1.2.36,2.31.45,3.44a47.34,47.34,0,0,1,0,4.91c0,1.43-.21,2.86-.33,4.29-.05.57-.13.61-.6.3a15.2,15.2,0,0,1-3.71-3.71,46.48,46.48,0,0,1-3.85-5.85.59.59,0,0,0,0-.13,25.15,25.15,0,0,0,.49-3.11,58.68,58.68,0,0,0-.34-8.43A44.16,44.16,0,0,0,75,84.55a4.74,4.74,0,0,0-.16-1.71,44.61,44.61,0,0,0-2.78-8c-.21-.49-.43-1-.72-1.64,1,.73,1.72,1.45,2.59,2a30.39,30.39,0,0,0,7.47,3.63c.13,0,.28.14.39,0s0-.31,0-.45a13.36,13.36,0,0,0-2-3,39.28,39.28,0,0,0-4.52-4.78c-.24-.2-.5-.37-.75-.56.06-.07.11-.14.17-.2l1.08.29a35.29,35.29,0,0,0,8,1.24c.56,0,1.12.08,1.68.1.16,0,.39.07.48-.14s-.1-.34-.21-.46A11.49,11.49,0,0,0,83,68.77a45.2,45.2,0,0,0-6.24-3.18c-.18-.08-.35-.18-.64-.32,1.49-.12,2.86-.19,4.21-.4a50,50,0,0,0,6.61-1.45c.13,0,.31-.05.34-.2v-.07h1.41l.33.13a33.06,33.06,0,0,1,8.73,5.27C98.77,69.37,98.67,69.3,97.56,69.71Z"/><path class="cls-2" d="M58.25,87.29a8.82,8.82,0,0,1-1.7,3.27A43.28,43.28,0,0,1,50.61,97c-.35.32-.49.16-.55-.19a16.8,16.8,0,0,1-.3-2.13c0-1.23-.07-2.47,0-3.71.1-1.79.29-3.57.45-5.36,0-.3.06-.61.11-1.07-.74.61-1.34,1.14-2,1.64A28.9,28.9,0,0,1,40,90.73c-.78.27-.85.17-.74-.65a22.49,22.49,0,0,1,3.63-9.17,12.68,12.68,0,0,0,1.36-2.16l.13,0c3.51-1.27,6.56-3.37,9.7-5.33a34.79,34.79,0,0,0-3.6,10.93c3-2.34,5.23-5.42,7.59-8.46A3.37,3.37,0,0,1,58,77.21a53.76,53.76,0,0,0,0,7.18,19.14,19.14,0,0,0,.13,2.39c0,.11,0,.22.06.33A.38.38,0,0,0,58.25,87.29Z"/><path class="cls-2" d="M67.12,87.54A3,3,0,0,0,66.8,89a28.59,28.59,0,0,1-2.13,6.78c-.48,1.1-1,2.17-1.56,3.24-.27.55-.39.56-.77.06a15,15,0,0,1-2.17-4.7,55.94,55.94,0,0,1-1.71-7,1.89,1.89,0,0,0-.09-.21l.06-.11c2-3.14,3-6.69,4.22-10.3.2.69.34,1.24.51,1.77a45.15,45.15,0,0,0,3.75,8.72l.12.16Z"/><path class="cls-2" d="M51.07,69.57a5,5,0,0,1-1,1,36.35,36.35,0,0,0-5.57,6.62,5,5,0,0,0-.71,1.4,2.56,2.56,0,0,0-.05.27,7.65,7.65,0,0,1-3,1.27A37.81,37.81,0,0,1,31,81.28a1,1,0,0,1,.05-.16,12.42,12.42,0,0,1,2.66-4.29,31.55,31.55,0,0,1,5.83-4.92c.15-.1.39-.15.32-.43l.2,0a14.66,14.66,0,0,0,4.43-.35,56.21,56.21,0,0,0,6-1.46Z"/><path class="cls-2" d="M100,32.28l0-.1a2.7,2.7,0,0,0-1.8-.28,34.57,34.57,0,0,0-7.33,1.5c-1.11.33-2.2.71-3.29,1.1-.63.22-.78.1-.69-.56.29-2.06.29-4.14.38-6.21s-.15-3.91,0-5.86c0-.21,0-.45-.17-.61s-.06-.59-.22-.86c-.83,1.16-2.28,1.27-3.37,2A67,67,0,0,0,77,27.2l-.91.77c-.35.32-.47.26-.55-.22a30.18,30.18,0,0,0-.7-3.27,72.42,72.42,0,0,0-3.16-8.71,1.2,1.2,0,0,0-.63-.76L71,14.9a5,5,0,0,0-2,1.78,51.7,51.7,0,0,0-5.68,8.71l-.11.21c-.24.38-.39.39-.56,0a15.94,15.94,0,0,0-.84-1.52,41.32,41.32,0,0,0-4.29-5.9c-.75-.89-1.61-1.67-2.34-2.57s-1.37-.71-1.81.28a34.38,34.38,0,0,0-1.64,5c-.58,2.16-1,4.34-1.43,6.55-.13.72-.3.79-.86.26a32.56,32.56,0,0,0-5.51-3.91c-1.57-1-3.21-1.78-4.85-2.63-.65-.33-1.08-.11-1.16.63a30.88,30.88,0,0,0-.08,5.44,67.59,67.59,0,0,0,.84,7c.08.46-.09.58-.55.38a38.11,38.11,0,0,0-6.6-1.94q-2.88-.6-5.79-.95c-1-.12-1.26.21-1.11,1.2a12.65,12.65,0,0,0,1,3,51.66,51.66,0,0,0,3.61,6.82,13.47,13.47,0,0,0,1.62,2.4l.15.14h0a.44.44,0,0,0,.15,0h0l.19,0a26.45,26.45,0,0,0,2.66.2,29.11,29.11,0,0,1,8.42,1.59,5.66,5.66,0,0,1,1.18.59l0,0,.2,0a.85.85,0,0,0,.39,0,.83.83,0,0,0,.17-.12.25.25,0,0,0,.08-.1c.08-.18-.07-.38-.19-.56-.69-1.08-1.43-2.12-2.06-3.24a21.43,21.43,0,0,1-2.52-6.69c-.06-.34-.26-.76,0-1s.65,0,1,.17a28.15,28.15,0,0,1,9,5.4c.2.18.4.45.72.28s.22-.52.19-.81a74.27,74.27,0,0,1-.52-8.3,15.73,15.73,0,0,1,.24-2.56c.08-.46.24-.52.58-.21a34,34,0,0,1,6.4,7.4A18.13,18.13,0,0,1,58,39.13l.06.11.07.06a.36.36,0,0,0,.17.07l.1,0a.22.22,0,0,0,.12-.05c.18-.1.2-.33.25-.53.39-1.84.77-3.68,1.31-5.48a21.33,21.33,0,0,1,2-5.05,2.13,2.13,0,0,1,.16-.25c.33-.45.57-.43.84.06a27.85,27.85,0,0,1,1.36,2.87,26.47,26.47,0,0,1,2.15,7.39A.79.79,0,0,0,67,39l0,0a.55.55,0,0,0,.18,0h0l.13,0c.18-.08.25-.28.35-.45a57.1,57.1,0,0,1,4.17-6.06,15.62,15.62,0,0,1,2.35-2.39c.18-.15.37-.36.63-.27s.27.39.29.62a57.7,57.7,0,0,1,.19,8.42c-.08,1-.32,2-.33,3v0c0,.19-.08.4.12.51l0,0c.22.1.38-.05.53-.18C77.12,41.1,78.5,40,80,39a35.66,35.66,0,0,1,5-2.79c.18-.08.37-.22.56,0s.07.34,0,.51a41.1,41.1,0,0,1-3.1,9.23c-.17.32-.34.64-.52.95s-.22.4,0,.61.4.16.61.09c.8-.27,1.57-.58,2.38-.82a32.3,32.3,0,0,1,8.67-1.38,5.58,5.58,0,0,0,.57-.08l.23,0h0a.49.49,0,0,0,.17-.06l.14-.12.21-.2a14.49,14.49,0,0,0,2.82-4.87,45.94,45.94,0,0,0,2.2-6.56C100.06,33,100.25,32.65,100,32.28Z"/><path class="cls-2" d="M31,45.12a61.65,61.65,0,0,1-5.4-9.86,10.81,10.81,0,0,1-.82-2.68c-.06-.48,0-.73.59-.65a68,68,0,0,1,7.77,1.4,32.2,32.2,0,0,1,5.57,1.85c.48.23.32-.19.29-.37-.23-1.62-.52-3.23-.72-4.86a35.53,35.53,0,0,1-.18-8c.07-.73.18-.76.85-.42a65.1,65.1,0,0,1,7.47,4.3,18.69,18.69,0,0,1,3.4,2.81c.09.1.17.25.34.2s.13-.23.16-.36c.35-1.78.64-3.58,1.08-5.34a38.14,38.14,0,0,1,2.21-7.2c.37-.77.53-.83,1.13-.2A45.7,45.7,0,0,1,62,25.11a11.39,11.39,0,0,0,.85,1.6c.53-1,1-1.88,1.53-2.76a40.67,40.67,0,0,1,5.75-8.15c.28-.29.73-.44.84-.9A73.94,73.94,0,0,0,63.84,1C63-.22,62.94-.2,62.09,1a72.73,72.73,0,0,0-7.82,13.58c-.19.44-.36.36-.63.09q-3.35-3.22-6.83-6.3a54.63,54.63,0,0,0-5.28-4.32c-.73-.49-.73-.48-.92.36-.84,3.74-1.59,7.49-2.1,11.3a30.61,30.61,0,0,0-.32,4.59c0,.79,0,.8-.74.45A102.54,102.54,0,0,0,25,15.56C24,15.24,23,15,22.08,14.72c-.46-.13-.61,0-.55.48.3,2.56.69,5.11,1.14,7.64.5,2.79,1.1,5.56,1.85,8.3.18.68.17.68-.51.61a89.48,89.48,0,0,0-12-.63,18.2,18.2,0,0,0-4.22.53c-.37.11-.49.24-.28.63A130.86,130.86,0,0,0,16,46.35c.06.08.14.14.21.22a.6.6,0,0,0,.81.26,38.19,38.19,0,0,1,7.25-1.46,28.18,28.18,0,0,1,6,0C30.59,45.36,30.86,45.42,31,45.12Z"/><path class="cls-2" d="M40.09,71.51a.33.33,0,0,1,0,.19c0,.17-.2.31-.38.45-.78.51-1.54,1.07-2.27,1.65a21.09,21.09,0,0,0-5.24,5.54,7.17,7.17,0,0,0-.6,1.17,1.67,1.67,0,0,1-.35.56,1.09,1.09,0,0,1-.26.22h0l-.25,0a34.07,34.07,0,0,1-13.82-1.46.87.87,0,0,0-.69,0v-.24a1.1,1.1,0,0,1,.1-1.08,12.67,12.67,0,0,1,3.11-4,44.9,44.9,0,0,1,5.89-4.49.35.35,0,0,0,.22-.26,8.67,8.67,0,0,0-1.14-.44A40.69,40.69,0,0,1,14,64a2.22,2.22,0,0,1-.6-.5.81.81,0,0,1-.07-.22h0s0,0,0,0,0,0,0-.05h0a.78.78,0,0,1,.07-.23,2.42,2.42,0,0,1,.6-.5,40.69,40.69,0,0,1,10.44-5.38,7.47,7.47,0,0,0,1.14-.44.35.35,0,0,0-.22-.26,44,44,0,0,1-5.89-4.49,12.49,12.49,0,0,1-3.11-4,1.08,1.08,0,0,1-.1-1.07v-.23a.91.91,0,0,0,.69,0,34.08,34.08,0,0,1,13.82-1.47l.25,0h0a1.88,1.88,0,0,1,.26.22,1.62,1.62,0,0,1,.35.57,7.5,7.5,0,0,0,.6,1.16,21.09,21.09,0,0,0,5.24,5.54c.73.58,1.49,1.14,2.27,1.66.18.13.36.27.38.44a.36.36,0,0,1,0,.2.86.86,0,0,1-.19.22l-.27.07-.08,0h-.14a36.28,36.28,0,0,0-7.13.62c-1.48.29-3,.57-4.45.92-.2,0-.5,0-.55.29s.2.36.35.52a3.94,3.94,0,0,0,.74.61,39.62,39.62,0,0,0,6.27,3.49L37,62.73c.19.09.4.19.45.41v0a0,0,0,0,1,0,0v0a0,0,0,0,1,0,0h0c0,.22-.26.32-.45.4l-2.35,1.07a39.62,39.62,0,0,0-6.27,3.49,3.94,3.94,0,0,0-.74.61c-.15.15-.4.28-.35.52s.35.24.55.29c1.47.35,3,.63,4.45.91a37.07,37.07,0,0,0,7.13.63h.14l.08,0,.27.07A.64.64,0,0,1,40.09,71.51Z"/><path class="cls-2" d="M111.4,63.31s0-.07,0-.1,0-.07,0-.11a.28.28,0,0,0,0-.09c.07-.31-.15-.48-.32-.66a9.86,9.86,0,0,0-3-1.88,61.11,61.11,0,0,0-7.72-3.07l-.28-.11c-.35-.14-.4-.31-.07-.53a23.81,23.81,0,0,0,3.89-3.55c1.79-1.89,3.49-3.88,5.1-5.94a.53.53,0,0,0,.16-.49c0-.07,0-.14,0-.22-.15-.27-.45-.31-.71-.39A31.63,31.63,0,0,0,101,45c-1.77-.13-3.54-.28-5.32-.24a2.87,2.87,0,0,0-.78.09,1.69,1.69,0,0,0-.46.2h0a1.69,1.69,0,0,0-.31.21,1,1,0,0,0-.27.36A21.79,21.79,0,0,1,90.06,51a35.53,35.53,0,0,1-3.63,3.31,3.08,3.08,0,0,0-.27.24.49.49,0,0,0-.21.35.53.53,0,0,0,0,.17l.06.09a.53.53,0,0,0,.39.13c1.42.1,2.84,0,4.24.22a30.52,30.52,0,0,1,6.49,1.39c.22.08.51.11.55.4s-.2.37-.37.51a36.51,36.51,0,0,1-7.22,4.57c-.67.32-1.37.54-2.06.79h-.29l.15.06-.15,0h.29c.69.25,1.39.47,2.06.79a36.51,36.51,0,0,1,7.22,4.57c.17.14.4.26.37.51s-.33.32-.55.4a30.52,30.52,0,0,1-6.49,1.39c-1.4.17-2.82.12-4.24.22a.53.53,0,0,0-.39.13l-.06.09a.53.53,0,0,0,0,.17.49.49,0,0,0,.21.35,3.08,3.08,0,0,0,.27.24,35.53,35.53,0,0,1,3.63,3.31,21.79,21.79,0,0,1,3.83,5.4,1,1,0,0,0,.27.36,1.69,1.69,0,0,0,.31.21h0a1.69,1.69,0,0,0,.46.2,3.33,3.33,0,0,0,.78.1c1.78,0,3.55-.12,5.32-.25a31.63,31.63,0,0,0,7.36-1.22c.26-.08.56-.12.71-.39,0-.08,0-.15,0-.22a.53.53,0,0,0-.16-.49c-1.61-2.06-3.31-4-5.1-5.94A23.81,23.81,0,0,0,100,69.65c-.33-.22-.28-.39.07-.53l.28-.11a61.11,61.11,0,0,0,7.72-3.07,9.86,9.86,0,0,0,3-1.88c.17-.18.39-.35.32-.66A.28.28,0,0,0,111.4,63.31Z"/><path class="cls-2" d="M25.41,56a41.08,41.08,0,0,1-6.07-4.66,10.69,10.69,0,0,1-3.09-4.56C14,47.33,11.7,48,9.46,48.73A59,59,0,0,0,.73,52.06c-.94.47-.95.49-.15,1.17C4.5,56.55,8.5,59.77,12.64,62.8c.3.22.47.35.5.46h.38c0-.13.2-.27.49-.47a41.1,41.1,0,0,1,11.28-5.73c.33-.11.9-.05.94-.36S25.72,56.22,25.41,56Z"/><path class="cls-2" d="M111.61,63.26l-.07,0-.14-.11-.22.16Z"/><path class="cls-2" d="M87,21.26a1.86,1.86,0,0,0-.12.77c0,1.31.1,2.63.08,3.94a54.08,54.08,0,0,1-.47,8.24c0,.32-.41.73-.16.93s.66-.12,1-.24a45.65,45.65,0,0,1,9.53-2.56,7.21,7.21,0,0,1,2.62-.09.7.7,0,0,0,.47-.07,81.19,81.19,0,0,0,3.43-17c0-.42,0-.6-.51-.44a108.57,108.57,0,0,0-14,5.42A12.85,12.85,0,0,0,87,21.26Z"/><path class="cls-2" d="M94.48,45a64.84,64.84,0,0,1,11.39.84,23.22,23.22,0,0,1,2.61.67c.21.06.41.16.63.05q3.38-5,6.25-10.2A37.32,37.32,0,0,0,117.44,32c.18-.44.13-.62-.41-.66a70.53,70.53,0,0,0-12.5.16,34.63,34.63,0,0,0-4.53.8c-.3,1-.59,1.94-.88,2.91a42,42,0,0,1-2.28,6.09A14.05,14.05,0,0,1,94.48,45Z"/><path class="cls-2" d="M109.13,46.78a22.57,22.57,0,0,0-2.31,2.67,50.13,50.13,0,0,1-6.59,6.76c-.41.32-.86.58-1.34.9a4.32,4.32,0,0,0,1.41.59,67,67,0,0,1,7.84,3.13A10.76,10.76,0,0,1,111.41,63a55.09,55.09,0,0,0,8.48-5.73,56.21,56.21,0,0,0,4.94-4.45c.49-.5.49-.51-.14-.86a47.75,47.75,0,0,0-10.82-4.19A40.32,40.32,0,0,0,109.13,46.78Z"/><path class="cls-2" d="M71.08,15c.72,1.8,1.48,3.58,2.14,5.4A31.81,31.81,0,0,1,75.3,28.2c0,.2,0,.47.18.55s.42-.16.6-.32a57.07,57.07,0,0,1,7.65-5.84A7.27,7.27,0,0,1,86,21.54a.91.91,0,0,0,.8-1.14A81.61,81.61,0,0,0,85,5c-.33-1.38-.35-1.38-1.45-.48C79.32,7.94,75.16,11.42,71.08,15Z"/><path class="cls-2" d="M87.51,63.21s0,0,0,0h0c0-.28-.25-.38-.5-.45a45,45,0,0,0-9.7-1.77h-.16a6.47,6.47,0,0,0,1.27-.54A31.23,31.23,0,0,0,85,56.54a5.57,5.57,0,0,0,.81-.8.71.71,0,0,0,.21-.6A.49.49,0,0,0,86,55a.26.26,0,0,0,0-.09c-.14-.23-.38-.23-.61-.22-1.31,0-2.63.11-3.94.26a31.44,31.44,0,0,0-6,1.14,36.66,36.66,0,0,0,6.34-7.48c0-.06.06-.11.08-.16.13-.32.39-.64.09-1l0,0c-.29-.33-.63-.11-.92,0a28.19,28.19,0,0,0-8.34,4.37,6.54,6.54,0,0,0-.75.71,6.54,6.54,0,0,0,.63-1.27q1.13-2.64,2-5.39c.25-.78.4-1.59.61-2.38a2.39,2.39,0,0,0,0-1c0-.13,0-.25,0-.37a.3.3,0,0,0-.07-.18c-.08-.09-.23-.07-.38,0a2.34,2.34,0,0,0-.63.45,50.69,50.69,0,0,0-5.85,6.57,4.56,4.56,0,0,0-.49.82A8.29,8.29,0,0,0,68,47.42,28.59,28.59,0,0,0,67.77,40c-.06-.34-.07-.74-.38-1a1,1,0,0,0-.15-.11l-.12,0a.36.36,0,0,0-.27,0c-.15.07-.23.24-.32.38a21.52,21.52,0,0,0-1.11,2.13,42.82,42.82,0,0,0-2.66,6.8,2.81,2.81,0,0,0-.14.7,2.72,2.72,0,0,0-.1-.57,53.56,53.56,0,0,0-3.19-8c-.2-.38-.35-.83-.78-1l-.18,0h0a.65.65,0,0,0-.11-.12.25.25,0,0,0-.21,0h0a.38.38,0,0,0-.17.31,4.8,4.8,0,0,0-.14.83c-.15,2.75-.15,5.51-.13,8.26a5.07,5.07,0,0,1,.08,1.06c-1-1.25-1.93-2.5-2.92-3.68a38.24,38.24,0,0,0-3.34-3.51c-.28-.27-.57-.73-1.07-.46s-.17.72-.1,1.07a38.62,38.62,0,0,0,2.48,8,9.72,9.72,0,0,0,.66,1.29,49.62,49.62,0,0,0-7.92-4.49,1.84,1.84,0,0,0-1-.22l-.21,0-.48-.13a.4.4,0,0,0-.18.19c-.09.19,0,.4.13.59a16.24,16.24,0,0,0,2.11,3.26,46.72,46.72,0,0,0,4,4.42,2.19,2.19,0,0,0,.5.38,48.62,48.62,0,0,0-7.1-1.63A19,19,0,0,0,41,54.54a1.41,1.41,0,0,0-.83.17,1,1,0,0,0-.24.22l-.34,0a.4.4,0,0,0-.13.26h.14l.08,0,.27-.07a.86.86,0,0,0,.19-.22,14.3,14.3,0,0,1,4.42.34,56.21,56.21,0,0,1,6,1.46l.58.13a4.78,4.78,0,0,0-1-1,36.7,36.7,0,0,1-5.56-6.62,5,5,0,0,1-.71-1.4.85.85,0,0,0,.39,0,.62.62,0,0,0,.17-.12C47.85,49,50.9,51.07,54.05,53A34.56,34.56,0,0,1,50.44,42.1c3,2.34,5.23,5.42,7.59,8.46A3.1,3.1,0,0,0,58,49.19,53.62,53.62,0,0,1,58,42a15.83,15.83,0,0,1,.13-2.38c0-.12,0-.23,0-.34a.27.27,0,0,0,.17.06h.1c2,3.14,2.94,6.69,4.22,10.3.2-.69.35-1.24.51-1.78a45.33,45.33,0,0,1,3.75-8.71L67,39l0,0a.4.4,0,0,0,.19,0,26.65,26.65,0,0,1,.48,3.1,60.16,60.16,0,0,1-.34,8.43A44.39,44.39,0,0,1,75,41.86a4.52,4.52,0,0,1-.15,1.71,45.4,45.4,0,0,1-2.78,8c-.2.5-.43,1-.72,1.63,1-.72,1.72-1.44,2.59-2a30,30,0,0,1,7.47-3.63c.12,0,.28-.13.39,0s0,.3,0,.45a13.66,13.66,0,0,1-2,3,38.68,38.68,0,0,1-4.54,4.78c-.23.2-.49.37-.74.56a1.12,1.12,0,0,0,.18.2l1.07-.28a34.75,34.75,0,0,1,8-1.25c.55,0,1.11-.07,1.67-.1.16,0,.4-.06.48.14s-.1.33-.22.47A11.84,11.84,0,0,1,83,57.64a46.35,46.35,0,0,1-6.24,3.18,6.69,6.69,0,0,0-.65.33c1.49.11,2.86.18,4.21.39A49.47,49.47,0,0,1,86.92,63c.13,0,.32,0,.35.21v.06h.25A.09.09,0,0,0,87.51,63.21Zm-50.07-.05a.09.09,0,0,1,0,.05v0s0,0,0,0a0,0,0,0,0,0,0v0A0,0,0,0,0,37.44,63.16Z"/><path class="cls-2" d="M97.56,56.7a27.08,27.08,0,0,0-6.83-1.49c-1.5-.15-3-.19-4.6-.28,3.4-2.76,6.48-5.71,8.26-9.75,0,0,0-.11.08-.17A32,32,0,0,0,82,47.39c.27-.48.46-.8.63-1.12a36,36,0,0,0,3-8.28c.17-.66.34-1.31.47-2s0-.63-.49-.41a34,34,0,0,0-7.87,4.66c-.81.64-1.59,1.31-2.46,2,.17-1.2.36-2.31.45-3.44a47.34,47.34,0,0,0,0-4.91c0-1.43-.21-2.86-.33-4.29-.05-.56-.13-.61-.6-.3a15.2,15.2,0,0,0-3.71,3.71,46.48,46.48,0,0,0-3.85,5.85.59.59,0,0,1,0,.14,24.7,24.7,0,0,1,.49,3.1,58.68,58.68,0,0,1-.34,8.43A44.45,44.45,0,0,1,75,41.86a4.74,4.74,0,0,1-.16,1.71,44.61,44.61,0,0,1-2.78,8c-.21.5-.43,1-.72,1.64,1-.73,1.72-1.45,2.59-2a30.39,30.39,0,0,1,7.47-3.63c.13,0,.28-.14.39,0s0,.31,0,.45a13.36,13.36,0,0,1-2,3,39.28,39.28,0,0,1-4.52,4.78c-.24.2-.5.37-.75.56l.17.21,1.08-.3a35.29,35.29,0,0,1,8-1.24c.56,0,1.12-.08,1.68-.1.16,0,.39-.07.48.14s-.1.34-.21.46A11.49,11.49,0,0,1,83,57.64a46.39,46.39,0,0,1-6.24,3.19c-.18.07-.35.17-.64.31,1.49.12,2.86.19,4.21.4A50,50,0,0,1,86.93,63c.13,0,.31,0,.34.2v.07h1.41l.33-.13a33.06,33.06,0,0,0,8.73-5.27C98.77,57,98.67,57.11,97.56,56.7Z"/><path class="cls-2" d="M48.61,65.25c.17,0,.34.07.69.14L48,66a32.6,32.6,0,0,0-8,4.86,1.82,1.82,0,0,0-.38.35l-.08,0h-.14c0-.2.16-.35.31-.49a24.49,24.49,0,0,1,3.64-2.62,42.36,42.36,0,0,1,5-2.55A83.06,83.06,0,0,1,40,64.31a8.29,8.29,0,0,1-2.13-.63c-.19-.09-.38-.18-.42-.41h0a0,0,0,0,0,0,0v0a0,0,0,0,0,0,0v0c0-.23.23-.32.42-.41A8.29,8.29,0,0,1,40,62.1c2.73-.54,5.49-.94,8.35-1.22a45.59,45.59,0,0,1-5-2.54,26.1,26.1,0,0,1-3.64-2.63c-.15-.14-.33-.29-.31-.49h.14l.08,0a2.18,2.18,0,0,0,.38.36,32.6,32.6,0,0,0,8,4.86l1.28.6c-.35.08-.52.13-.69.15-1.45.17-2.9.29-4.34.5a39.65,39.65,0,0,0-5.82,1.14,1.94,1.94,0,0,0-.78.4,2,2,0,0,0,.78.39,39.65,39.65,0,0,0,5.82,1.14C45.71,65,47.16,65.07,48.61,65.25Z"/><path class="cls-2" d="M40,64.31a83.06,83.06,0,0,0,8.35,1.22,42.36,42.36,0,0,0-5,2.55,24.49,24.49,0,0,0-3.64,2.62c-.15.14-.33.29-.31.49h.14l.08,0a.63.63,0,0,0-.09.24A45.83,45.83,0,0,1,27.16,69.8c-.56-.13-.59-.27-.2-.7a14.58,14.58,0,0,1,3.93-2.8,62.14,62.14,0,0,1,6-2.92.36.36,0,0,0,.22-.17.35.35,0,0,0-.22-.18,62.14,62.14,0,0,1-6-2.92A14.58,14.58,0,0,1,27,57.31c-.39-.43-.36-.57.2-.7A45.83,45.83,0,0,1,39.54,55a.63.63,0,0,0,.09.24l-.08,0h-.14c0,.2.16.35.31.49a26.1,26.1,0,0,0,3.64,2.63,45.59,45.59,0,0,0,5,2.54c-2.86.28-5.62.68-8.35,1.22a8.29,8.29,0,0,0-2.13.63c-.19.09-.38.18-.42.41v0a0,0,0,0,1,0,0v0a0,0,0,0,1,0,0h0c0,.23.23.32.42.41A8.29,8.29,0,0,0,40,64.31Z"/><path class="cls-2" d="M58.25,39.12a8.82,8.82,0,0,0-1.7-3.27,43.28,43.28,0,0,0-5.94-6.46c-.35-.32-.49-.16-.55.19a16.8,16.8,0,0,0-.3,2.13c0,1.23-.07,2.47,0,3.71.1,1.79.29,3.57.45,5.36,0,.31.06.61.11,1.07-.74-.61-1.34-1.14-2-1.64A28.9,28.9,0,0,0,40,35.68c-.78-.27-.85-.17-.74.65a22.49,22.49,0,0,0,3.63,9.17,12.68,12.68,0,0,1,1.36,2.16l.13,0C47.85,49,50.9,51.07,54,53a34.79,34.79,0,0,1-3.6-10.93c3,2.34,5.23,5.42,7.59,8.46A3.37,3.37,0,0,0,58,49.2,53.76,53.76,0,0,1,58,42a19.14,19.14,0,0,1,.13-2.39c0-.11,0-.22.06-.33A.38.38,0,0,1,58.25,39.12Z"/><path class="cls-2" d="M67.12,38.87a3,3,0,0,1-.32-1.44,28.59,28.59,0,0,0-2.13-6.78c-.48-1.1-1-2.17-1.56-3.24-.27-.55-.39-.56-.77-.06a15,15,0,0,0-2.17,4.7,55.94,55.94,0,0,0-1.71,7c0,.07-.06.14-.09.22l.06.1c2,3.14,3,6.69,4.22,10.3.2-.69.34-1.24.51-1.77a45.15,45.15,0,0,1,3.75-8.72L67,39Z"/><path class="cls-2" d="M51.07,56.84a5,5,0,0,0-1-1,36.35,36.35,0,0,1-5.57-6.62,5,5,0,0,1-.71-1.4,2.56,2.56,0,0,1-.05-.27,7.65,7.65,0,0,0-3-1.27A37.81,37.81,0,0,0,31,45.13a1,1,0,0,0,.05.16,12.42,12.42,0,0,0,2.66,4.29,31.55,31.55,0,0,0,5.83,4.92c.15.1.39.15.32.43l.2,0a14.66,14.66,0,0,1,4.43.35,56.21,56.21,0,0,1,6,1.46C50.66,56.76,50.83,56.79,51.07,56.84Z"/></svg>