<svg id="Layer_1" data-name="Layer 1" xmlns="http://www.w3.org/2000/svg" viewBox="0 0 154.12 176.39"><defs><style>.cls-1{fill:#131313;}</style></defs><path class="cls-1" d="M0,36.89C.05,18.32,13.79,2.55,31.93.33,44-1.15,54.51,2.37,63.15,11.08c.82.83,1.61,1.69,2.48,2.48.71.64.6,1.11,0,1.74q-7,6.93-13.88,13.92c-.84.85-1.33.53-2-.16-2.12-2.28-4.37-4.37-7.45-5.35a15,15,0,0,0-17.5,6.74c-3.36,5.45-2.33,13.1,2.39,17.84,4.05,4.06,8.13,8.1,12.15,12.2.91.94,1.48,1,2.45,0C58,44.29,74.2,28.13,90.32,11.85,96.43,5.67,103.52,1.57,112.15.39a35.72,35.72,0,0,1,30.3,9.52,34.7,34.7,0,0,1,11.27,21.42c1.57,11.86-1.45,22.42-9.95,31-13.35,13.52-26.85,26.9-40.24,40.38a76.49,76.49,0,0,1-7.81,7.46,31.15,31.15,0,0,1-40.35-2.62c-.95-.93-1.86-1.88-2.82-2.79-.68-.64-.81-1.2-.09-1.92Q59.38,96,66.25,89.07c.67-.67,1.16-.58,1.78.05a30.54,30.54,0,0,0,3.66,3.44,9,9,0,0,0,11.86-.74c14.68-14.64,29.39-29.24,43.91-44,4.44-4.53,5.11-10.25,2.52-16-2.48-5.5-6.91-8.47-13-8.71A14,14,0,0,0,106,27.53q-31.92,32-63.87,64c-1.44,1.44-1.44,1.44-2.91,0C33.49,85.71,27.67,80,22,74.17,17.78,69.73,13.29,65.52,9.11,61A34.78,34.78,0,0,1,.33,41.45,24.83,24.83,0,0,1,0,36.89Z"/><path class="cls-1" d="M102,124.08c-1.82,0-1.94.15-1.95,2.06,0,2.59,0,5.18,0,7.78,0,1.06-.37,1.39-1.48,1.27a30.82,30.82,0,0,0-4.71-.11,11.13,11.13,0,0,0-10,7.73A24.22,24.22,0,0,0,83,152.92a14.67,14.67,0,0,0,3.14,8.44c3.15,3.66,7.27,4.42,11.78,3.75,5.66-.84,8.74-4.51,8.75-10.23V128.79C106.7,124,106.7,124,102,124.08Zm-4,34.66c-3.53,1-7.19.49-8-4.33a24.17,24.17,0,0,1-.07-8.77c.76-3.78,3-5.38,6.9-5.06,3.22.26,3.22.26,3.22,3.48v5.32c0,2.19,0,4.36,0,6.55A2.61,2.61,0,0,1,98,158.74Z"/><path class="cls-1" d="M23.09,143a10.61,10.61,0,0,0-6.43-7.07,16.89,16.89,0,0,0-8.25-.72C7.4,135.3,7,135,7,134c0-1.42,0-2.85,0-4.27H7v-4.26c0-1-.43-1.4-1.38-1.39-1.22,0-2.44.06-3.65,0s-1.68.47-1.67,1.7q0,15.16,0,30.32A8.53,8.53,0,0,0,2.74,162c3.24,3.49,7.46,3.68,11.71,3a9.87,9.87,0,0,0,7.76-6A22.49,22.49,0,0,0,23.09,143Zm-6.48,12.76c-1,3.43-6.15,4.73-8.83,2.32A2.71,2.71,0,0,1,7,155.85v-6.71c0-2.23,0-4.47,0-6.7a1.43,1.43,0,0,1,1.36-1.66,11,11,0,0,1,4.67,0,5,5,0,0,1,3.75,3.63A20.82,20.82,0,0,1,16.61,155.74Z"/><path class="cls-1" d="M135.32,147.55c-.49-6.76-4.3-13.25-13.44-12.57-4.51.35-8.07,2.69-9.64,7.15A24.34,24.34,0,0,0,112,157.7a10.16,10.16,0,0,0,8,7.22,19.32,19.32,0,0,0,10.51-.73c3.4-1.13,3.4-1.15,3.4-4.68,0-.35,0-.71,0-1.06.08-1.23-.39-1.35-1.45-.9a19.61,19.61,0,0,1-8.76,1.59c-3.19-.19-5.21-1.73-5.81-4.41-.27-1.17,0-1.75,1.32-1.73,2.43,0,4.88,0,7.31,0h0c2.43,0,4.87,0,7.31,0,1.16,0,1.66-.48,1.62-1.65S135.41,148.82,135.32,147.55Zm-8.32.32c-1.36,0-2.73,0-4.09,0h-4c-.65,0-1.18-.1-1.28-.94a6.08,6.08,0,0,1,3.75-5.87c2.7-.8,5,.45,6.25,3.4a12.77,12.77,0,0,1,.56,1.89C128.47,147.36,128.1,147.89,127,147.87Z"/><path class="cls-1" d="M37.92,154.89a17,17,0,0,0,1.36-3.83c1.38-4.63,2.76-9.26,4.06-13.91a2.07,2.07,0,0,1,2.48-1.81,25,25,0,0,0,3.35,0c1.12-.05,1.35.42.94,1.38-.17.42-.29.87-.43,1.3q-4.93,14.67-9.89,29.34a19,19,0,0,1-2.89,5.51A8.43,8.43,0,0,1,27.57,176c-.93-.25-1.4-.7-1.37-1.69,0-1.17,0-2.34,0-3.51,0-.76.21-1.2,1.07-.91,2.56.84,4.17-.35,5.4-2.46,1.34-2.31,2-4.47.86-7.29-2.95-7.52-5.49-15.2-8.19-22.81-.7-2-.68-2,1.46-2h1.52c4.13.06,3.2-.53,4.44,3.39,1.54,4.9,2.95,9.83,4.45,14.74C37.35,154,37.34,154.52,37.92,154.89Z"/><path class="cls-1" d="M54,151.41c0-3.86,0-7.72,0-11.58a2.21,2.21,0,0,1,1.49-2.34,25.67,25.67,0,0,1,13.33-2.39c6.07.57,9.94,5,10.12,11.71.14,5.48,0,11,0,16.46,0,1.16-.43,1.69-1.61,1.64s-2.24-.06-3.35,0c-1.34.09-1.77-.47-1.76-1.78,0-5.13,0-10.27,0-15.4.06-5.46-2.08-6.7-7.41-6.41-4.18.23-4.17.46-4.17,4.7,0,5.64,0,11.28,0,16.92,0,1.43-.43,2.08-1.92,2a24.26,24.26,0,0,0-3.19,0c-1.18.06-1.63-.43-1.61-1.61C54,159.34,54,155.38,54,151.41Z"/><path class="cls-1" d="M140.18,151.21c0-3.91,0-7.82,0-11.74,0-.87.11-1.58,1.08-1.93A42.71,42.71,0,0,1,152.2,135c1.24-.09,1.8.35,1.71,1.64a23.22,23.22,0,0,0,0,2.89c.07,1.2-.47,1.58-1.62,1.61s-2.51.34-3.77.46-1.67.79-1.66,2c0,6.3,0,12.6,0,18.9,0,2.28-.05,2.33-2.26,2.34-4.43,0-4.43,0-4.43-4.41Z"/></svg>