<svg id="Layer_1" data-name="Layer 1" xmlns="http://www.w3.org/2000/svg" viewBox="0 0 240 240"><defs><style>.cls-1{fill:#5a5b5b;}</style></defs><path class="cls-1" d="M72.57,86.29C72.58,74,81,63.69,92.21,62.14c7.39-1,13.86,1.29,19.19,7,.53.57,1,1.16,1.59,1.71.4.39.47.7,0,1.15q-4.34,4.61-8.63,9.25c-.42.45-.7.39-1.08,0a19.41,19.41,0,0,0-2.1-2.15c-3.9-3.18-9.25-2.44-12.55,1.69a10.26,10.26,0,0,0,.62,13c2.52,2.71,5.06,5.4,7.56,8.13.53.58.88.61,1.44,0,10-10.71,20-21.37,29.92-32.11,3.77-4.07,8.14-6.8,13.45-7.58a21.11,21.11,0,0,1,18.77,6.31,23.44,23.44,0,0,1,6.92,14.14c.94,7.79-.9,14.74-6.12,20.4-8.1,8.78-16.29,17.46-24.41,26.21-2,2.16-3.87,4.47-6.29,6.16a18.19,18.19,0,0,1-22.46-1.22c-1.1-1-2.07-2.05-3.08-3.09a.83.83,0,0,1,0-1.35q4.25-4.5,8.44-9c.44-.49.76-.41,1.16,0a19,19,0,0,0,2.19,2.2,5.29,5.29,0,0,0,7.38-.5c9-9.63,18.08-19.25,27-29,2.74-3,3.18-6.74,1.6-10.55a8.66,8.66,0,0,0-8-5.79,8.42,8.42,0,0,0-6.82,3q-19.66,21.12-39.37,42.2c-.86.91-.86.91-1.73,0-3.56-3.83-7.17-7.6-10.67-11.49-2.6-2.9-5.34-5.66-7.9-8.6a23.65,23.65,0,0,1-5.44-12.9A17.07,17.07,0,0,1,72.57,86.29Z"/><path class="cls-1" d="M135.47,150.36a14.76,14.76,0,0,1-1.76,0c-.79-.06-1,.3-1,1,0,1.46,0,2.91,0,4.36,0,.59-.18.79-.8.72a17.37,17.37,0,0,0-2.6-.06,6.12,6.12,0,0,0-5.53,4.33,13.34,13.34,0,0,0-.45,5.4,8.18,8.18,0,0,0,1.74,4.74c1.7,2,4,2.42,6.41,2.08a5.26,5.26,0,0,0,4.92-5.64v-16a.27.27,0,0,1,0-.09C136.48,150.59,136.17,150.31,135.47,150.36Zm-4,19.12c-2.17.56-3.91.05-4.33-2.42a13.08,13.08,0,0,1,0-4.83c.41-2.08,1.68-3,3.8-2.79,1.78.15,1.78.15,1.78,1.92v2.93c0,1.18,0,2.35,0,3.53A1.49,1.49,0,0,1,131.49,169.48Z"/><path class="cls-1" d="M90.28,160.74a5.84,5.84,0,0,0-3.57-3.88,8.87,8.87,0,0,0-4.39-.4c-.76.1-.95-.16-.92-.84s0-1.4,0-2.09h0c0-.78,0-1.57,0-2.35,0-.56-.23-.83-.8-.82a18,18,0,0,1-1.94,0c-.73,0-1,.25-1,1,0,5.54,0,11.07,0,16.61a4.79,4.79,0,0,0,1.37,3.34c1.76,1.89,4.06,2,6.38,1.63a5.43,5.43,0,0,0,4.34-3.33A12.38,12.38,0,0,0,90.28,160.74Zm-3.14,3.53a11.22,11.22,0,0,1-.39,3.43,3.16,3.16,0,0,1-4.9,1.39,1.38,1.38,0,0,1-.44-1.13c0-2.49,0-5,0-7.47a.83.83,0,0,1,.81-1,6.52,6.52,0,0,1,2.33,0,2.85,2.85,0,0,1,2.3,2.19A8.22,8.22,0,0,1,87.14,164.27Z"/><path class="cls-1" d="M143.29,166.28c1.31,0,2.63,0,4,0h0c1.31,0,2.63,0,3.94,0,.77,0,1.07-.3,1-1s0-1.24,0-1.85c-.22-3.74-2.32-7.42-7.39-7a5.8,5.8,0,0,0-5.37,4,13.44,13.44,0,0,0-.15,8.5,5.63,5.63,0,0,0,4.44,4,10.64,10.64,0,0,0,5.48-.32c2.16-.66,2.15-.67,2.15-2.88v-.17c0-1,0-1-.92-.64a11.31,11.31,0,0,1-4.68.82,3.15,3.15,0,0,1-3.23-2.4C142.36,166.59,142.55,166.27,143.29,166.28Zm-.84-3.29a3.5,3.5,0,0,1,1.86-3.21,2.63,2.63,0,0,1,3.29,1.09,4.67,4.67,0,0,1,.63,1.53c.19.89.07,1-.84,1-.66,0-1.34,0-2,0h0c-.75,0-1.51,0-2.25,0C142.8,163.45,142.53,163.39,142.45,163Z"/><path class="cls-1" d="M98.4,167.52a23.81,23.81,0,0,0,1.15-3.47c.66-2.2,1.32-4.39,1.94-6.6a1,1,0,0,1,1.2-.89,12.56,12.56,0,0,0,1.84,0c.75,0,.85.21.63.88-1.76,5.2-3.49,10.41-5.23,15.61a18.12,18.12,0,0,1-1.4,3.23,4.73,4.73,0,0,1-6,2.59c-.15,0-.35-.17-.37-.3a9,9,0,0,1,0-2.83c0-.31.36-.19.56-.13a2.29,2.29,0,0,0,2.87-1.25,4.29,4.29,0,0,0,.53-4.16c-1.62-4.14-3-8.37-4.51-12.57-.37-1-.35-1.06.76-1.07,2.78,0,2.77,0,3.56,2.63.73,2.44,1.48,4.88,2.22,7.32C98.14,166.78,98.24,167,98.4,167.52Z"/><path class="cls-1" d="M107.31,165.41c0-2.12,0-4.25,0-6.38a1.22,1.22,0,0,1,.82-1.29,14.24,14.24,0,0,1,7.35-1.31c3.35.31,5.48,2.74,5.58,6.44.08,3,0,6,0,9.07,0,.64-.24.93-.89.91a16.31,16.31,0,0,0-1.85,0c-.74.05-1-.26-1-1,0-2.83,0-5.65,0-8.48,0-3-1.15-3.69-4.09-3.53-2.31.13-2.3.25-2.3,2.59,0,3.1,0,6.21,0,9.32,0,.78-.24,1.14-1.06,1.08a14.76,14.76,0,0,0-1.76,0c-.65,0-.9-.23-.89-.89C107.33,169.78,107.31,167.6,107.31,165.41Z"/><path class="cls-1" d="M154.87,165.31c0-2.13,0-4.26,0-6.38a1.11,1.11,0,0,1,.83-1.26,24.65,24.65,0,0,1,5.8-1.27c.68-.05,1,.18,1,.89s0,1.17,0,1.76-.22.71-.71.71a15.53,15.53,0,0,0-2.25.27c-.69.08-.93.42-.92,1.11,0,3.44,0,6.88,0,10.32,0,1.38,0,1.38-1.42,1.38-2.27,0-2.27,0-2.27-2.25Z"/></svg>