<svg id="Layer_1" data-name="Layer 1" xmlns="http://www.w3.org/2000/svg" viewBox="0 0 240 168.25"><defs><style>.cls-1{fill:#5a5b5b;}</style></defs><path class="cls-1" d="M52.35,35.73c0-17.51,11.95-32.24,28-34.45,10.54-1.45,19.77,1.85,27.37,10,.76.81,1.49,1.66,2.28,2.44.56.56.67,1,0,1.64q-6.18,6.57-12.31,13.2c-.6.64-1,.55-1.54-.05a28.09,28.09,0,0,0-3-3.07C87.65,20.85,80,21.91,75.32,27.8c-4.19,5.23-3.8,13.54.87,18.55,3.6,3.86,7.22,7.7,10.78,11.59.77.83,1.26.88,2.06,0,14.22-15.28,28.51-30.48,42.69-45.81,5.37-5.81,11.6-9.69,19.18-10.81,10.21-1.51,19.18,1.5,26.76,9a33.39,33.39,0,0,1,9.88,20.18c1.35,11.1-1.29,21-8.73,29.09C167.26,72.13,155.58,84.51,144,97c-2.87,3.09-5.52,6.38-9,8.8A26,26,0,0,1,103,104c-1.56-1.36-3-2.92-4.4-4.41a1.19,1.19,0,0,1-.06-1.92q6-6.42,12-12.89c.64-.69,1.09-.57,1.66.06A26.52,26.52,0,0,0,115.34,88a7.53,7.53,0,0,0,10.53-.71C138.74,73.57,151.65,59.86,164.39,46c3.91-4.27,4.53-9.62,2.28-15.06-2.16-5.19-6-8-11.44-8.26a12,12,0,0,0-9.72,4.26Q117.45,57,89.34,87.11c-1.22,1.3-1.22,1.3-2.46,0C81.8,81.63,76.65,76.25,71.66,70.7,68,66.56,64,62.63,60.39,58.43,55.89,53.26,53.52,47,52.63,40A24.5,24.5,0,0,1,52.35,35.73Z"/><path class="cls-1" d="M142.07,127.12a21.19,21.19,0,0,1-2.52,0c-1.12-.09-1.46.42-1.44,1.49,0,2.07,0,4.14,0,6.22,0,.83-.26,1.12-1.15,1a24,24,0,0,0-3.7-.09,8.77,8.77,0,0,0-7.89,6.18,19,19,0,0,0-.64,7.71,11.71,11.71,0,0,0,2.48,6.75c2.43,2.83,5.64,3.45,9.14,3,4.5-.61,7-3.52,7-8.05V128.56a.48.48,0,0,1,0-.12C143.5,127.45,143.06,127.05,142.07,127.12Zm-5.68,27.27c-3.09.8-5.58.07-6.17-3.45a18.73,18.73,0,0,1-.05-6.88c.59-3,2.4-4.23,5.43-4,2.52.22,2.52.22,2.52,2.74V147c0,1.67,0,3.34,0,5A2.13,2.13,0,0,1,136.39,154.39Z"/><path class="cls-1" d="M77.6,141.93a8.33,8.33,0,0,0-5.09-5.54,12.56,12.56,0,0,0-6.25-.56c-1.09.13-1.36-.24-1.31-1.2s0-2,0-3h0c0-1.12,0-2.24,0-3.37,0-.78-.33-1.17-1.14-1.16s-1.85.06-2.77,0-1.38.35-1.38,1.4c0,7.89,0,15.79,0,23.69a6.79,6.79,0,0,0,2,4.75c2.52,2.7,5.8,2.84,9.11,2.33a7.76,7.76,0,0,0,6.19-4.74A17.6,17.6,0,0,0,77.6,141.93Zm-4.47,5a15.83,15.83,0,0,1-.56,4.89,4.5,4.5,0,0,1-7,2,2,2,0,0,1-.63-1.62c0-3.55,0-7.1,0-10.65a1.16,1.16,0,0,1,1.15-1.35,8.68,8.68,0,0,1,3.33,0,4,4,0,0,1,3.27,3.11A11.75,11.75,0,0,1,73.13,147Z"/><path class="cls-1" d="M153.22,149.83c1.87,0,3.76,0,5.63,0v0c1.88,0,3.75,0,5.63,0,1.09,0,1.53-.42,1.46-1.49-.06-.88,0-1.76,0-2.64-.31-5.32-3.32-10.58-10.54-10a8.26,8.26,0,0,0-7.66,5.68,19.11,19.11,0,0,0-.21,12.12,8,8,0,0,0,6.33,5.74,15.24,15.24,0,0,0,7.81-.46c3.08-.94,3.07-1,3.07-4.11v-.25c0-1.39,0-1.39-1.31-.91a15.88,15.88,0,0,1-6.68,1.17c-2.51-.13-4.1-1.32-4.61-3.42C151.89,150.27,152.16,149.81,153.22,149.83Zm-1.2-4.7a5,5,0,0,1,2.65-4.58,3.73,3.73,0,0,1,4.69,1.57,6.47,6.47,0,0,1,.91,2.18c.27,1.26.1,1.49-1.2,1.5-.95,0-1.91,0-2.87,0H153C152.52,145.8,152.13,145.71,152,145.13Z"/><path class="cls-1" d="M89.19,151.59a33.14,33.14,0,0,0,1.64-4.94c.94-3.13,1.88-6.27,2.77-9.42A1.45,1.45,0,0,1,95.3,136a17.9,17.9,0,0,0,2.64,0c1.06-.07,1.21.3.89,1.26-2.51,7.42-5,14.85-7.46,22.27a26.51,26.51,0,0,1-2,4.61,7.51,7.51,0,0,1-5.45,4.09,7.61,7.61,0,0,1-3.18-.4.82.82,0,0,1-.54-.42,13.35,13.35,0,0,1-.06-4c0-.44.52-.27.81-.19,1.88.58,3.15-.2,4.1-1.78,1.12-1.88,1.66-3.63.75-5.94-2.32-5.9-4.31-11.94-6.44-17.92-.52-1.48-.5-1.52,1.1-1.53,4,0,4,0,5.07,3.75q1.58,5.22,3.16,10.44C88.81,150.54,89,150.91,89.19,151.59Z"/><path class="cls-1" d="M101.9,148.59c0-3,0-6.07,0-9.1a1.75,1.75,0,0,1,1.17-1.84,20.2,20.2,0,0,1,10.49-1.87c4.77.45,7.82,3.91,8,9.19.11,4.31,0,8.63,0,12.94,0,.91-.34,1.32-1.27,1.29a23.25,23.25,0,0,0-2.64,0c-1,.07-1.39-.37-1.38-1.4,0-4,0-8.06,0-12.1,0-4.28-1.63-5.26-5.83-5-3.29.18-3.28.36-3.28,3.69,0,4.43,0,8.86,0,13.3,0,1.12-.34,1.63-1.51,1.54a21.19,21.19,0,0,0-2.52,0c-.92.05-1.27-.33-1.26-1.26C101.92,154.82,101.9,151.71,101.9,148.59Z"/><path class="cls-1" d="M169.73,148.44c0-3,0-6.07,0-9.1a1.58,1.58,0,0,1,1.19-1.79,34.94,34.94,0,0,1,8.27-1.82c1-.07,1.43.26,1.36,1.27-.05.84,0,1.68,0,2.52s-.32,1-1,1a21.63,21.63,0,0,0-3.21.38c-1,.12-1.33.61-1.32,1.59,0,4.91,0,9.81,0,14.72,0,2,0,2-2,2-3.25,0-3.25,0-3.25-3.21Z"/></svg>