<svg id="Layer_1" data-name="Layer 1" xmlns="http://www.w3.org/2000/svg" viewBox="0 0 265 217.77"><defs><style>.cls-1{fill:#131313;}</style></defs><path class="cls-1" d="M263.05,0c1.58.84,2,2.16,2,3.92q-.07,24.95,0,49.9a5.3,5.3,0,0,1-2.94,5.09q-21.8,12.45-43.54,25c-2.74,1.58-4.92.32-4.92-2.86q0-25.17,0-50.34a5.16,5.16,0,0,1,2.88-4.91Q238.16,13.43,259.76,1c.58-.33,1.16-.64,1.74-1Z"/><path class="cls-1" d="M32.79,184.38c-.2-5-1.91-9.18-5.95-12.28-7.47-5.74-22.71-3.59-26.25,9.67a10.85,10.85,0,0,1-.65,2.64v5.3c.28.21.2.53.25.81A16.51,16.51,0,0,0,5,200a17.27,17.27,0,0,0,11.75,4.6,21,21,0,0,0,14.54-4.8,1.33,1.33,0,0,0,.33-2.08c-.45-.62-.84-1.29-1.26-1.94-1-1.5-1.09-1.52-2.57-.51a17.57,17.57,0,0,1-9.88,3.35c-6,.09-10.27-3.17-11.47-8.87-.33-1.59-.33-1.59,1.27-1.59h23.4c1.4,0,1.68-.28,1.69-1.68C32.81,185.77,32.82,185.07,32.79,184.38Zm-7.5-1.5c-2.94,0-5.88,0-8.83,0s-5.88,0-8.82,0c-.87,0-1-.23-.69-1a9.93,9.93,0,0,1,8.86-6.74,11.5,11.5,0,0,1,5.54.65,7.71,7.71,0,0,1,4.88,6C26.4,182.56,26.25,182.91,25.29,182.88Z"/><path class="cls-1" d="M200.3,65.23c0,5.82,0,11.63,0,17.44,0,2.39-1.48,3.25-3.55,2.06Q181.58,76,166.42,67.28a3.58,3.58,0,0,1-1.83-3.48q0-14.91,0-29.81c0-1.69,0-3.39,0-5.08,0-2.13,1.5-3,3.34-1.92q15.27,8.76,30.52,17.55a3.4,3.4,0,0,1,1.84,3.25C200.29,53.61,200.3,59.42,200.3,65.23Z"/><path class="cls-1" d="M72.16,170.93c0-1.28-.37-1.53-1.55-1.13-.8.28-1.57.64-2.38.87-1.4.39-2.52,1-2.24,2.81a14.86,14.86,0,0,0-4-2.87A17.4,17.4,0,0,0,42,174.82c-3.84,4.4-5,9.62-4.08,15.26,1,6.25,4.09,11.1,10.19,13.35s12.16,1.53,17.4-2.84c.1-.08.21-.22.41-.11a2.33,2.33,0,0,1,.12,1.26c0,4.6,0,9.2,0,13.8,0,.33,0,.66,0,1,0,.84.35,1.28,1.28,1.23s1.84,0,2.75,0c2,0,2,0,2-2V170.93Zm-6.5,19.85c-1.31,5-5.25,7.85-10.65,7.84-6.27,0-10.79-4.37-11.09-10.75-.17-3.41.38-6.66,2.77-9.26,3.4-3.69,7.69-4.31,12.25-2.93,4.39,1.33,6.49,4.67,7.08,9.09A15.4,15.4,0,0,1,65.66,190.78Z"/><path class="cls-1" d="M181.71,169.15c-10.05,0-17.4,7.54-17.35,17.78s7.41,17.73,17.45,17.7,17.36-7.52,17.33-17.8S191.81,169.13,181.71,169.15Zm8.92,25.23c-2.87,3.86-6.85,5-11.37,4.05s-7.19-3.88-8.32-8.3a17.39,17.39,0,0,1-.37-3.31c.15-4.24,1.49-7.83,5.18-10.13a11.12,11.12,0,0,1,17.07,8.58A12.76,12.76,0,0,1,190.63,194.38Z"/><path class="cls-1" d="M172.25,110.41A2.36,2.36,0,0,1,171,110q-9-5.19-17.95-10.38c-1.36-.79-1.34-1.76,0-2.55Q162,91.9,170.93,86.73a2.35,2.35,0,0,1,2.59,0q8.92,5.18,17.85,10.33c1.43.83,1.41,1.77,0,2.61l-17.76,10.27A2.68,2.68,0,0,1,172.25,110.41Z"/><path class="cls-1" d="M135.2,173.69a13.2,13.2,0,0,1,7.94-4.38c8.12-1.34,14.92,3.78,15.86,12a33.53,33.53,0,0,1,.21,3.75c0,5.66,0,11.33,0,17,0,1.53-.25,1.77-1.81,1.78h-2.65c-1.33,0-1.61-.29-1.62-1.64,0-5.62,0-11.25,0-16.88a16.61,16.61,0,0,0-.19-3.08c-1-5.71-6.33-8.56-12-6.5a8.14,8.14,0,0,0-5.52,7.09,19.38,19.38,0,0,0-.14,2.64c0,5.45,0,10.89,0,16.34,0,1.93-.11,2-2.09,2-.84,0-1.69,0-2.54,0s-1.42-.39-1.42-1.39q0-14.9,0-29.8a1.39,1.39,0,0,1,1-1.51c1.25-.43,2.49-.9,3.74-1.36.84-.31,1.28,0,1.29.87S135.2,172.66,135.2,173.69Z"/><path class="cls-1" d="M102.51,199.89a5,5,0,0,0-.52.45c-4.28,5.56-13.85,5.4-18.57,1.29a14.21,14.21,0,0,1-4.8-10.88c-.14-6,0-12.07-.06-18.11a1.47,1.47,0,0,1,1.08-1.58c1.19-.4,2.35-.86,3.53-1.26s1.42-.16,1.42,1.12c0,4.53,0,9.06,0,13.58a62.14,62.14,0,0,0,.13,6.4c.55,4.95,3.87,7.84,8.9,7.72s8.65-3.35,8.79-8.2c.16-5.37.07-10.74.08-16.12,0-.47,0-1,0-1.43a1.65,1.65,0,0,1,1.3-1.89c1.16-.36,2.28-.83,3.43-1.22,1-.31,1.29-.06,1.36.93,0,.22,0,.45,0,.67v30.47c0,1.77-.2,2-2,2-.88,0-1.76,0-2.65,0s-1.51-.43-1.49-1.45C102.52,201.63,102.51,200.89,102.51,199.89Z"/><path class="cls-1" d="M204.29,187.52c0-4.82,0-9.64,0-14.46a1.89,1.89,0,0,1,1.55-2.16c.92-.24,1.8-.64,2.7-1,1.6-.58,1.84-.41,1.85,1.34,0,1.58,0,3.16,0,4.75,0,.36-.16.84.15,1s.67-.19,1-.37l11.58-6.88c1.34-.8,1.72-.66,2.3.78.29.72.51,1.47.86,2.15.49,1,.16,1.54-.71,2.07-4.15,2.52-8.2,5.22-12.45,7.57a4.69,4.69,0,0,0-2.77,5c.22,4.85.07,9.71.06,14.57,0,1.62-.23,1.83-1.87,1.83h-2.65c-1.25,0-1.55-.32-1.55-1.59Q204.28,194.88,204.29,187.52Z"/><path class="cls-1" d="M200.3,118.57c0,2.21,0,4.41,0,6.62a1.81,1.81,0,0,1-1,1.78c-3.89,2.22-7.77,4.47-11.66,6.7-1.08.61-1.62.32-1.62-.89,0-4.52,0-9,0-13.56a1.69,1.69,0,0,1,.93-1.61c3.93-2.25,7.84-4.52,11.76-6.76,1.12-.64,1.6-.33,1.61,1C200.31,114.09,200.3,116.33,200.3,118.57Z"/><path class="cls-1" d="M121.89,186.51c0,5.19,0,10.38,0,15.57,0,1.48-.24,1.71-1.73,1.72h-2.43c-1.69,0-1.86-.17-1.86-1.81q0-5.75,0-11.49c0-5.81,0-11.63,0-17.44,0-1.19.35-1.87,1.53-2.16.85-.22,1.66-.59,2.49-.89,1.9-.69,2-.59,2,1.48Q121.91,179,121.89,186.51Z"/><path class="cls-1" d="M224.37,121.75c0,1.47,0,2.94,0,4.41s-.75,1.81-1.92,1.14c-2.56-1.45-5.09-3-7.65-4.4a2,2,0,0,1-1.13-1.86c0-3,0-6,0-8.94,0-1.32.74-1.74,1.87-1.1,2.59,1.47,5.16,3,7.75,4.45a2,2,0,0,1,1.09,2c0,1.44,0,2.87,0,4.31Z"/><path class="cls-1" d="M231.08,104.24a2.09,2.09,0,0,1-1.23-.41c-2.48-1.44-5-2.86-7.45-4.31-1.31-.77-1.31-1.59,0-2.34,2.48-1.45,5-2.86,7.44-4.32a2.18,2.18,0,0,1,2.47,0c2.44,1.44,4.9,2.83,7.34,4.26,1.37.8,1.38,1.61,0,2.41-2.48,1.45-5,2.87-7.45,4.3A2.16,2.16,0,0,1,231.08,104.24Z"/><path class="cls-1" d="M122.11,160.91c-.07,4,.61,3.23-3.33,4.55-.66.22-1.31.45-2,.62s-1.1-.12-1.11-.83c0-1.72,0-3.44,0-5.17a1.08,1.08,0,0,1,.83-1c1.37-.51,2.74-1,4.13-1.51,1-.34,1.44,0,1.47,1.07C122.13,159.37,122.11,160.14,122.11,160.91Z"/></svg>