<svg id="Layer_1" data-name="Layer 1" xmlns="http://www.w3.org/2000/svg" viewBox="0 0 265 86.56"><defs><style>.cls-1{fill:#131313;}</style></defs><path class="cls-1" d="M263.48,83.32q-1.94-5.35-3.86-10.69-2.46-6.81-4.9-13.6-1.92-5.34-3.86-10.69-2.66-7.35-5.3-14.71L242.09,24q-2.43-6.72-4.85-13.45C236.05,7.28,234.89,4,233.69.73a1.34,1.34,0,0,0-.43-.62H205.14c0,.18-.11.36-.17.54L174.31,85.94c-.22.61-.22.61.4.61h24.92a.61.61,0,0,0,.71-.52c1-3.53,2-7.05,3-10.57a.63.63,0,0,1,.74-.55q14.65,0,29.3,0a.59.59,0,0,1,.7.52c1,3.48,2.11,7,3.14,10.44.15.51.35.69.9.68q13.11,0,26.21,0v-.1A16.18,16.18,0,0,0,263.48,83.32ZM229,58.32H209c-.66,0-.67,0-.48-.64q5-17.34,10-34.67a.67.67,0,0,1,.24-.49c.22.73.44,1.42.65,2.12q4.94,16.47,9.86,33c0,.09,0,.2.09.29C229.54,58.25,229.37,58.35,229,58.32Z"/><path class="cls-1" d="M187.43.11a8.11,8.11,0,0,1-.5,1.46c-2.1,5.6-4.21,11.2-6.29,16.8a.73.73,0,0,1-.81.56H149.09c-.76,0-.76,0-.76.74V35.71c0,.73,0,.73.71.73H173.8a2.8,2.8,0,0,0,.41,0c.46-.06.47.13.33.5-.86,2.15-1.7,4.3-2.55,6.45-1.49,3.78-3,7.56-4.44,11.35a.84.84,0,0,1-.94.62c-5.87,0-11.74,0-17.61,0-.67,0-.67,0-.67.67V85.8c0,.75,0,.75-.75.75H121.83c-.87,0-.8.14-.8-.79V.94c0-.28,0-.55,0-.83Z"/><path class="cls-1" d="M67,.11A1.85,1.85,0,0,1,66.8.9q-3.24,8.72-6.48,17.44a.75.75,0,0,1-.84.59H28.74c-.73,0-.73,0-.73.72v16.1c0,.7,0,.7.73.7h25c.67,0,.67,0,.43.62q-3.47,8.86-6.91,17.72a.77.77,0,0,1-.86.58c-5.89,0-11.77,0-17.66,0-.7,0-.7,0-.7.69V85.83c0,.82.06.72-.71.72H1.4c-.69,0-.7,0-.7-.68V.11Z"/><path class="cls-1" d="M102.36.11c0,.23,0,.45,0,.67q0,42.5,0,85c0,.92.06.79-.81.79H76.09c-.7,0-.7,0-.7-.68l0-46q0-19.5,0-39c0-.26,0-.52,0-.78Z"/></svg>