<svg id="Layer_1" data-name="Layer 1" xmlns="http://www.w3.org/2000/svg" viewBox="0 0 265 265"><defs><style>.cls-1{fill:#131313;}</style></defs><path class="cls-1" d="M109.67,142.58c.28.25.11.68.06,1-.72,4.85-1.58,9.66-2.77,14.42a81,81,0,0,1-5.15,15,37.87,37.87,0,0,1-7.72,11.31,20.64,20.64,0,0,1-11.25,5.76,20.86,20.86,0,0,1-2.5.17,8.58,8.58,0,0,1-5.41-1.44c-2.49-1.75-3.39-4.33-3.49-7.22a21.19,21.19,0,0,1,3.36-11.54,44.22,44.22,0,0,1,7.84-9.61,103,103,0,0,1,21.51-15.31c1.47-.81,3-1.58,4.44-2.35C108.92,142.63,109.3,142.26,109.67,142.58Z"/><path class="cls-1" d="M94,102.68c-.28.19-.55.47-1,.31a6.27,6.27,0,0,1,0-2.44,51.28,51.28,0,0,1,4.34-14.26,50.11,50.11,0,0,1,6.07-10.37,20,20,0,0,1,3.56-3.73,8.12,8.12,0,0,1,2.64-1.49,3.6,3.6,0,0,1,5,3.32A10.34,10.34,0,0,1,114,77.8a31.84,31.84,0,0,1-3.66,7.62,60.16,60.16,0,0,1-13.85,15.52C95.67,101.58,94.81,102.12,94,102.68Z"/><path class="cls-1" d="M162.44,97.5a10.19,10.19,0,0,1,.13-3.18,38,38,0,0,1,7.21-18.94,15.46,15.46,0,0,1,3.76-3.68,6.57,6.57,0,0,1,2.41-1A3.3,3.3,0,0,1,180,73.76a8.3,8.3,0,0,1-.71,3.47,27.76,27.76,0,0,1-3.58,6.32A89.17,89.17,0,0,1,163.38,97,1.55,1.55,0,0,1,162.44,97.5Z"/><path class="cls-1" d="M250.15,118.39a121.05,121.05,0,0,0-6.3-26.6C238.23,76.42,229.76,63,217.53,52A86.78,86.78,0,0,0,197.6,38.58a113.26,113.26,0,0,0-23.48-8.11,70.25,70.25,0,0,0-20-2.06,32.86,32.86,0,0,0-12,2.61,37.07,37.07,0,0,0-8,5.16,32.74,32.74,0,0,1-3.32,2.42,11.06,11.06,0,0,1-8.09,1.68,8.7,8.7,0,0,1-7.19-7.78A10.83,10.83,0,0,1,118,24.84,19.19,19.19,0,0,1,126.5,19a41.34,41.34,0,0,1,14.14-2.46,81.6,81.6,0,0,1,9.25.43,82.73,82.73,0,0,1,15.22,2.79c1.31.38,2.6.83,3.91,1.23.37.12.83.37,1-.15s-.31-.74-.7-.9-1-.38-1.49-.55A115.69,115.69,0,0,0,139,14.13a120.07,120.07,0,0,0-30.55,2.34A107.8,107.8,0,0,0,67.22,34,88.81,88.81,0,0,0,39.08,66.51a109.92,109.92,0,0,0-8.52,24.17,71.93,71.93,0,0,0-2.13,20.2,31.6,31.6,0,0,0,6.84,19,51.88,51.88,0,0,1,3.36,4.59,11.94,11.94,0,0,1,1.66,4.15,8.87,8.87,0,0,1-10.81,10.64,13,13,0,0,1-8.2-6,27.12,27.12,0,0,1-3.65-9c-1.39-6.19-1.27-12.46-.69-18.71a97.54,97.54,0,0,1,3.69-19.07c.05-.18.1-.35.14-.52.07-.35.12-.76-.33-.87s-.55.22-.67.52c-.16.45-.33.91-.46,1.37A127.34,127.34,0,0,0,14,131a115.91,115.91,0,0,0,1,16.76,114.28,114.28,0,0,0,8.24,31.13,95.66,95.66,0,0,0,23.84,34,85.89,85.89,0,0,0,24.66,15.76c10.57,4.37,21.47,7.53,33,8.28a53.27,53.27,0,0,0,9.11-.22A29,29,0,0,0,129.5,230c1.29-1.08,2.6-2.12,4-3.11a11.22,11.22,0,0,1,7.15-2.35,9,9,0,0,1,8.66,7.22,10.27,10.27,0,0,1-2.78,9.26,18.29,18.29,0,0,1-6.61,4.53,39.34,39.34,0,0,1-14.32,2.88,80.24,80.24,0,0,1-10.85-.44,93.87,93.87,0,0,1-18.41-3.62c-.45-.14-1.1-.58-1.34.18s.48.75.91.92a47.17,47.17,0,0,0,6.18,2c9.93,2.54,20.07,3.48,31.17,3.63,2.91-.13,6.71-.18,10.49-.53a121.54,121.54,0,0,0,21.72-4,102,102,0,0,0,38.51-19.92,87,87,0,0,0,24-32,120.32,120.32,0,0,0,6.58-20.11,67.6,67.6,0,0,0,2-22.18,30.3,30.3,0,0,0-5.94-15.91c-1.13-1.46-2.28-2.92-3.37-4.42a12.12,12.12,0,0,1-2.51-5.9c-.79-6.91,4.29-11.58,10.68-10.36a12,12,0,0,1,7.14,4.48,26.22,26.22,0,0,1,5.08,11.66,62.08,62.08,0,0,1,.43,19.24A101.16,101.16,0,0,1,244.4,169c-.07.25-.15.5-.2.76a.52.52,0,0,0,.32.65.48.48,0,0,0,.65-.3,10.51,10.51,0,0,0,.53-1.35A116.35,116.35,0,0,0,250.94,139,120.44,120.44,0,0,0,250.15,118.39ZM197.64,190a33.45,33.45,0,0,1-22.57,11.54c-9.84.94-19-1.18-26.9-7.36A38.24,38.24,0,0,1,136,177.45a44.39,44.39,0,0,1-3.08-18c.33-9.68,3-18.59,8.94-26.4a48.76,48.76,0,0,1,14.69-12.77l1.73-1c.36-.2.54-.47.17-.82a18.18,18.18,0,0,1-2.74-3.38c-.3-.48-.63-.38-1-.12-.68.49-1.38,1-2.06,1.45a340.85,340.85,0,0,1-29.34,18.48,4.09,4.09,0,0,1-.57.32,2.08,2.08,0,0,0-1.27,2.09c-.6,9.21-1.28,18.41-3.46,27.42a58.7,58.7,0,0,1-11.68,24c-4.67,5.66-10.35,10-17.55,12a28.68,28.68,0,0,1-12.59.73c-8.63-1.4-14.69-7.41-16.43-16a26.88,26.88,0,0,1,2-16,45.45,45.45,0,0,1,13.78-17.67,127.12,127.12,0,0,1,17.85-11.86c5.39-3,10.86-5.9,16.37-8.7a2.78,2.78,0,0,0,1.72-2.4c.15-1.61.47-3.21.75-5a3.79,3.79,0,0,0-1.47.83,22.13,22.13,0,0,1-15.22,3.71A14.64,14.64,0,0,1,86.26,123a17.23,17.23,0,0,1-3.81-6.9,1.72,1.72,0,0,0-1.68-1.46c-6.07-.81-10.92-3.66-14.12-9a22.1,22.1,0,0,1-2.81-13.9,23.1,23.1,0,0,1,1.55-6.55,12,12,0,0,1,3.08-4.57,5.78,5.78,0,0,1,4.13-1.5,2.68,2.68,0,0,1,2.78,2.47,6.26,6.26,0,0,1-.15,2.24c-.46,2.06-1,4.11-1.32,6.21a17.16,17.16,0,0,0,1,9.61,8.2,8.2,0,0,0,3,3.65,6.22,6.22,0,0,0,2.31,1c1.24.25,1.47.06,1.55-1.18a55.73,55.73,0,0,1,11.71-31.4,31.49,31.49,0,0,1,9.77-8.6,18.51,18.51,0,0,1,12.13-2.2,10.54,10.54,0,0,1,9.31,9.72,25.83,25.83,0,0,1-1,9.81,46.88,46.88,0,0,1-7.94,15.61A56,56,0,0,1,99.4,111a37.94,37.94,0,0,1-4.88,2.38c-.93.38-1,.56-.64,1.5a6.29,6.29,0,0,0,7.31,4.28,18.3,18.3,0,0,0,6.82-2.79,31.93,31.93,0,0,0,6.21-5.14,5,5,0,0,0,1.29-2.4,32.67,32.67,0,0,1,6.16-13.07,13.74,13.74,0,0,1,3.76-3.29,7.29,7.29,0,0,1,4.93-1.12,4.1,4.1,0,0,1,3.57,3.87,9.69,9.69,0,0,1-.57,4.29,30.1,30.1,0,0,1-4.26,7.45,67.72,67.72,0,0,1-4.74,5.69,4.19,4.19,0,0,0-1.08,2.22,71.74,71.74,0,0,0-1,8c0,.3,0,.61,0,.92,0,.5.27.62.69.4.2-.1.38-.22.58-.34,8.25-4.94,16.49-9.92,24.36-15.48,1-.74,2.06-1.5,3.12-2.24a1.16,1.16,0,0,0,.5-1.34c-1.85-12.66.89-24.21,8.64-34.46a24,24,0,0,1,11.72-8.71,17.28,17.28,0,0,1,8.23-.69A11.82,11.82,0,0,1,190.33,72.6a25,25,0,0,1-3.6,13.24A47.32,47.32,0,0,1,180,94.69,114.82,114.82,0,0,1,166,107.14c-1.47,1.12-1.48,1.12-.63,2.79a13.16,13.16,0,0,0,3.26,4.12,2.61,2.61,0,0,0,2.68.55,26.12,26.12,0,0,1,8.88-1.19,20.13,20.13,0,0,1,6.32,1.31,8.35,8.35,0,0,1,2.79,1.74,4.46,4.46,0,0,1-.06,6.5,7.63,7.63,0,0,1-3.5,1.8,27.91,27.91,0,0,1-9.06.73,53.49,53.49,0,0,1-5.92-.61,3.49,3.49,0,0,0-1.81.29,30.6,30.6,0,0,0-11,6.46,33.47,33.47,0,0,0-10.67,19.92,40.24,40.24,0,0,0,1,19.25c1.92,6,5.08,11.24,10.25,15.07a22,22,0,0,0,33.62-9.25,24.29,24.29,0,0,0,1.15-16.08,15.76,15.76,0,0,0-4.56-7.92,10.94,10.94,0,0,0-12.23-1.56,8.48,8.48,0,0,0-3.52,11.51,15.54,15.54,0,0,0,2.07,2.89c.49.58,1,1.15,1.45,1.74a6.27,6.27,0,0,1,1.23,2.46,4.57,4.57,0,0,1-3.37,5.72,8.3,8.3,0,0,1-4.45-.16,11.89,11.89,0,0,1-6.63-4.79,18.78,18.78,0,0,1-3.39-11.87,19,19,0,0,1,6.61-14.08,21.07,21.07,0,0,1,10.56-5.2c6.72-1.24,13-.26,18.64,3.82a24.37,24.37,0,0,1,8.83,12.44C208.71,168.28,206.56,179.85,197.64,190Z"/><path class="cls-1" d="M132.66-.39C58.82-.47-.26,59.55-.37,132.31A132.8,132.8,0,0,0,132.46,265.39c74.24.05,133.16-60.3,132.91-132.81C265.7,60.73,207.21-.31,132.66-.39Zm-.41,259.53C62.21,259,5.68,201.9,5.93,132.42,5.77,63.06,62.25,5.82,132.66,5.85c69.53,0,126.57,56.74,126.52,126.77C259.12,203.19,201.65,259.33,132.25,259.14Z"/><path class="cls-1" d="M109.67,142.58c.28.25.11.68.06,1-.72,4.85-1.58,9.66-2.77,14.42a81,81,0,0,1-5.15,15,37.87,37.87,0,0,1-7.72,11.31,20.64,20.64,0,0,1-11.25,5.76,20.86,20.86,0,0,1-2.5.17,8.58,8.58,0,0,1-5.41-1.44c-2.49-1.75-3.39-4.33-3.49-7.22a21.19,21.19,0,0,1,3.36-11.54,44.22,44.22,0,0,1,7.84-9.61,103,103,0,0,1,21.51-15.31c1.47-.81,3-1.58,4.44-2.35C108.92,142.63,109.3,142.26,109.67,142.58Z"/><path class="cls-1" d="M94,102.68c-.28.19-.55.47-1,.31a6.27,6.27,0,0,1,0-2.44,51.28,51.28,0,0,1,4.34-14.26,50.11,50.11,0,0,1,6.07-10.37,20,20,0,0,1,3.56-3.73,8.12,8.12,0,0,1,2.64-1.49,3.6,3.6,0,0,1,5,3.32A10.34,10.34,0,0,1,114,77.8a31.84,31.84,0,0,1-3.66,7.62,60.16,60.16,0,0,1-13.85,15.52C95.67,101.58,94.81,102.12,94,102.68Z"/><path class="cls-1" d="M162.44,97.5a10.19,10.19,0,0,1,.13-3.18,38,38,0,0,1,7.21-18.94,15.46,15.46,0,0,1,3.76-3.68,6.57,6.57,0,0,1,2.41-1A3.3,3.3,0,0,1,180,73.76a8.3,8.3,0,0,1-.71,3.47,27.76,27.76,0,0,1-3.58,6.32A89.17,89.17,0,0,1,163.38,97,1.55,1.55,0,0,1,162.44,97.5Z"/><path class="cls-1" d="M250.15,118.39a121.05,121.05,0,0,0-6.3-26.6C238.23,76.42,229.76,63,217.53,52A86.78,86.78,0,0,0,197.6,38.58a113.26,113.26,0,0,0-23.48-8.11,70.25,70.25,0,0,0-20-2.06,32.86,32.86,0,0,0-12,2.61,37.07,37.07,0,0,0-8,5.16,32.74,32.74,0,0,1-3.32,2.42,11.06,11.06,0,0,1-8.09,1.68,8.7,8.7,0,0,1-7.19-7.78A10.83,10.83,0,0,1,118,24.84,19.19,19.19,0,0,1,126.5,19a41.34,41.34,0,0,1,14.14-2.46,81.6,81.6,0,0,1,9.25.43,82.73,82.73,0,0,1,15.22,2.79c1.31.38,2.6.83,3.91,1.23.37.12.83.37,1-.15s-.31-.74-.7-.9-1-.38-1.49-.55A115.69,115.69,0,0,0,139,14.13a120.07,120.07,0,0,0-30.55,2.34A107.8,107.8,0,0,0,67.22,34,88.81,88.81,0,0,0,39.08,66.51a109.92,109.92,0,0,0-8.52,24.17,71.93,71.93,0,0,0-2.13,20.2,31.6,31.6,0,0,0,6.84,19,51.88,51.88,0,0,1,3.36,4.59,11.94,11.94,0,0,1,1.66,4.15,8.87,8.87,0,0,1-10.81,10.64,13,13,0,0,1-8.2-6,27.12,27.12,0,0,1-3.65-9c-1.39-6.19-1.27-12.46-.69-18.71a97.54,97.54,0,0,1,3.69-19.07c.05-.18.1-.35.14-.52.07-.35.12-.76-.33-.87s-.55.22-.67.52c-.16.45-.33.91-.46,1.37A127.34,127.34,0,0,0,14,131a115.91,115.91,0,0,0,1,16.76,114.28,114.28,0,0,0,8.24,31.13,95.66,95.66,0,0,0,23.84,34,85.89,85.89,0,0,0,24.66,15.76c10.57,4.37,21.47,7.53,33,8.28a53.27,53.27,0,0,0,9.11-.22A29,29,0,0,0,129.5,230c1.29-1.08,2.6-2.12,4-3.11a11.22,11.22,0,0,1,7.15-2.35,9,9,0,0,1,8.66,7.22,10.27,10.27,0,0,1-2.78,9.26,18.29,18.29,0,0,1-6.61,4.53,39.34,39.34,0,0,1-14.32,2.88,80.24,80.24,0,0,1-10.85-.44,93.87,93.87,0,0,1-18.41-3.62c-.45-.14-1.1-.58-1.34.18s.48.75.91.92a47.17,47.17,0,0,0,6.18,2c9.93,2.54,20.07,3.48,31.17,3.63,2.91-.13,6.71-.18,10.49-.53a121.54,121.54,0,0,0,21.72-4,102,102,0,0,0,38.51-19.92,87,87,0,0,0,24-32,120.32,120.32,0,0,0,6.58-20.11,67.6,67.6,0,0,0,2-22.18,30.3,30.3,0,0,0-5.94-15.91c-1.13-1.46-2.28-2.92-3.37-4.42a12.12,12.12,0,0,1-2.51-5.9c-.79-6.91,4.29-11.58,10.68-10.36a12,12,0,0,1,7.14,4.48,26.22,26.22,0,0,1,5.08,11.66,62.08,62.08,0,0,1,.43,19.24A101.16,101.16,0,0,1,244.4,169c-.07.25-.15.5-.2.76a.52.52,0,0,0,.32.65.48.48,0,0,0,.65-.3,10.51,10.51,0,0,0,.53-1.35A116.35,116.35,0,0,0,250.94,139,120.44,120.44,0,0,0,250.15,118.39ZM197.64,190a33.45,33.45,0,0,1-22.57,11.54c-9.84.94-19-1.18-26.9-7.36A38.24,38.24,0,0,1,136,177.45a44.39,44.39,0,0,1-3.08-18c.33-9.68,3-18.59,8.94-26.4a48.76,48.76,0,0,1,14.69-12.77l1.73-1c.36-.2.54-.47.17-.82a18.18,18.18,0,0,1-2.74-3.38c-.3-.48-.63-.38-1-.12-.68.49-1.38,1-2.06,1.45a340.85,340.85,0,0,1-29.34,18.48,4.09,4.09,0,0,1-.57.32,2.08,2.08,0,0,0-1.27,2.09c-.6,9.21-1.28,18.41-3.46,27.42a58.7,58.7,0,0,1-11.68,24c-4.67,5.66-10.35,10-17.55,12a28.68,28.68,0,0,1-12.59.73c-8.63-1.4-14.69-7.41-16.43-16a26.88,26.88,0,0,1,2-16,45.45,45.45,0,0,1,13.78-17.67,127.12,127.12,0,0,1,17.85-11.86c5.39-3,10.86-5.9,16.37-8.7a2.78,2.78,0,0,0,1.72-2.4c.15-1.61.47-3.21.75-5a3.79,3.79,0,0,0-1.47.83,22.13,22.13,0,0,1-15.22,3.71A14.64,14.64,0,0,1,86.26,123a17.23,17.23,0,0,1-3.81-6.9,1.72,1.72,0,0,0-1.68-1.46c-6.07-.81-10.92-3.66-14.12-9a22.1,22.1,0,0,1-2.81-13.9,23.1,23.1,0,0,1,1.55-6.55,12,12,0,0,1,3.08-4.57,5.78,5.78,0,0,1,4.13-1.5,2.68,2.68,0,0,1,2.78,2.47,6.26,6.26,0,0,1-.15,2.24c-.46,2.06-1,4.11-1.32,6.21a17.16,17.16,0,0,0,1,9.61,8.2,8.2,0,0,0,3,3.65,6.22,6.22,0,0,0,2.31,1c1.24.25,1.47.06,1.55-1.18a55.73,55.73,0,0,1,11.71-31.4,31.49,31.49,0,0,1,9.77-8.6,18.51,18.51,0,0,1,12.13-2.2,10.54,10.54,0,0,1,9.31,9.72,25.83,25.83,0,0,1-1,9.81,46.88,46.88,0,0,1-7.94,15.61A56,56,0,0,1,99.4,111a37.94,37.94,0,0,1-4.88,2.38c-.93.38-1,.56-.64,1.5a6.29,6.29,0,0,0,7.31,4.28,18.3,18.3,0,0,0,6.82-2.79,31.93,31.93,0,0,0,6.21-5.14,5,5,0,0,0,1.29-2.4,32.67,32.67,0,0,1,6.16-13.07,13.74,13.74,0,0,1,3.76-3.29,7.29,7.29,0,0,1,4.93-1.12,4.1,4.1,0,0,1,3.57,3.87,9.69,9.69,0,0,1-.57,4.29,30.1,30.1,0,0,1-4.26,7.45,67.72,67.72,0,0,1-4.74,5.69,4.19,4.19,0,0,0-1.08,2.22,71.74,71.74,0,0,0-1,8c0,.3,0,.61,0,.92,0,.5.27.62.69.4.2-.1.38-.22.58-.34,8.25-4.94,16.49-9.92,24.36-15.48,1-.74,2.06-1.5,3.12-2.24a1.16,1.16,0,0,0,.5-1.34c-1.85-12.66.89-24.21,8.64-34.46a24,24,0,0,1,11.72-8.71,17.28,17.28,0,0,1,8.23-.69A11.82,11.82,0,0,1,190.33,72.6a25,25,0,0,1-3.6,13.24A47.32,47.32,0,0,1,180,94.69,114.82,114.82,0,0,1,166,107.14c-1.47,1.12-1.48,1.12-.63,2.79a13.16,13.16,0,0,0,3.26,4.12,2.61,2.61,0,0,0,2.68.55,26.12,26.12,0,0,1,8.88-1.19,20.13,20.13,0,0,1,6.32,1.31,8.35,8.35,0,0,1,2.79,1.74,4.46,4.46,0,0,1-.06,6.5,7.63,7.63,0,0,1-3.5,1.8,27.91,27.91,0,0,1-9.06.73,53.49,53.49,0,0,1-5.92-.61,3.49,3.49,0,0,0-1.81.29,30.6,30.6,0,0,0-11,6.46,33.47,33.47,0,0,0-10.67,19.92,40.24,40.24,0,0,0,1,19.25c1.92,6,5.08,11.24,10.25,15.07a22,22,0,0,0,33.62-9.25,24.29,24.29,0,0,0,1.15-16.08,15.76,15.76,0,0,0-4.56-7.92,10.94,10.94,0,0,0-12.23-1.56,8.48,8.48,0,0,0-3.52,11.51,15.54,15.54,0,0,0,2.07,2.89c.49.58,1,1.15,1.45,1.74a6.27,6.27,0,0,1,1.23,2.46,4.57,4.57,0,0,1-3.37,5.72,8.3,8.3,0,0,1-4.45-.16,11.89,11.89,0,0,1-6.63-4.79,18.78,18.78,0,0,1-3.39-11.87,19,19,0,0,1,6.61-14.08,21.07,21.07,0,0,1,10.56-5.2c6.72-1.24,13-.26,18.64,3.82a24.37,24.37,0,0,1,8.83,12.44C208.71,168.28,206.56,179.85,197.64,190Z"/><path class="cls-1" d="M109.67,142.58c.28.25.11.68.06,1-.72,4.85-1.58,9.66-2.77,14.42a81,81,0,0,1-5.15,15,37.87,37.87,0,0,1-7.72,11.31,20.64,20.64,0,0,1-11.25,5.76,20.86,20.86,0,0,1-2.5.17,8.58,8.58,0,0,1-5.41-1.44c-2.49-1.75-3.39-4.33-3.49-7.22a21.19,21.19,0,0,1,3.36-11.54,44.22,44.22,0,0,1,7.84-9.61,103,103,0,0,1,21.51-15.31c1.47-.81,3-1.58,4.44-2.35C108.92,142.63,109.3,142.26,109.67,142.58Z"/><path class="cls-1" d="M94,102.68c-.28.19-.55.47-1,.31a6.27,6.27,0,0,1,0-2.44,51.28,51.28,0,0,1,4.34-14.26,50.11,50.11,0,0,1,6.07-10.37,20,20,0,0,1,3.56-3.73,8.12,8.12,0,0,1,2.64-1.49,3.6,3.6,0,0,1,5,3.32A10.34,10.34,0,0,1,114,77.8a31.84,31.84,0,0,1-3.66,7.62,60.16,60.16,0,0,1-13.85,15.52C95.67,101.58,94.81,102.12,94,102.68Z"/><path class="cls-1" d="M162.44,97.5a10.19,10.19,0,0,1,.13-3.18,38,38,0,0,1,7.21-18.94,15.46,15.46,0,0,1,3.76-3.68,6.57,6.57,0,0,1,2.41-1A3.3,3.3,0,0,1,180,73.76a8.3,8.3,0,0,1-.71,3.47,27.76,27.76,0,0,1-3.58,6.32A89.17,89.17,0,0,1,163.38,97,1.55,1.55,0,0,1,162.44,97.5Z"/><path class="cls-1" d="M250.15,118.39a121.05,121.05,0,0,0-6.3-26.6C238.23,76.42,229.76,63,217.53,52A86.78,86.78,0,0,0,197.6,38.58a113.26,113.26,0,0,0-23.48-8.11,70.25,70.25,0,0,0-20-2.06,32.86,32.86,0,0,0-12,2.61,37.07,37.07,0,0,0-8,5.16,32.74,32.74,0,0,1-3.32,2.42,11.06,11.06,0,0,1-8.09,1.68,8.7,8.7,0,0,1-7.19-7.78A10.83,10.83,0,0,1,118,24.84,19.19,19.19,0,0,1,126.5,19a41.34,41.34,0,0,1,14.14-2.46,81.6,81.6,0,0,1,9.25.43,82.73,82.73,0,0,1,15.22,2.79c1.31.38,2.6.83,3.91,1.23.37.12.83.37,1-.15s-.31-.74-.7-.9-1-.38-1.49-.55A115.69,115.69,0,0,0,139,14.13a120.07,120.07,0,0,0-30.55,2.34A107.8,107.8,0,0,0,67.22,34,88.81,88.81,0,0,0,39.08,66.51a109.92,109.92,0,0,0-8.52,24.17,71.93,71.93,0,0,0-2.13,20.2,31.6,31.6,0,0,0,6.84,19,51.88,51.88,0,0,1,3.36,4.59,11.94,11.94,0,0,1,1.66,4.15,8.87,8.87,0,0,1-10.81,10.64,13,13,0,0,1-8.2-6,27.12,27.12,0,0,1-3.65-9c-1.39-6.19-1.27-12.46-.69-18.71a97.54,97.54,0,0,1,3.69-19.07c.05-.18.1-.35.14-.52.07-.35.12-.76-.33-.87s-.55.22-.67.52c-.16.45-.33.91-.46,1.37A127.34,127.34,0,0,0,14,131a115.91,115.91,0,0,0,1,16.76,114.28,114.28,0,0,0,8.24,31.13,95.66,95.66,0,0,0,23.84,34,85.89,85.89,0,0,0,24.66,15.76c10.57,4.37,21.47,7.53,33,8.28a53.27,53.27,0,0,0,9.11-.22A29,29,0,0,0,129.5,230c1.29-1.08,2.6-2.12,4-3.11a11.22,11.22,0,0,1,7.15-2.35,9,9,0,0,1,8.66,7.22,10.27,10.27,0,0,1-2.78,9.26,18.29,18.29,0,0,1-6.61,4.53,39.34,39.34,0,0,1-14.32,2.88,80.24,80.24,0,0,1-10.85-.44,93.87,93.87,0,0,1-18.41-3.62c-.45-.14-1.1-.58-1.34.18s.48.75.91.92a47.17,47.17,0,0,0,6.18,2c9.93,2.54,20.07,3.48,31.17,3.63,2.91-.13,6.71-.18,10.49-.53a121.54,121.54,0,0,0,21.72-4,102,102,0,0,0,38.51-19.92,87,87,0,0,0,24-32,120.32,120.32,0,0,0,6.58-20.11,67.6,67.6,0,0,0,2-22.18,30.3,30.3,0,0,0-5.94-15.91c-1.13-1.46-2.28-2.92-3.37-4.42a12.12,12.12,0,0,1-2.51-5.9c-.79-6.91,4.29-11.58,10.68-10.36a12,12,0,0,1,7.14,4.48,26.22,26.22,0,0,1,5.08,11.66,62.08,62.08,0,0,1,.43,19.24A101.16,101.16,0,0,1,244.4,169c-.07.25-.15.5-.2.76a.52.52,0,0,0,.32.65.48.48,0,0,0,.65-.3,10.51,10.51,0,0,0,.53-1.35A116.35,116.35,0,0,0,250.94,139,120.44,120.44,0,0,0,250.15,118.39ZM197.64,190a33.45,33.45,0,0,1-22.57,11.54c-9.84.94-19-1.18-26.9-7.36A38.24,38.24,0,0,1,136,177.45a44.39,44.39,0,0,1-3.08-18c.33-9.68,3-18.59,8.94-26.4a48.76,48.76,0,0,1,14.69-12.77l1.73-1c.36-.2.54-.47.17-.82a18.18,18.18,0,0,1-2.74-3.38c-.3-.48-.63-.38-1-.12-.68.49-1.38,1-2.06,1.45a340.85,340.85,0,0,1-29.34,18.48,4.09,4.09,0,0,1-.57.32,2.08,2.08,0,0,0-1.27,2.09c-.6,9.21-1.28,18.41-3.46,27.42a58.7,58.7,0,0,1-11.68,24c-4.67,5.66-10.35,10-17.55,12a28.68,28.68,0,0,1-12.59.73c-8.63-1.4-14.69-7.41-16.43-16a26.88,26.88,0,0,1,2-16,45.45,45.45,0,0,1,13.78-17.67,127.12,127.12,0,0,1,17.85-11.86c5.39-3,10.86-5.9,16.37-8.7a2.78,2.78,0,0,0,1.72-2.4c.15-1.61.47-3.21.75-5a3.79,3.79,0,0,0-1.47.83,22.13,22.13,0,0,1-15.22,3.71A14.64,14.64,0,0,1,86.26,123a17.23,17.23,0,0,1-3.81-6.9,1.72,1.72,0,0,0-1.68-1.46c-6.07-.81-10.92-3.66-14.12-9a22.1,22.1,0,0,1-2.81-13.9,23.1,23.1,0,0,1,1.55-6.55,12,12,0,0,1,3.08-4.57,5.78,5.78,0,0,1,4.13-1.5,2.68,2.68,0,0,1,2.78,2.47,6.26,6.26,0,0,1-.15,2.24c-.46,2.06-1,4.11-1.32,6.21a17.16,17.16,0,0,0,1,9.61,8.2,8.2,0,0,0,3,3.65,6.22,6.22,0,0,0,2.31,1c1.24.25,1.47.06,1.55-1.18a55.73,55.73,0,0,1,11.71-31.4,31.49,31.49,0,0,1,9.77-8.6,18.51,18.51,0,0,1,12.13-2.2,10.54,10.54,0,0,1,9.31,9.72,25.83,25.83,0,0,1-1,9.81,46.88,46.88,0,0,1-7.94,15.61A56,56,0,0,1,99.4,111a37.94,37.94,0,0,1-4.88,2.38c-.93.38-1,.56-.64,1.5a6.29,6.29,0,0,0,7.31,4.28,18.3,18.3,0,0,0,6.82-2.79,31.93,31.93,0,0,0,6.21-5.14,5,5,0,0,0,1.29-2.4,32.67,32.67,0,0,1,6.16-13.07,13.74,13.74,0,0,1,3.76-3.29,7.29,7.29,0,0,1,4.93-1.12,4.1,4.1,0,0,1,3.57,3.87,9.69,9.69,0,0,1-.57,4.29,30.1,30.1,0,0,1-4.26,7.45,67.72,67.72,0,0,1-4.74,5.69,4.19,4.19,0,0,0-1.08,2.22,71.74,71.74,0,0,0-1,8c0,.3,0,.61,0,.92,0,.5.27.62.69.4.2-.1.38-.22.58-.34,8.25-4.94,16.49-9.92,24.36-15.48,1-.74,2.06-1.5,3.12-2.24a1.16,1.16,0,0,0,.5-1.34c-1.85-12.66.89-24.21,8.64-34.46a24,24,0,0,1,11.72-8.71,17.28,17.28,0,0,1,8.23-.69A11.82,11.82,0,0,1,190.33,72.6a25,25,0,0,1-3.6,13.24A47.32,47.32,0,0,1,180,94.69,114.82,114.82,0,0,1,166,107.14c-1.47,1.12-1.48,1.12-.63,2.79a13.16,13.16,0,0,0,3.26,4.12,2.61,2.61,0,0,0,2.68.55,26.12,26.12,0,0,1,8.88-1.19,20.13,20.13,0,0,1,6.32,1.31,8.35,8.35,0,0,1,2.79,1.74,4.46,4.46,0,0,1-.06,6.5,7.63,7.63,0,0,1-3.5,1.8,27.91,27.91,0,0,1-9.06.73,53.49,53.49,0,0,1-5.92-.61,3.49,3.49,0,0,0-1.81.29,30.6,30.6,0,0,0-11,6.46,33.47,33.47,0,0,0-10.67,19.92,40.24,40.24,0,0,0,1,19.25c1.92,6,5.08,11.24,10.25,15.07a22,22,0,0,0,33.62-9.25,24.29,24.29,0,0,0,1.15-16.08,15.76,15.76,0,0,0-4.56-7.92,10.94,10.94,0,0,0-12.23-1.56,8.48,8.48,0,0,0-3.52,11.51,15.54,15.54,0,0,0,2.07,2.89c.49.58,1,1.15,1.45,1.74a6.27,6.27,0,0,1,1.23,2.46,4.57,4.57,0,0,1-3.37,5.72,8.3,8.3,0,0,1-4.45-.16,11.89,11.89,0,0,1-6.63-4.79,18.78,18.78,0,0,1-3.39-11.87,19,19,0,0,1,6.61-14.08,21.07,21.07,0,0,1,10.56-5.2c6.72-1.24,13-.26,18.64,3.82a24.37,24.37,0,0,1,8.83,12.44C208.71,168.28,206.56,179.85,197.64,190Z"/><path class="cls-1" d="M109.67,142.58c.28.25.11.68.06,1-.72,4.85-1.58,9.66-2.77,14.42a81,81,0,0,1-5.15,15,37.87,37.87,0,0,1-7.72,11.31,20.64,20.64,0,0,1-11.25,5.76,20.86,20.86,0,0,1-2.5.17,8.58,8.58,0,0,1-5.41-1.44c-2.49-1.75-3.39-4.33-3.49-7.22a21.19,21.19,0,0,1,3.36-11.54,44.22,44.22,0,0,1,7.84-9.61,103,103,0,0,1,21.51-15.31c1.47-.81,3-1.58,4.44-2.35C108.92,142.63,109.3,142.26,109.67,142.58Z"/><path class="cls-1" d="M114.55,74A10.34,10.34,0,0,1,114,77.8a31.84,31.84,0,0,1-3.66,7.62,60.16,60.16,0,0,1-13.85,15.52c-.8.64-1.66,1.18-2.5,1.74-.28.19-.55.47-1,.31a6.27,6.27,0,0,1,0-2.44,51.28,51.28,0,0,1,4.34-14.26,50.11,50.11,0,0,1,6.07-10.37,20,20,0,0,1,3.56-3.73,8.12,8.12,0,0,1,2.64-1.49A3.6,3.6,0,0,1,114.55,74Z"/><path class="cls-1" d="M180,73.76a8.3,8.3,0,0,1-.71,3.47,27.76,27.76,0,0,1-3.58,6.32A89.17,89.17,0,0,1,163.38,97a1.55,1.55,0,0,1-.94.52,10.19,10.19,0,0,1,.13-3.18,38,38,0,0,1,7.21-18.94,15.46,15.46,0,0,1,3.76-3.68,6.57,6.57,0,0,1,2.41-1A3.3,3.3,0,0,1,180,73.76Z"/><path class="cls-1" d="M109.73,143.6c-.72,4.85-1.58,9.66-2.77,14.42a81,81,0,0,1-5.15,15,37.87,37.87,0,0,1-7.72,11.31,20.64,20.64,0,0,1-11.25,5.76,20.86,20.86,0,0,1-2.5.17,8.58,8.58,0,0,1-5.41-1.44c-2.49-1.75-3.39-4.33-3.49-7.22a21.19,21.19,0,0,1,3.36-11.54,44.22,44.22,0,0,1,7.84-9.61,103,103,0,0,1,21.51-15.31c1.47-.81,3-1.58,4.44-2.35.33-.16.71-.53,1.08-.21S109.78,143.26,109.73,143.6Z"/><path class="cls-1" d="M114,77.8a31.84,31.84,0,0,1-3.66,7.62,60.16,60.16,0,0,1-13.85,15.52c-.8.64-1.66,1.18-2.5,1.74-.28.19-.55.47-1,.31a6.27,6.27,0,0,1,0-2.44,51.28,51.28,0,0,1,4.34-14.26,50.11,50.11,0,0,1,6.07-10.37,20,20,0,0,1,3.56-3.73,8.12,8.12,0,0,1,2.64-1.49,3.6,3.6,0,0,1,5,3.32A10.34,10.34,0,0,1,114,77.8Z"/><path class="cls-1" d="M180,73.76a8.3,8.3,0,0,1-.71,3.47,27.76,27.76,0,0,1-3.58,6.32A89.17,89.17,0,0,1,163.38,97a1.55,1.55,0,0,1-.94.52,10.19,10.19,0,0,1,.13-3.18,38,38,0,0,1,7.21-18.94,15.46,15.46,0,0,1,3.76-3.68,6.57,6.57,0,0,1,2.41-1A3.3,3.3,0,0,1,180,73.76Z"/></svg>