<svg id="Layer_1" data-name="Layer 1" xmlns="http://www.w3.org/2000/svg" xmlns:xlink="http://www.w3.org/1999/xlink" viewBox="0 0 265 112.84"><defs><style>.cls-1{fill:none;}.cls-2{fill:#131313;}.cls-3{clip-path:url(#clip-path);}.cls-4{fill:#fff;}</style><clipPath id="clip-path"><polygon class="cls-1" points="152.25 0.75 152.24 0.75 152.24 112.76 264.26 112.76 264.26 0.75 152.25 0.75"/></clipPath></defs><path class="cls-2" d="M20.64,102.36a31.57,31.57,0,0,0-.19-3.76,7.68,7.68,0,0,0-6.23-6.93,19.5,19.5,0,0,0-4.71-.25,9.84,9.84,0,0,0-9,7.14c-.22.75-.37,1.52-.55,2.28v2.46a5.2,5.2,0,0,1,.2.75c.55,4.29,2.8,6.9,7,7.82,4.39,1,8.86.43,13.3.49,0,0,.09-.06.21-.14C20.65,109,20.67,105.66,20.64,102.36Zm-5.42,4.92c0,.25-.35.67-.53.67a35.27,35.27,0,0,1-5.15-.22,4.53,4.53,0,0,1-4.17-4.65,11.13,11.13,0,0,1,.33-3.87c1.08-3.49,4.84-3.94,7.1-2.91,1.62.75,2.12,2.27,2.29,3.89.15,1.39.15,2.79.22,4.2h-.06C15.25,105.36,15.28,106.32,15.22,107.28Z"/><path class="cls-2" d="M99.63,61.55a10.19,10.19,0,0,0-3.14-7.48c-2.54-2.41-5.68-3-9-2.8-5.14.37-7.83,2.93-8.35,8.08-.24,2.41-.11,4.85-.15,7.28,0,.34,0,.67,0,1h-5c1.49-3.77,1.6-7.45-.7-10.86s-6-4.19-10.12-4.24L73.64,40.94c-2.2,0-4.16,0-6.11,0-.26,0-.55.29-.76.51Q61.91,46.75,57.08,52c-.17.19-.43.41-.44.63,0,1.5,0,3,0,4.56,2.68,0,5.23,0,7.78,0,3.31,0,5,1.72,5.11,5,.07,3-1.06,4.62-3.64,5.19a8.92,8.92,0,0,1-1.92.23c-3,0-6.09,0-9.14,0a5.9,5.9,0,0,1-.74-.09c0-.48,0-.92,0-1.35-.05-2.54,0-5.1-.21-7.63a7.61,7.61,0,0,0-6.16-7,16.36,16.36,0,0,0-3.83-.34c-6,.1-10,3.86-10.53,9.7a12.29,12.29,0,0,0,.85,5.94c1.6,3.72,4.83,4.88,8.49,5.23,2,.2,4,.19,5.94.27a4.48,4.48,0,0,1-3,4.88,11,11,0,0,1-3.79.42c-1.85-.1-3.68-.49-5.53-.76v4.85a30.92,30.92,0,0,0,9.58.54c5.2-.7,8.18-3.92,8.4-9.14,0-.78.37-.88,1-.88,10.49,0,21,0,31.48,0a31.61,31.61,0,0,0,5.49-.53c2.89-.53,5.3-1.84,6.54-4.72A12.93,12.93,0,0,0,99.63,61.55ZM48.42,67.82c-1.91-.15-3.87-.18-5.79-.49a4.17,4.17,0,0,1-3.56-3.63,7.85,7.85,0,0,1,.55-5.39,5.07,5.07,0,0,1,6.59-2.13,3.91,3.91,0,0,1,2,2.62A38,38,0,0,1,48.42,67.82Zm45.25-3.35a4.15,4.15,0,0,1-2.74,2.74c-2.14.74-4.33.38-6.62.49,0-.81,0-1.51,0-2.2.05-1.89,0-3.8.19-5.68.22-2.34,1.59-3.79,3.49-4,2.64-.31,4.67.77,5.55,3A8.25,8.25,0,0,1,93.67,64.47Z"/><path class="cls-2" d="M79.51,112.35H74.37V99.59c0-3.14-1.15-4.14-4.3-3.86-2.29.21-2.3.22-2.3,2.46q0,6.94,0,13.88a2,2,0,0,1-.06.31c-1.59,0-3.22,0-4.84,0-.13,0-.34-.49-.35-.75,0-1.35,0-2.7,0-4,0-4.6,0-9.2,0-13.79a1.24,1.24,0,0,1,1.06-1.41,24.45,24.45,0,0,1,10.23-1,4.67,4.67,0,0,1,1.67.47,3.19,3.19,0,0,0,2.73.15,15.32,15.32,0,0,1,8.06-.47c3.17.79,5,2.84,5.08,6.08.11,4.8,0,9.61,0,14.41a2.36,2.36,0,0,1-.07.31H86.18c0-.32-.05-.66-.05-1,0-3.87,0-7.73,0-11.6a7.4,7.4,0,0,0-.06-1c-.32-2-1.2-2.86-3.19-2.94a22.51,22.51,0,0,0-3.36.34Z"/><path class="cls-2" d="M59.18,101.46a21.07,21.07,0,0,0-.2-3,7.57,7.57,0,0,0-6.1-6.75,16.46,16.46,0,0,0-5-.3c-4.22.4-7.33,2.53-8.81,6.59a12.3,12.3,0,0,0,.25,9A6.88,6.88,0,0,0,42,110.34a11.07,11.07,0,0,0,5.68,1.87c3.62.12,7.25.13,10.88.19.17,0,.34,0,.64-.06C59.2,108.65,59.21,105.05,59.18,101.46ZM53.87,108c-2.31,0-4.66.34-6.9-.56s-2.92-2.69-3-4.81a9.29,9.29,0,0,1,.32-3.11c1-3.41,4.4-4.25,7-3.23A3.93,3.93,0,0,1,53.58,99a4.92,4.92,0,0,1,.28,1.36C53.89,102.83,53.87,105.34,53.87,108Z"/><path class="cls-2" d="M123.12,91.41a10.72,10.72,0,1,0-.34,21.43,10.72,10.72,0,0,0,.34-21.43ZM122.86,108a5.88,5.88,0,1,1,5.79-6A6,6,0,0,1,122.86,108Z"/><path class="cls-2" d="M105.12,77.2a39,39,0,0,0,4.27.64,4.91,4.91,0,0,0,5.43-5c.09-2.89.07-5.79.08-8.69,0-3.28,0-6.55,0-9.83,0-.8.21-1.08,1-1a34.75,34.75,0,0,0,3.68,0c.68,0,.86.22.86.85,0,2.81,0,5.62,0,8.43,0,3.72,0,7.44-.12,11.15A8.6,8.6,0,0,1,117.59,80a9.81,9.81,0,0,1-5.33,2.27,19,19,0,0,1-6.55-.14c-.23,0-.56-.36-.56-.56C105.1,80.11,105.12,78.62,105.12,77.2Z"/><path class="cls-2" d="M111.29,93.27c-.75,1.28-1.48,2.5-2.2,3.72-3.86-1.73-6.9-1.43-8.63.82s-1.64,6.44.05,8.51,4.73,2.43,8.36.69l2.62,3.32a8.55,8.55,0,0,1-4.12,2.1c-3.63.83-7.08.47-10-2A9.93,9.93,0,0,1,94,102.53c0-3.65,1-6.87,4-9.21,3.65-2.84,9.08-2.55,12.54-.6A8.77,8.77,0,0,1,111.29,93.27Z"/><path class="cls-2" d="M108.69,72.32c-1.64,0-3.25,0-4.85,0-.18,0-.41-.3-.52-.51a1.48,1.48,0,0,1,0-.6v-29c0-1.16,0-1.16,1.14-1.16h4.26Z"/><path class="cls-2" d="M124.22,44.35h5.22V72.26h-5.22Z"/><path class="cls-2" d="M23.77,112.4c0-.32-.05-.52-.05-.72,0-3.54-.06-7.08,0-10.62a15.17,15.17,0,0,1,.7-3.94,7.2,7.2,0,0,1,4.66-4.79,19.06,19.06,0,0,1,9.6-.59c-.39,1.45-.74,2.85-1.16,4.23,0,.13-.53.2-.8.19a21,21,0,0,0-3-.14,4.77,4.77,0,0,0-4.43,4.74c-.13,3.33-.07,6.67-.1,10,0,2,.15,1.6-1.63,1.63Z"/><path class="cls-2" d="M123.78,39.27c-.78-3.53,1.58-5.3,4.76-4.9,1.84.23,2,.63,1.69,2.74a23.48,23.48,0,0,0-2.6-.43A1.18,1.18,0,0,0,126.21,38c0,.86.35,1.32,1.32,1.39a23.91,23.91,0,0,0,2.54,0c.58,0,.81.2.77.76a3.57,3.57,0,0,1,0,.87c-.09.24-.35.58-.54.58-2.29.05-4.57,0-6.85,0a.73.73,0,0,1-.51-.5,12,12,0,0,1,0-1.59Z"/><g class="cls-3"><rect class="cls-2" x="129.21" y="-22.28" width="158.08" height="158.08" transform="translate(14.3 151.49) rotate(-41.28)"/></g><path class="cls-4" d="M214,47.75a3.38,3.38,0,0,1,2,3.11c-.21,1.11-1.4,1.47-2.78.82a3.32,3.32,0,0,1-2-3.18c.25-1.07,1.44-1.39,2.78-.75"/><path class="cls-4" d="M218,26.19c1.09.58,1.84,1.54,1.76,2.23s-1.06.79-2.17.22-1.89-1.57-1.76-2.27,1.08-.74,2.17-.18"/><path class="cls-4" d="M218.35,24.05c.9.49,1.54,1.27,1.47,1.83s-.88.62-1.8.14-1.57-1.3-1.48-1.86.9-.58,1.81-.11"/><path class="cls-4" d="M218.69,21.92c.84.45,1.43,1.17,1.37,1.67s-.8.54-1.67.09S216.94,22.48,217,22s.83-.51,1.67-.07"/><path class="cls-4" d="M219,19.85c.78.42,1.34,1.08,1.28,1.52s-.74.47-1.54.05-1.34-1.11-1.28-1.55.76-.43,1.54,0"/><path class="cls-4" d="M219.33,17.93c.72.4,1.23,1,1.18,1.39s-.68.4-1.41,0-1.25-1-1.19-1.41.69-.38,1.42,0"/><path class="cls-4" d="M219.61,16.2c.66.37,1.13.92,1.09,1.27s-.62.34-1.3,0-1.15-.93-1.09-1.29.62-.32,1.3,0"/><path class="cls-4" d="M219.87,14.52c.61.35,1.06.79,1,1.16s-.57.29-1.2,0-1.07-.8-1-1.17.57-.28,1.19,0"/><path class="cls-4" d="M220.14,12.82c.52.31.91.68.88,1s-.49.23-1-.07-.93-.68-.89-1,.5-.22,1,.07"/><path class="cls-4" d="M220.39,11.23c.49.28.84.62.81.9s-.44.2-.93-.07-.85-.63-.82-.91.45-.19.94.08"/><path class="cls-4" d="M220.63,9.66c.42.24.73.53.7.77s-.37.15-.8-.08-.74-.54-.7-.77.38-.15.8.08"/><path class="cls-4" d="M220.87,8.19c.37.21.64.46.62.66s-.33.13-.71-.08-.64-.47-.62-.67.34-.13.71.09"/><path class="cls-4" d="M212.64,55.29A2.8,2.8,0,0,1,211,52.58c.21-.94,1.22-1.24,2.35-.71A2.82,2.82,0,0,1,215,54.53c-.19,1-1.19,1.3-2.34.76"/><path class="cls-4" d="M211.76,59.89a2.75,2.75,0,0,1-1.63-2.72c.22-1,1.21-1.29,2.3-.78a2.77,2.77,0,0,1,1.64,2.66c-.19,1-1.18,1.36-2.31.84"/><path class="cls-4" d="M210.83,64.68A2.69,2.69,0,0,1,209.26,62c.22-1,1.2-1.34,2.27-.85a2.71,2.71,0,0,1,1.57,2.66c-.2,1-1.17,1.4-2.27.9"/><path class="cls-4" d="M209.8,69.93a2.61,2.61,0,0,1-1.51-2.7,1.46,1.46,0,0,1,2.22-.92A2.63,2.63,0,0,1,212,69a1.46,1.46,0,0,1-2.22,1"/><path class="cls-4" d="M208.74,75.2a2.33,2.33,0,0,1-1.29-2.42,1.32,1.32,0,0,1,2-.9,2.33,2.33,0,0,1,1.29,2.38,1.32,1.32,0,0,1-2,.94"/><path class="cls-4" d="M207.43,81.56a2.25,2.25,0,0,1-1.22-2.41,1.33,1.33,0,0,1,1.92-1,2.27,2.27,0,0,1,1.23,2.38,1.33,1.33,0,0,1-1.93,1"/><path class="cls-4" d="M206,88.45a2,2,0,0,1-1.06-2.23,1.24,1.24,0,0,1,1.74-1,2,2,0,0,1,1.07,2.19,1.26,1.26,0,0,1-1.75,1"/><path class="cls-4" d="M204.56,95.33a1.71,1.71,0,0,1-.88-2,1.15,1.15,0,0,1,1.52-1,1.74,1.74,0,0,1,.88,1.93c-.19.81-.84,1.25-1.52,1"/><path class="cls-4" d="M218.73,50.35a2.85,2.85,0,0,1,1.67,2.51c-.14.9-1.06,1.19-2.14.66A2.79,2.79,0,0,1,216.6,51c.17-.87,1.08-1.13,2.13-.61"/><path class="cls-4" d="M223.38,52.29a3.72,3.72,0,0,1,2.11,3.18c-.13,1.15-1.22,1.52-2.55.85a3.68,3.68,0,0,1-2.12-3.24c.16-1.11,1.26-1.43,2.56-.79"/><path class="cls-4" d="M255.56,50.59c-.53-.34-.88-.23-.83.25a2.57,2.57,0,0,0,1.06,1.46c.54.34.9.23.84-.26a2.51,2.51,0,0,0-1.07-1.45"/><path class="cls-4" d="M251.82,48c-.71-.42-1.2-.3-1.14.3a3.15,3.15,0,0,0,1.39,1.87c.71.42,1.19.29,1.12-.33A3,3,0,0,0,251.82,48"/><path class="cls-4" d="M241.36,83c-.91-.56-1.6-.16-1.62.91a3.92,3.92,0,0,0,1.61,3c.91.56,1.59.16,1.6-1A3.87,3.87,0,0,0,241.36,83"/><path class="cls-4" d="M236.9,74.11c-1.05-.6-1.87-.2-1.93.94a4,4,0,0,0,1.83,3.17c1.07.61,1.88.19,1.92-1a4,4,0,0,0-1.82-3.13"/><path class="cls-4" d="M232.21,66.46c-1-.56-1.87-.21-2,.83A3.54,3.54,0,0,0,232,70.21c1.06.56,1.89.19,1.95-.88a3.55,3.55,0,0,0-1.76-2.87"/><path class="cls-4" d="M229.32,35.1c-.94-.49-1.69-.39-1.75.27a2.82,2.82,0,0,0,1.62,2.09c.95.5,1.7.37,1.74-.29a2.85,2.85,0,0,0-1.61-2.07"/><path class="cls-4" d="M248.48,49c-.73-.42-1.24-.29-1.21.34a3.11,3.11,0,0,0,1.41,1.93c.74.44,1.25.28,1.2-.36a3,3,0,0,0-1.4-1.91"/><path class="cls-4" d="M244.7,46.73c-.78-.44-1.34-.3-1.32.34a3,3,0,0,0,1.47,2c.79.44,1.35.29,1.31-.36a3,3,0,0,0-1.46-2"/><path class="cls-4" d="M237.16,45.44c-.91-.49-1.61-.33-1.63.4a3.13,3.13,0,0,0,1.65,2.24c.92.51,1.61.32,1.61-.43a3.11,3.11,0,0,0-1.63-2.21"/><path class="cls-4" d="M241,44.43c-.86-.48-1.51-.33-1.5.36a3.15,3.15,0,0,0,1.61,2.14c.88.49,1.52.33,1.5-.38A3.17,3.17,0,0,0,241,44.43"/><path class="cls-4" d="M237,42.13c-1-.53-1.73-.38-1.74.37A3.24,3.24,0,0,0,237,44.85c1,.54,1.73.37,1.73-.4A3.34,3.34,0,0,0,237,42.13"/><path class="cls-4" d="M233.13,43.1c-1-.53-1.81-.36-1.86.43A3.25,3.25,0,0,0,233.05,46c1,.55,1.84.35,1.86-.46a3.32,3.32,0,0,0-1.78-2.4"/><path class="cls-4" d="M227.73,59.14c-1.06-.54-1.95-.23-2,.75a3.29,3.29,0,0,0,1.77,2.82c1.09.55,2,.21,2.05-.8a3.32,3.32,0,0,0-1.77-2.77"/><path class="cls-4" d="M228,54.92c-1.14-.59-2.09-.28-2.2.73a3.55,3.55,0,0,0,1.93,3c1.17.6,2.12.26,2.2-.78A3.55,3.55,0,0,0,228,54.92"/><path class="cls-4" d="M228.33,51c-1.24-.64-2.26-.34-2.37.7a3.75,3.75,0,0,0,2.1,3.13c1.27.66,2.28.32,2.36-.77A3.81,3.81,0,0,0,228.33,51"/><path class="cls-4" d="M228.59,47.24c-1.21-.62-2.19-.38-2.29.6a3.61,3.61,0,0,0,2,3c1.24.64,2.21.35,2.29-.66a3.68,3.68,0,0,0-2-2.9"/><path class="cls-4" d="M228.76,44c-1.06-.54-1.91-.35-2,.47a3.2,3.2,0,0,0,1.8,2.53c1.08.57,1.94.34,2-.51a3.21,3.21,0,0,0-1.8-2.49"/><path class="cls-4" d="M229,40.73c-1.14-.6-2.07-.42-2.15.44a3.4,3.4,0,0,0,2,2.68c1.17.61,2.08.4,2.14-.5A3.46,3.46,0,0,0,229,40.73"/><path class="cls-4" d="M229.17,37.75c-1.11-.58-2-.44-2.09.37A3.39,3.39,0,0,0,229,40.67c1.13.59,2,.41,2.08-.42a3.39,3.39,0,0,0-1.92-2.5"/><path class="cls-4" d="M222,28.62c-.79-.4-1.44-.34-1.52.15s.49,1.22,1.29,1.64,1.44.34,1.51-.16-.5-1.21-1.28-1.63"/><path class="cls-4" d="M222.12,26.29c-.73-.37-1.32-.33-1.39.1s.46,1.09,1.18,1.48,1.32.32,1.38-.11-.47-1.08-1.17-1.47"/><path class="cls-4" d="M222.23,24.09c-.62-.33-1.13-.3-1.2.06s.41.92,1,1.26,1.13.3,1.19-.07-.42-.91-1-1.25"/><path class="cls-4" d="M222.32,22c-.56-.3-1-.33-1.07,0s.37.81.93,1.12,1,.32,1.07,0-.38-.81-.93-1.11"/><path class="cls-4" d="M222.44,20c-.52-.28-.94-.32-1,0s.34.74.87,1,1,.32,1,0-.36-.73-.87-1"/><path class="cls-4" d="M222.53,18c-.47-.25-.83-.29-.88,0s.31.64.77.89.84.3.88,0-.32-.62-.77-.88"/><path class="cls-4" d="M222.61,16.23c-.43-.23-.77-.29-.81,0s.29.58.72.82.77.29.8,0-.29-.57-.71-.81"/><path class="cls-4" d="M222.69,14.42c-.38-.21-.68-.26-.71,0s.26.5.64.71.68.26.7,0-.26-.49-.63-.7"/><path class="cls-4" d="M217.74,57.26c.83.4,1.54.15,1.65-.57a2.2,2.2,0,0,0-1.27-2c-.82-.39-1.53-.16-1.66.54a2.2,2.2,0,0,0,1.28,2"/><path class="cls-4" d="M217,61.87c.79.38,1.47.12,1.59-.6a2.13,2.13,0,0,0-1.21-2c-.78-.36-1.47-.13-1.6.59a2.11,2.11,0,0,0,1.22,2"/><path class="cls-4" d="M215.93,66.61c.79.37,1.47.08,1.59-.66a2.07,2.07,0,0,0-1.18-2c-.77-.37-1.45-.1-1.59.63a2.11,2.11,0,0,0,1.18,2"/><path class="cls-4" d="M214.92,71.76c.74.34,1.38,0,1.5-.68a2,2,0,0,0-1.09-1.9,1,1,0,0,0-1.49.66,2,2,0,0,0,1.08,1.92"/><path class="cls-4" d="M213.71,76.91a.93.93,0,0,0,1.42-.7,1.84,1.84,0,0,0-1-1.83.93.93,0,0,0-1.41.69,1.83,1.83,0,0,0,1,1.84"/><path class="cls-4" d="M212.29,83a.92.92,0,0,0,1.35-.73,1.76,1.76,0,0,0-.93-1.76.9.9,0,0,0-1.34.71,1.74,1.74,0,0,0,.92,1.78"/><path class="cls-4" d="M233.05,40.05c-.94-.51-1.68-.37-1.72.34a3,3,0,0,0,1.66,2.2c1,.5,1.69.34,1.72-.38a3.05,3.05,0,0,0-1.66-2.16"/><path class="cls-4" d="M232.85,46.49c-.84-.44-1.51-.28-1.56.4A2.75,2.75,0,0,0,232.77,49c.86.45,1.53.27,1.56-.43a2.75,2.75,0,0,0-1.48-2"/><path class="cls-4" d="M232.78,49.82c-1-.51-1.73-.3-1.79.51a3.15,3.15,0,0,0,1.68,2.43c1,.52,1.75.28,1.78-.55a3.16,3.16,0,0,0-1.67-2.39"/><path class="cls-4" d="M232.3,61.78c-1-.5-1.7-.22-1.77.68A3.15,3.15,0,0,0,232.15,65c1,.5,1.71.2,1.76-.72a3.15,3.15,0,0,0-1.61-2.54"/><path class="cls-4" d="M248.17,45.73c-.8-.46-1.36-.33-1.32.32a3.27,3.27,0,0,0,1.54,2c.81.47,1.36.32,1.31-.34a3.31,3.31,0,0,0-1.53-2"/><path class="cls-4" d="M236.57,79.84c-.87-.5-1.56-.13-1.62.86a3.39,3.39,0,0,0,1.52,2.74c.89.51,1.58.13,1.61-.89a3.39,3.39,0,0,0-1.51-2.71"/><path class="cls-4" d="M241.42,88.9c-.83-.53-1.47-.13-1.5.91a3.74,3.74,0,0,0,1.48,2.86c.84.54,1.47.13,1.48-.94a3.71,3.71,0,0,0-1.46-2.83"/><path class="cls-4" d="M231.82,71.45c-1-.52-1.74-.16-1.82.84a3.32,3.32,0,0,0,1.63,2.79c1,.52,1.76.14,1.82-.89a3.29,3.29,0,0,0-1.63-2.74"/><path class="cls-4" d="M227.34,64c-1-.49-1.73-.18-1.84.74a3,3,0,0,0,1.57,2.58c1,.49,1.76.15,1.84-.79A3,3,0,0,0,227.34,64"/><path class="cls-4" d="M223,56.76c-1-.52-1.92-.23-2.06.71a3,3,0,0,0,1.68,2.65c1.07.52,1.95.21,2.06-.75A3,3,0,0,0,223,56.76"/><path class="cls-4" d="M232.47,57.71c-.88-.46-1.59-.22-1.64.59a2.9,2.9,0,0,0,1.52,2.33c.9.48,1.6.22,1.64-.61a2.92,2.92,0,0,0-1.52-2.31"/><path class="cls-4" d="M229.45,32.54c-.83-.43-1.49-.35-1.53.2s.59,1.35,1.43,1.8,1.48.35,1.52-.21a2.56,2.56,0,0,0-1.42-1.79"/><path class="cls-4" d="M244.49,43.8c-.65-.37-1.13-.27-1.1.25a2.51,2.51,0,0,0,1.23,1.61c.67.37,1.13.25,1.1-.27a2.49,2.49,0,0,0-1.23-1.59"/><path class="cls-4" d="M237.18,52.57c-.75-.41-1.31-.23-1.33.41a2.55,2.55,0,0,0,1.32,1.92c.75.41,1.31.23,1.32-.43a2.56,2.56,0,0,0-1.31-1.9"/><path class="cls-4" d="M236.82,69.21c-.92-.52-1.63-.2-1.68.75a3.39,3.39,0,0,0,1.61,2.69c.93.52,1.64.19,1.67-.79a3.39,3.39,0,0,0-1.6-2.65"/><path class="cls-4" d="M232.63,53.84c-.85-.46-1.54-.25-1.59.5a2.77,2.77,0,0,0,1.48,2.21c.88.47,1.55.24,1.59-.53a2.78,2.78,0,0,0-1.48-2.18"/><path class="cls-4" d="M241.45,58.8c-.83-.47-1.46-.25-1.46.54a3.17,3.17,0,0,0,1.52,2.3c.84.48,1.46.25,1.45-.56a3.18,3.18,0,0,0-1.51-2.28"/><path class="cls-4" d="M245,99.05c-.67-.47-1.18-.12-1.18.82a3.68,3.68,0,0,0,1.21,2.6c.68.49,1.17.13,1.17-.84a3.63,3.63,0,0,0-1.2-2.58"/><path class="cls-4" d="M241.1,47.78c-.77-.43-1.35-.28-1.34.36a2.8,2.8,0,0,0,1.41,2c.79.43,1.36.27,1.34-.39a2.82,2.82,0,0,0-1.41-1.92"/><path class="cls-4" d="M225.57,30.58c-.75-.39-1.36-.33-1.42.16s.51,1.19,1.27,1.6,1.37.32,1.42-.18a2.17,2.17,0,0,0-1.27-1.58"/><path class="cls-4" d="M233.17,32.17c-.72-.38-1.27-.32-1.29.15a2.27,2.27,0,0,0,1.27,1.56c.73.38,1.28.32,1.29-.16a2.29,2.29,0,0,0-1.27-1.55"/><path class="cls-4" d="M240.85,41.77c-.6-.33-1-.25-1,.21a2.13,2.13,0,0,0,1.1,1.42c.61.34,1.05.24,1-.23a2.11,2.11,0,0,0-1.1-1.4"/><path class="cls-4" d="M237,56.38c-.76-.41-1.35-.21-1.37.48a2.69,2.69,0,0,0,1.35,2c.77.42,1.35.21,1.36-.5a2.69,2.69,0,0,0-1.34-2"/><path class="cls-4" d="M241.21,55c-.66-.37-1.15-.22-1.15.38a2.45,2.45,0,0,0,1.2,1.75c.66.38,1.15.21,1.14-.39A2.42,2.42,0,0,0,241.21,55"/><path class="cls-4" d="M245.51,61.37c-.73-.44-1.26-.23-1.25.49A3,3,0,0,0,245.63,64c.74.45,1.27.23,1.24-.52a3.07,3.07,0,0,0-1.36-2.1"/><path class="cls-4" d="M252.09,51.44c-.56-.33-.94-.22-.9.27a2.48,2.48,0,0,0,1.09,1.52c.56.34.94.22.89-.28a2.51,2.51,0,0,0-1.08-1.51"/><path class="cls-4" d="M233.18,29.92c-.63-.34-1.11-.3-1.13.1s.49,1,1.12,1.35,1.13.3,1.13-.12a2,2,0,0,0-1.12-1.33"/><path class="cls-4" d="M233.15,34.73c-.67-.35-1.18-.28-1.2.18a2.13,2.13,0,0,0,1.17,1.47c.67.35,1.18.28,1.19-.19a2.15,2.15,0,0,0-1.16-1.46"/><path class="cls-4" d="M245.74,92.88c-.76-.52-1.34-.16-1.34.86a4,4,0,0,0,1.39,2.81c.78.54,1.34.17,1.33-.88a3.92,3.92,0,0,0-1.38-2.79"/><path class="cls-4" d="M229.55,30.29c-.65-.34-1.17-.29-1.21.12a2,2,0,0,0,1.14,1.4c.66.35,1.18.29,1.2-.14s-.48-1-1.13-1.38"/><path class="cls-4" d="M237,49c-.65-.35-1.15-.22-1.16.32A2.22,2.22,0,0,0,237,51c.65.35,1.15.21,1.16-.35A2.24,2.24,0,0,0,237,49"/><path class="cls-4" d="M237,39.73c-.54-.29-1-.22-1,.18a1.83,1.83,0,0,0,1,1.26c.55.3,1,.22,1-.19a1.83,1.83,0,0,0-1-1.25"/><path class="cls-4" d="M236.89,64.83c-.64-.36-1.15-.15-1.18.49a2.4,2.4,0,0,0,1.15,1.84c.66.37,1.16.15,1.18-.51a2.38,2.38,0,0,0-1.15-1.82"/><path class="cls-4" d="M241.48,77.53c-.74-.46-1.32-.16-1.33.69a3.12,3.12,0,0,0,1.33,2.37c.76.47,1.33.16,1.33-.71a3.11,3.11,0,0,0-1.33-2.35"/><path class="cls-4" d="M233.1,37.69c-.5-.26-.88-.19-.89.16a1.54,1.54,0,0,0,.86,1.12c.5.27.89.2.9-.16a1.61,1.61,0,0,0-.87-1.12"/><path class="cls-4" d="M241.1,95c-.59-.38-1-.08-1.08.71a2.77,2.77,0,0,0,1,2.12c.6.39,1.06.07,1.07-.72a2.74,2.74,0,0,0-1-2.11"/><path class="cls-4" d="M244.93,50.25c-.62-.35-1.07-.23-1.05.31A2.42,2.42,0,0,0,245,52.17c.63.36,1.08.23,1.05-.32a2.45,2.45,0,0,0-1.16-1.6"/><path class="cls-4" d="M236.9,32c-.57-.3-1-.26-1,.11a1.9,1.9,0,0,0,1,1.24c.57.3,1,.25,1-.13a2,2,0,0,0-1-1.22"/><path class="cls-4" d="M259.23,53.08c-.45-.29-.74-.2-.68.22a2.32,2.32,0,0,0,.92,1.3c.45.3.74.2.68-.23a2.29,2.29,0,0,0-.92-1.29"/><path class="cls-4" d="M249.65,64.09c-.65-.41-1.11-.21-1.08.46a2.94,2.94,0,0,0,1.24,2c.65.41,1.11.22,1.08-.47a3,3,0,0,0-1.24-2"/><path class="cls-4" d="M247.65,105.64c-.54-.46-.94-.14-.93.73a3.75,3.75,0,0,0,1,2.43c.55.47.94.15.92-.75a3.72,3.72,0,0,0-1-2.41"/><path class="cls-4" d="M236.37,85.9c-.65-.38-1.17-.08-1.21.7a2.58,2.58,0,0,0,1.13,2.11c.66.38,1.17.07,1.2-.73a2.57,2.57,0,0,0-1.12-2.08"/><path class="cls-4" d="M245.34,57.7c-.46-.27-.81-.15-.79.29a1.86,1.86,0,0,0,.87,1.3c.47.28.81.15.79-.29a1.89,1.89,0,0,0-.87-1.3"/><path class="cls-4" d="M236.69,29.72c-.48-.25-.84-.27-.84.07a1.55,1.55,0,0,0,.88,1c.48.26.85.27.84-.08a1.58,1.58,0,0,0-.88-1"/><path class="cls-4" d="M240.12,31.78c-.39-.21-.68-.21-.67.07a1.32,1.32,0,0,0,.74.85c.39.22.68.22.67-.06a1.36,1.36,0,0,0-.74-.86"/><path class="cls-4" d="M231.57,77.6c-.58-.31-1.06-.07-1.11.57a2,2,0,0,0,1,1.74c.59.31,1.07.06,1.11-.59a2,2,0,0,0-1-1.72"/><path class="cls-4" d="M226.76,69.56c-.58-.29-1.06-.08-1.12.51a1.8,1.8,0,0,0,.94,1.59c.59.29,1.07.08,1.12-.51a1.82,1.82,0,0,0-.94-1.59"/><path class="cls-4" d="M222.3,62.1c-.57-.28-1.05-.1-1.14.44a1.69,1.69,0,0,0,.92,1.48c.58.28,1.06.09,1.13-.45a1.66,1.66,0,0,0-.91-1.47"/><path class="cls-4" d="M239.91,29.6c-.42-.23-.73-.24-.71.06a1.39,1.39,0,0,0,.78.89c.43.23.74.24.72-.06a1.46,1.46,0,0,0-.79-.89"/><path class="cls-4" d="M242.6,29.67c-.36-.2-.63-.21-.61,0a1.22,1.22,0,0,0,.68.77c.36.2.63.21.61,0a1.25,1.25,0,0,0-.68-.77"/><path class="cls-4" d="M253.73,67.22c-.41-.28-.7-.15-.67.3a2.06,2.06,0,0,0,.8,1.33c.42.27.7.15.67-.32a2.08,2.08,0,0,0-.8-1.31"/><path class="cls-4" d="M250,68.25c-.52-.33-.89-.16-.87.4a2.43,2.43,0,0,0,1,1.65c.53.35.89.17.87-.41a2.49,2.49,0,0,0-1-1.64"/><path class="cls-4" d="M245.73,65.62c-.48-.3-.84-.15-.83.36a2,2,0,0,0,.9,1.45c.49.3.84.15.82-.37a2,2,0,0,0-.89-1.44"/><path class="cls-4" d="M241.41,63.07c-.46-.26-.79-.13-.79.32a1.69,1.69,0,0,0,.81,1.28c.45.27.78.12.79-.33a1.73,1.73,0,0,0-.81-1.27"/><path class="cls-4" d="M237,60.5c-.46-.25-.81-.11-.83.32a1.63,1.63,0,0,0,.81,1.25c.47.26.82.12.83-.32A1.63,1.63,0,0,0,237,60.5"/><path class="cls-4" d="M254,71.17c-.42-.28-.71-.15-.68.34a2.17,2.17,0,0,0,.8,1.39c.42.29.71.15.68-.34a2.14,2.14,0,0,0-.8-1.39"/><path class="cls-4" d="M258.14,74.33c-.36-.27-.62-.15-.58.3a2.17,2.17,0,0,0,.72,1.33c.37.28.62.15.58-.31a2.15,2.15,0,0,0-.72-1.32"/><path class="cls-4" d="M236.84,34.47c-.46-.25-.81-.23-.82.11a1.55,1.55,0,0,0,.85,1c.46.25.81.23.81-.12a1.52,1.52,0,0,0-.84-1"/><path class="cls-4" d="M209.14,45.57c-1.09-.51-2.08-.26-2.31.58a2.51,2.51,0,0,0,1.6,2.51c1.11.52,2.11.24,2.32-.63a2.56,2.56,0,0,0-1.61-2.46"/><path class="cls-4" d="M204.43,42.91c-1.38-.63-2.68-.34-3,.71s.55,2.43,2,3.11,2.71.29,3-.78-.6-2.38-2-3"/><path class="cls-4" d="M172.81,9.52c.74.25,1.1.71.85,1.07a1.88,1.88,0,0,1-1.83.18c-.75-.25-1.13-.7-.85-1.07a1.88,1.88,0,0,1,1.83-.18"/><path class="cls-4" d="M178,11.14c.88.33,1.34.92,1,1.37s-1.24.5-2.15.18-1.36-.92-1-1.37,1.26-.5,2.15-.18"/><path class="cls-4" d="M176,52.42A1.37,1.37,0,0,1,177,54.2a1.62,1.62,0,0,1-2.08.65A1.37,1.37,0,0,1,174,53a1.66,1.66,0,0,1,2.08-.62"/><path class="cls-4" d="M183.51,48.67a2,2,0,0,1,1.37,2.44,2,2,0,0,1-2.74.81,2,2,0,0,1-1.37-2.48,2.09,2.09,0,0,1,2.74-.77"/><path class="cls-4" d="M191,46.5a2.27,2.27,0,0,1,1.53,2.59c-.36.95-1.55,1.3-2.78.79a2.25,2.25,0,0,1-1.53-2.63A2,2,0,0,1,191,46.5"/><path class="cls-4" d="M205,22.57c1,.5,1.64,1.35,1.48,2s-1.13.7-2.17.2-1.67-1.37-1.48-2,1.15-.66,2.17-.18"/><path class="cls-4" d="M181.3,15.38c.94.37,1.44,1,1.16,1.52s-1.28.61-2.24.26-1.47-1-1.17-1.53,1.3-.59,2.25-.25"/><path class="cls-4" d="M186.12,17.23c1,.4,1.49,1.1,1.23,1.64s-1.26.63-2.25.24-1.52-1.11-1.23-1.65,1.29-.61,2.25-.23"/><path class="cls-4" d="M194.15,23.72c1,.48,1.66,1.32,1.41,2s-1.3.76-2.38.3-1.69-1.34-1.42-2,1.34-.74,2.39-.28"/><path class="cls-4" d="M190.79,19.05c1,.45,1.62,1.24,1.36,1.84s-1.3.69-2.37.25-1.65-1.27-1.36-1.86,1.33-.67,2.37-.23"/><path class="cls-4" d="M195.45,21.05c1.08.5,1.71,1.37,1.48,2s-1.33.76-2.46.27-1.76-1.39-1.48-2,1.36-.71,2.46-.23"/><path class="cls-4" d="M198.76,25.7c1.13.54,1.81,1.48,1.58,2.2s-1.36.86-2.53.34S196,26.73,196.23,26s1.38-.83,2.53-.31"/><path class="cls-4" d="M198,44.61a2.41,2.41,0,0,1,1.59,2.57c-.3.93-1.44,1.24-2.65.72a2.37,2.37,0,0,1-1.59-2.61c.33-.9,1.47-1.19,2.65-.68"/><path class="cls-4" d="M199.16,40.73a2.6,2.6,0,0,1,1.74,2.71c-.31,1-1.53,1.26-2.83.69s-2-1.8-1.74-2.76,1.57-1.2,2.83-.64"/><path class="cls-4" d="M200.24,37.08c1.35.65,2.16,1.87,1.89,2.86s-1.62,1.28-3,.66-2.21-1.92-1.9-2.92,1.67-1.21,3-.6"/><path class="cls-4" d="M201.33,33.68c1.31.63,2.11,1.79,1.86,2.71s-1.55,1.16-2.91.55-2.15-1.83-1.86-2.76,1.59-1.1,2.91-.5"/><path class="cls-4" d="M202.27,30.71c1.14.56,1.85,1.56,1.63,2.34s-1.33,1-2.51.41-1.88-1.59-1.64-2.37,1.36-.91,2.52-.38"/><path class="cls-4" d="M203.34,27.72c1.23.61,2,1.67,1.78,2.48s-1.42,1-2.7.37-2-1.7-1.78-2.51,1.45-.92,2.7-.34"/><path class="cls-4" d="M204.26,25c1.19.6,2,1.61,1.74,2.37s-1.36.88-2.59.3-2-1.64-1.76-2.4,1.4-.83,2.61-.27"/><path class="cls-4" d="M213.81,24.37c.8.42,1.34,1.11,1.25,1.6s-.81.56-1.63.14-1.35-1.12-1.25-1.61.83-.53,1.63-.13"/><path class="cls-4" d="M214.45,22.18c.73.39,1.23,1,1.15,1.44s-.74.47-1.48.09-1.25-1-1.16-1.45.76-.45,1.49-.08"/><path class="cls-4" d="M215.08,20.13c.63.34,1,.87,1,1.24s-.63.37-1.27.05-1.07-.88-1-1.25.64-.36,1.28,0"/><path class="cls-4" d="M215.65,18.16c.57.31,1,.74.9,1.1s-.56.32-1.14,0-1-.75-.91-1.11.57-.3,1.15,0"/><path class="cls-4" d="M216.18,16.38c.53.28.9.68.85,1s-.52.28-1.06,0-.91-.68-.84-1,.52-.27,1.05,0"/><path class="cls-4" d="M216.68,14.68c.47.26.8.6.75.88s-.45.23-.93,0-.81-.61-.75-.89.46-.22.93,0"/><path class="cls-4" d="M217.11,13.25c.43.24.74.55.7.8s-.42.2-.86,0-.74-.56-.7-.81.43-.19.86.05"/><path class="cls-4" d="M217.56,11.79c.38.21.65.48.62.7s-.37.16-.75-.05-.66-.48-.62-.7.36-.15.75,0"/><path class="cls-4" d="M207.55,52.26a1.94,1.94,0,0,1-1.22-2c.19-.69,1-.91,1.81-.52a2,2,0,0,1,1.22,1.95c-.17.71-.94.94-1.81.54"/><path class="cls-4" d="M206.64,56.76a1.87,1.87,0,0,1-1.16-1.93c.18-.69.93-.93,1.74-.56a1.9,1.9,0,0,1,1.16,1.92c-.18.69-.92,1-1.74.57"/><path class="cls-4" d="M205.77,61.54a1.89,1.89,0,0,1-1.13-2c.2-.71.94-1,1.74-.61a1.88,1.88,0,0,1,1.13,1.93c-.18.73-.93,1-1.74.65"/><path class="cls-4" d="M205,66.71a1.78,1.78,0,0,1-1-1.89,1.12,1.12,0,0,1,1.65-.65,1.78,1.78,0,0,1,1,1.86,1.11,1.11,0,0,1-1.65.68"/><path class="cls-4" d="M203.93,72.32a1.67,1.67,0,0,1-1-1.82,1.07,1.07,0,0,1,1.56-.67,1.65,1.65,0,0,1,1,1.79,1.09,1.09,0,0,1-1.57.7"/><path class="cls-4" d="M202.84,78.71A1.56,1.56,0,0,1,202,77a1,1,0,0,1,1.48-.7,1.54,1.54,0,0,1,.87,1.73,1,1,0,0,1-1.48.73"/><path class="cls-4" d="M199.91,23.13c1,.5,1.68,1.37,1.47,2s-1.24.75-2.31.26-1.71-1.39-1.48-2,1.27-.71,2.32-.23"/><path class="cls-4" d="M197.55,28.76c.94.44,1.51,1.24,1.3,1.86s-1.14.76-2.11.33-1.54-1.27-1.31-1.89,1.16-.73,2.12-.3"/><path class="cls-4" d="M196.46,31.72c1.09.51,1.72,1.44,1.48,2.18s-1.33.93-2.44.44-1.75-1.46-1.48-2.21,1.35-.88,2.44-.41"/><path class="cls-4" d="M192.48,42.39a2,2,0,0,1,1.4,2.28c-.31.82-1.38,1.09-2.49.63A2,2,0,0,1,190,43c.34-.8,1.41-1,2.5-.59"/><path class="cls-4" d="M182.86,12.82c1,.42,1.53,1.13,1.23,1.64s-1.36.59-2.4.19-1.56-1.13-1.24-1.65,1.4-.58,2.41-.18"/><path class="cls-4" d="M181.53,53.71a1.88,1.88,0,0,1,1.25,2.35,2,2,0,0,1-2.59.85A1.89,1.89,0,0,1,179,54.52a2,2,0,0,1,2.58-.81"/><path class="cls-4" d="M174.05,56.7a1.77,1.77,0,0,1,1.16,2.36,2.13,2.13,0,0,1-2.71.91,1.76,1.76,0,0,1-1.15-2.39,2.14,2.14,0,0,1,2.7-.88"/><path class="cls-4" d="M189.3,51.17a2.12,2.12,0,0,1,1.39,2.48,1.89,1.89,0,0,1-2.61.82,2.1,2.1,0,0,1-1.39-2.53,1.89,1.89,0,0,1,2.61-.77"/><path class="cls-4" d="M196.51,49.1a2.15,2.15,0,0,1,1.4,2.36c-.29.87-1.32,1.18-2.39.72a2.14,2.14,0,0,1-1.41-2.4c.31-.85,1.34-1.13,2.4-.68"/><path class="cls-4" d="M203.17,47.08a2.44,2.44,0,0,1,1.56,2.49c-.26.91-1.31,1.21-2.44.7a2.4,2.4,0,0,1-1.56-2.54c.28-.88,1.32-1.15,2.44-.65"/><path class="cls-4" d="M193.83,38.63c1,.46,1.58,1.35,1.34,2.09s-1.27,1-2.3.52-1.59-1.37-1.33-2.11,1.29-.92,2.29-.5"/><path class="cls-4" d="M205.78,20.24c.88.44,1.44,1.17,1.3,1.69s-1,.57-1.88.13-1.47-1.19-1.31-1.71,1-.55,1.89-.11"/><path class="cls-4" d="M187.55,15c.8.35,1.22.93,1,1.35s-1.05.48-1.86.13-1.24-.94-1-1.37,1.06-.46,1.86-.11"/><path class="cls-4" d="M191.53,29.85c.86.39,1.35,1.1,1.13,1.67s-1.1.71-2,.34-1.38-1.12-1.15-1.69,1.13-.69,2-.32"/><path class="cls-4" d="M185.32,44.23a1.94,1.94,0,0,1,1.35,2.3,1.94,1.94,0,0,1-2.61.7,1.91,1.91,0,0,1-1.35-2.33,2,2,0,0,1,2.61-.67"/><path class="cls-4" d="M195.1,35.3c1,.44,1.53,1.29,1.3,2s-1.21.88-2.2.44-1.55-1.31-1.31-2,1.23-.85,2.21-.42"/><path class="cls-4" d="M185,30.89c1,.43,1.56,1.25,1.27,1.92s-1.36.86-2.41.45-1.58-1.26-1.27-1.93a1.92,1.92,0,0,1,2.41-.44"/><path class="cls-4" d="M167.54,59.91a1.17,1.17,0,0,1,.75,1.65,1.64,1.64,0,0,1-2,.71,1.17,1.17,0,0,1-.75-1.67,1.67,1.67,0,0,1,2-.69"/><path class="cls-4" d="M189.35,21.79c.92.41,1.44,1.12,1.2,1.67s-1.18.65-2.13.26-1.46-1.12-1.2-1.67,1.21-.64,2.13-.26"/><path class="cls-4" d="M209.87,22.39c.78.41,1.29,1.07,1.19,1.54s-.84.52-1.64.12-1.31-1.08-1.19-1.55.85-.5,1.64-.11"/><path class="cls-4" d="M198.39,14.58c.59.23,1,.66.92,1s-.63.39-1.24.16-1-.66-.92-1,.63-.38,1.24-.15"/><path class="cls-4" d="M191.93,16.82c.69.32,1.1.85.93,1.24s-.88.44-1.6.14-1.12-.86-.94-1.25.9-.43,1.61-.13"/><path class="cls-4" d="M190,33.25c.89.39,1.38,1.14,1.15,1.75s-1.15.78-2.06.41-1.42-1.17-1.16-1.78,1.17-.76,2.07-.38"/><path class="cls-4" d="M186.53,27.9c.79.34,1.23,1,1,1.48s-1,.63-1.86.31-1.24-1-1-1.48,1.07-.63,1.87-.31"/><path class="cls-4" d="M179.63,29.05c1,.36,1.43,1.09,1.13,1.68a1.85,1.85,0,0,1-2.26.42c-.95-.37-1.45-1.1-1.13-1.7a1.9,1.9,0,0,1,2.26-.4"/><path class="cls-4" d="M176.4,13.86c.75.27,1.13.76.89,1.14s-1,.47-1.8.23-1.15-.76-.9-1.15a1.74,1.74,0,0,1,1.81-.22"/><path class="cls-4" d="M199.4,12.53c.64.25,1.08.71,1,1s-.67.4-1.33.15-1.09-.72-1-1.05.68-.39,1.33-.14"/><path class="cls-4" d="M201.69,18.35c.79.39,1.28,1,1.14,1.48s-.92.49-1.73.12-1.31-1-1.14-1.49.93-.49,1.73-.11"/><path class="cls-4" d="M202.62,16.14c.69.36,1.14.93,1,1.32s-.77.42-1.48.07-1.16-.93-1-1.33.78-.4,1.48-.06"/><path class="cls-4" d="M192.74,27c.75.34,1.18,1,1,1.43s-1,.59-1.72.26-1.2-1-1-1.44,1-.58,1.72-.25"/><path class="cls-4" d="M196.43,19c.63.29,1,.78.86,1.13s-.75.39-1.38.11-1-.78-.86-1.13.76-.4,1.38-.11"/><path class="cls-4" d="M186.94,40.5c.77.33,1.19,1,1,1.58s-1,.75-1.82.44-1.2-1-1-1.59a1.37,1.37,0,0,1,1.82-.43"/><path class="cls-4" d="M200.64,21c.54.27.88.71.78,1s-.64.37-1.2.11-.89-.73-.78-1.05.65-.35,1.2-.09"/><path class="cls-4" d="M206.38,18.17c.62.32,1,.83.94,1.19s-.65.38-1.28.07-1-.85-.95-1.21.66-.37,1.29,0"/><path class="cls-4" d="M184.44,20c.77.31,1.18.88,1,1.32s-1,.53-1.82.23-1.2-.89-1-1.33,1-.53,1.82-.22"/><path class="cls-4" d="M167.64,7.83c.63.19.92.56.68.84a1.69,1.69,0,0,1-1.57.16c-.64-.19-.94-.55-.68-.84a1.71,1.71,0,0,1,1.57-.16"/><path class="cls-4" d="M174.18,27.16c.88.32,1.31.95,1,1.48a1.89,1.89,0,0,1-2.15.41c-.89-.31-1.34-.95-1-1.49a1.91,1.91,0,0,1,2.15-.4"/><path class="cls-4" d="M165.68,64.8a1.09,1.09,0,0,1,.64,1.59,1.57,1.57,0,0,1-1.87.71,1.11,1.11,0,0,1-.63-1.62,1.57,1.57,0,0,1,1.86-.68"/><path class="cls-4" d="M160.19,67.65a.91.91,0,0,1,.55,1.35,1.47,1.47,0,0,1-1.68.63.91.91,0,0,1-.55-1.37,1.49,1.49,0,0,1,1.68-.61"/><path class="cls-4" d="M179.59,58.56a1.43,1.43,0,0,1,.9,1.83,1.49,1.49,0,0,1-2,.7,1.43,1.43,0,0,1-.9-1.85,1.51,1.51,0,0,1,2-.68"/><path class="cls-4" d="M172.09,61.76A1.45,1.45,0,0,1,173,63.6a1.51,1.51,0,0,1-2,.7,1.44,1.44,0,0,1-.91-1.86,1.53,1.53,0,0,1,2-.68"/><path class="cls-4" d="M181.32,26.09c.59.24.9.69.72,1a1.15,1.15,0,0,1-1.41.24c-.6-.24-.92-.69-.73-1.05s.82-.45,1.42-.23"/><path class="cls-4" d="M196.73,9.47c.51.21.84.52.76.81s-.55.27-1.06.07-.85-.54-.76-.81.56-.27,1.06-.07"/><path class="cls-4" d="M187.5,56.09a1.3,1.3,0,0,1,.83,1.56,1.18,1.18,0,0,1-1.61.55,1.3,1.3,0,0,1-.82-1.58,1.16,1.16,0,0,1,1.6-.53"/><path class="cls-4" d="M194.89,53.58a1.33,1.33,0,0,1,.84,1.48,1,1,0,0,1-1.47.48,1.31,1.31,0,0,1-.84-1.49,1,1,0,0,1,1.47-.47"/><path class="cls-4" d="M201.74,52.06a1.33,1.33,0,0,1,.84,1.4c-.15.5-.73.69-1.35.42a1.31,1.31,0,0,1-.83-1.41c.15-.51.73-.68,1.34-.41"/><path class="cls-4" d="M168.29,25.64c.59.18.87.58.66.92a1.4,1.4,0,0,1-1.47.29c-.59-.19-.88-.59-.66-.93a1.38,1.38,0,0,1,1.47-.28"/><path class="cls-4" d="M172.17,29.91c.72.25,1.06.78.81,1.22a1.54,1.54,0,0,1-1.76.37c-.72-.25-1.07-.78-.81-1.23a1.57,1.57,0,0,1,1.76-.36"/><path class="cls-4" d="M177.75,32.39c.62.24.94.73.74,1.15a1.26,1.26,0,0,1-1.52.31c-.64-.24-1-.74-.74-1.15a1.28,1.28,0,0,1,1.52-.31"/><path class="cls-4" d="M183.24,34.59c.56.23.85.69.68,1.07a1,1,0,0,1-1.31.27c-.57-.23-.86-.69-.69-1.07a1.05,1.05,0,0,1,1.32-.27"/><path class="cls-4" d="M188.49,36.81c.54.23.83.69.68,1.08s-.71.5-1.26.28-.84-.72-.69-1.1.72-.49,1.27-.26"/><path class="cls-4" d="M200.33,10.85c.49.2.83.51.75.78s-.5.28-1,.09-.83-.51-.76-.78.51-.28,1-.09"/><path class="cls-4" d="M197.74,7.86c.44.18.73.47.67.71s-.46.24-.9.06-.74-.47-.67-.72.46-.24.9,0"/><path class="cls-4" d="M195,5.25c.39.16.66.41.61.63s-.41.23-.81.07-.67-.41-.61-.63.41-.22.81-.07"/><path class="cls-4" d="M203.31,14.36c.52.27.86.65.78,1s-.56.29-1.09,0-.87-.67-.78-1,.57-.28,1.09,0"/><path class="cls-4" d="M166.37,28.24c.61.19.89.6.67,1a1.42,1.42,0,0,1-1.51.32c-.62-.19-.91-.61-.67-1a1.45,1.45,0,0,1,1.51-.32"/><path class="cls-4" d="M161,26.76c.58.16.84.52.61.84a1.51,1.51,0,0,1-1.45.33c-.59-.16-.85-.51-.62-.85a1.51,1.51,0,0,1,1.46-.32"/><path class="cls-4" d="M206.93,24.77c-.16.61.39,1.45,1.31,2.07-1.1-.37-2-.19-2.24.52a2.27,2.27,0,0,0,1.05,2.09c-.94-.18-1.67.07-1.88.72s.39,1.76,1.45,2.48c-1.16-.36-2.13-.1-2.39.7a2.39,2.39,0,0,0,1,2.21c-.93-.11-1.66.21-1.88.92a2.62,2.62,0,0,0,1.16,2.5c-1.07-.18-1.93.17-2.2,1-.29,1.11.62,2.52,2.12,3.26,1.24.55,2.37.44,2.93-.21a3.84,3.84,0,0,0,2.18,2.63,2.56,2.56,0,0,0,2.58,0,4.22,4.22,0,0,0,2.09,2.24,2.32,2.32,0,0,0,2.49,0,4.41,4.41,0,0,0,2.11,2.27,2.13,2.13,0,0,0,2.46,0,4.55,4.55,0,0,0,2.14,2.38c1.42.71,2.58.35,2.71-.83A3.64,3.64,0,0,0,224.7,49c.94.17,1.6-.2,1.69-1a3.27,3.27,0,0,0-1.16-2.39c.82.09,1.38-.25,1.45-1A3.46,3.46,0,0,0,225,41.92c1.06.35,1.85.07,1.93-.75a3.12,3.12,0,0,0-1.25-2.25c.84.16,1.41-.1,1.48-.77a3.26,3.26,0,0,0-1.63-2.44c.93.32,1.59.13,1.66-.53a3.16,3.16,0,0,0-1.84-2.36c-.95-.49-1.74-.47-2,0a3.48,3.48,0,0,0-1.8-2c-.92-.47-1.7-.47-2-.06a3.72,3.72,0,0,0-2-2.16c-1-.52-2-.52-2.34,0a3.31,3.31,0,0,0-1.75-1.92c-1.14-.57-2.14-.53-2.33.18h0c.16-.72-.65-1.68-1.79-2.26s-2.2-.48-2.43.22m14.75,21.56a1.54,1.54,0,0,1,.9,1.3c-.06.45-.53.57-1.1.29a1.52,1.52,0,0,1-.89-1.31c.07-.44.54-.56,1.09-.28m-4.39-2.14a1.31,1.31,0,0,1,.78,1.14c-.07.4-.51.51-1,.26a1.29,1.29,0,0,1-.78-1.15c.07-.39.5-.49,1-.25M212.84,42a1.23,1.23,0,0,1,.77,1.13c-.09.39-.54.49-1.05.25a1.23,1.23,0,0,1-.77-1.14c.09-.38.54-.48,1.05-.24m-4-1.19c-.12.43-.64.54-1.23.27s-1-.84-.85-1.27.64-.53,1.23-.26a1.32,1.32,0,0,1,.85,1.26m13.39,2.42a1.35,1.35,0,0,1,.79,1.12c-.05.37-.46.47-.95.22a1.32,1.32,0,0,1-.79-1.12c.06-.37.46-.46,1-.22m-13.48-6.75c.5.26.83.72.75,1.08s-.56.45-1.07.21-.84-.73-.75-1.08.56-.45,1.07-.21M222.63,40A1.31,1.31,0,0,1,223.4,41c-.05.35-.44.44-.92.2a1.28,1.28,0,0,1-.77-1.07c0-.35.45-.43.92-.19m-13.1-6.61c.49.25.8.69.73,1s-.53.41-1,.17-.81-.69-.73-1,.53-.4,1-.16M223,36.92a1.23,1.23,0,0,1,.76,1c-.05.35-.43.4-.89.16a1.23,1.23,0,0,1-.76-1c0-.35.43-.39.89-.15m-12.73-6.49c.47.25.78.66.71,1s-.51.37-1,.14-.8-.65-.72-1,.52-.37,1-.14m12.93,3.34a1.41,1.41,0,0,1,.82,1.07c0,.34-.46.41-1,.15s-.86-.74-.82-1.08.46-.39,1-.14m-3.92-2c.44.23.75.62.71.94s-.43.36-.88.13-.77-.63-.72-.95.43-.35.89-.12m-4-2c.46.24.76.62.71.94s-.46.33-.91.11-.77-.62-.71-.94.46-.34.91-.11M211,27.5c.51.26.86.71.79,1s-.55.39-1.08.13-.85-.72-.77-1.05.54-.37,1.06-.12"/></svg>