<svg id="Layer_1" data-name="Layer 1" xmlns="http://www.w3.org/2000/svg" viewBox="0 0 265 67.01"><defs><style>.cls-1{fill:#131313;}</style></defs><path class="cls-1" d="M183.15,19.22a18,18,0,0,0-.84-4.55,24.76,24.76,0,0,0-3.25-5.56,10.17,10.17,0,0,0-2.45-2.49c-.45-.32-.87-.68-1.3-1a21,21,0,0,0-5.25-2.79,36.32,36.32,0,0,0-12.44-2q-25.41,0-50.79,0a1.56,1.56,0,0,0-1,.14c.21.62.39,1.27.64,1.89a18,18,0,0,1,1.07,6.57V55.9a34.28,34.28,0,0,1-.15,4.41,10.93,10.93,0,0,1-1.08,4.48,10.7,10.7,0,0,0-.59,1.34,3.27,3.27,0,0,0,1.14.1h28.61c.25,0,.49,0,.74,0,.59,0,.65-.13.46-.71,0-.08-.06-.16-.09-.22A17.4,17.4,0,0,1,135.19,58q0-6.84,0-13.65c0-1.32-.11-1.31,1.29-1.31,6.84,0,13.68,0,20.52,0,1.78,0,3.55-.11,5.31-.28a42.21,42.21,0,0,0,10.11-2.59,2.78,2.78,0,0,0,.51-.27,41.63,41.63,0,0,0,4.95-3.73,2.82,2.82,0,0,0,.33-.36,23.74,23.74,0,0,0,3.23-4.61A11.31,11.31,0,0,0,183,26.64,34.71,34.71,0,0,0,183.15,19.22Zm-27.6,5a3.55,3.55,0,0,1-.34.91,15,15,0,0,1-1.55,2.59,7.06,7.06,0,0,1-3.51,2.41,19.62,19.62,0,0,1-7.06,1.14c-2.15-.06-4.29,0-6.45,0-.22,0-.44,0-.65,0-.4,0-.63-.14-.6-.57,0-.21,0-.44,0-.65V14.39a4.89,4.89,0,0,1,0-.66c0-.55.08-.6.6-.64a5.61,5.61,0,0,1,.58,0c3,0,6.09,0,9.15,0a10.12,10.12,0,0,1,3.83.71c.52.23,1,.43,1.59.64a7.1,7.1,0,0,1,4,4.18A10.68,10.68,0,0,1,155.55,24.17Z"/><path class="cls-1" d="M230.32.78h33.12c1.42,0,1.33-.08,1.33,1.33q0,6.42,0,12.84c0,1,0,1-.91.66a23.34,23.34,0,0,0-4.34-1.15,9.87,9.87,0,0,0-1.22-.1H226.65c-1,0-1,0-1,1V28.94c0,.16,0,.33,0,.49a.47.47,0,0,0,.52.5h27.4a16.65,16.65,0,0,0,3.06-.47c.72-.14,1.44-.32,2.16-.45.45-.09.51,0,.55.44a4,4,0,0,1,0,.49V43.2a4,4,0,0,1,0,.49c0,.51-.08.56-.61.46-.69-.14-1.39-.26-2.08-.44A26.1,26.1,0,0,0,250,43c-7.71,0-15.43,0-23.14,0-1.22,0-1.23,0-1.23,1.21,0,5,0,10.08,0,15.12a14,14,0,0,0,1.1,5.48c.61,1.51.58,1.41-1,1.41H197.19c-1.29,0-1.3,0-.81-1.17a17.86,17.86,0,0,0,1.35-6.93q0-24.48,0-49a43.16,43.16,0,0,0-.52-5.44,7,7,0,0,0-.71-1.64C196,.78,196,.78,197.36.78Z"/><path class="cls-1" d="M31.5,66.11a15.26,15.26,0,0,0,1.58-4.7,8.12,8.12,0,0,0,.09-1.3c0-6.48,0-13,0-19.45A2.44,2.44,0,0,0,32.6,39Q20.47,23.72,8.35,8.39c-.73-.92-1.66-1.65-2.43-2.53A25.31,25.31,0,0,0,.43,1.13C.34,1.07.24,1,.22.88.43.72.68.79.91.79H31c.9,0,.95,0,1.15.81A15.11,15.11,0,0,0,34.2,5.85c4,6.4,8.16,12.69,12.25,19,.61.94.69.94,1.31,0,3.39-5.14,6.8-10.27,10.15-15.44a53.29,53.29,0,0,0,4.14-7.79A1.3,1.3,0,0,1,63.46.77c9.9,0,19.79,0,29.69,0a1.47,1.47,0,0,1,.8.08c0,.26-.22.3-.36.38a15.88,15.88,0,0,0-2.88,2.28,4.83,4.83,0,0,1-.77.73A18.33,18.33,0,0,0,86.3,8.08Q73.94,23.53,61.51,38.92a3,3,0,0,0-.7,2q0,9.19,0,18.39a9.57,9.57,0,0,0,.4,2.82,14.87,14.87,0,0,0,1.28,3.34c.36.6.25.73-.46.76H32.59A2.34,2.34,0,0,1,31.5,66.11Z"/></svg>